<svg xmlns="http://www.w3.org/2000/svg" viewBox="0 0 960.95 960.91"><defs><style>.cls-1{fill:#cd9862;}.cls-1,.cls-2,.cls-3,.cls-4,.cls-5,.cls-6,.cls-7,.cls-8{fill-rule:evenodd;}.cls-2{fill:#cc9b67;}.cls-3{fill:#ce9865;}.cls-4{fill:#cc9461;}.cls-5{fill:#d0a471;}.cls-6{fill:#d8974a;}.cls-7{fill:#d7964b;}.cls-8{fill:#fff;}</style></defs><g id="Layer_2" data-name="Layer 2"><g id="Layer_1-2" data-name="Layer 1"><path class="cls-1" d="M271.78,807.61c1.78-.17,3.13.24,3.21,2.37A6.4,6.4,0,0,1,271.78,807.61Z"/><path class="cls-2" d="M571,810c.07-2.11,1.4-2.55,3.18-2.39A6.47,6.47,0,0,1,571,810Z"/><path class="cls-3" d="M343.67,861.66c1.69-.2,3.14,0,3.37,2.12C345.5,863.73,344.69,862.53,343.67,861.66Z"/><path class="cls-4" d="M498.92,863.82c.2-2.14,1.64-2.36,3.35-2.18C501.21,862.45,500.51,863.82,498.92,863.82Z"/><path class="cls-5" d="M460.85,887.66c.36-2,1.79-2.18,3.44-2C463.26,886.55,462.43,887.75,460.85,887.66Z"/><path class="cls-6" d="M395.51,893.67c1.71-.21,3.26-.14,3.69,2C397.55,895.77,396.63,894.55,395.51,893.67Z"/><path class="cls-7" d="M432.76,903.66c.43-2.13,2-2.2,3.69-2C435.31,902.49,434.41,903.77,432.76,903.66Z"/><path class="cls-8" d="M480.54.21q124.4,0,248.79,0Q841.72.15,954.11,0c6.44,0,7.07.5,6.78,7-1.69,38.59-2.58,77.23-5.49,115.73-2.67,35.24-6.93,70.39-11.68,105.42-4,29.45-8.91,58.83-14.86,87.95A1231.3,1231.3,0,0,1,891.33,457a1063,1063,0,0,1-51.69,127.58,889.28,889.28,0,0,1-53.07,94.15A822.94,822.94,0,0,1,662.84,829.49a821.65,821.65,0,0,1-76.71,64.88,883.13,883.13,0,0,1-100.63,65c-3.55,2-6.14,2-9.79,0A841.55,841.55,0,0,1,329.74,858a834.78,834.78,0,0,1-161.1-188.11A943.11,943.11,0,0,1,89.45,512.43c-16.58-42.12-30.89-85-41.55-129.09-7-28.73-14.33-57.44-19.48-86.52q-10.19-57.46-17-115.51c-4-33.92-6.1-68.08-8.37-102.18C1.46,55.2,1,31.2.07,7.22-.2,0,0,0,7.48,0H480.54ZM481,19v.07H29.46c-9.72,0-9.89,0-9.6,9.88.87,29.25,1.05,58.55,3.07,87.72,2.65,38.33,5.76,76.69,10.6,114.79C38,266.84,44.27,302.05,51.23,337c5.23,26.29,12.32,52.23,19.45,78.09a942.85,942.85,0,0,0,55.66,150c29.2,62.18,65,120.21,108.69,173.35a759.15,759.15,0,0,0,106.24,106.3A850.16,850.16,0,0,0,473,933c5.36,2.92,9.6,3.43,15,.08,22.43-13.84,45.54-26.62,67.6-41,63.75-41.56,119.41-92.35,168.26-150.6,33.35-39.75,61.89-82.8,86.72-128.32a885.53,885.53,0,0,0,67.35-157.33c9.38-29.65,17.76-59.67,25.21-89.86,6.75-27.35,12-55.11,17.19-82.81,3-15.85,4.88-31.92,6.69-48,3.52-31.08,7.64-62.15,9.66-93.34,2.49-38.53,3.13-77.17,4.51-115.77.25-7.06.09-7.06-7-7.06Z"/><path class="cls-8" d="M481,28.86H924.48c6.94,0,7.1,0,6.86,6.9-1.35,37.78-2,75.6-4.42,113.3-2,30.53-6,60.93-9.44,91.35-1.78,15.69-3.65,31.41-6.56,46.92-5.09,27.12-10.21,54.28-16.82,81.05-7.29,29.54-15.49,58.92-24.67,87.93a866.43,866.43,0,0,1-65.91,154c-24.3,44.55-52.24,86.69-84.86,125.59-47.82,57-102.29,106.7-164.68,147.38-21.59,14.09-44.2,26.59-66.15,40.13-5.31,3.28-9.46,2.78-14.7-.07A832.52,832.52,0,0,1,344.24,837a742.84,742.84,0,0,1-104-104c-42.76-52-77.8-108.8-106.37-169.65A922.37,922.37,0,0,1,79.43,416.52c-7-25.3-13.92-50.69-19-76.41-6.82-34.25-12.92-68.71-17.32-103.33C38.34,199.49,35.3,162,32.7,124.44c-2-28.55-2.15-57.22-3-85.84-.29-9.65-.12-9.67,9.39-9.67H481ZM76.58,44.16v-.53c-9,0-18,.09-27,0-3.87-.06-5.51,1.5-5.21,5.37.35,4.31.56,8.64.76,13,1.35,29.6,1.94,59.26,4.23,88.78,2.37,30.47,5.89,60.89,9.85,91.2,3.28,25,7.5,50,12.07,74.84a1010.51,1010.51,0,0,0,38.66,147c16.74,48.52,36.8,95.65,61.55,140.7a777,777,0,0,0,91.09,132.18,757.07,757.07,0,0,0,113.84,107.5,749.08,749.08,0,0,0,101.1,65.08c1.7.92,4.88.59,6.7-.39a791.82,791.82,0,0,0,79.7-49.48,738,738,0,0,0,152.36-144.6C760.44,659.18,795.85,598.4,824,533.32c15.74-36.38,29.64-73.46,40.16-111.7,7.58-27.55,15.36-55.12,21.13-83.08,6.92-33.53,12.25-67.41,17.41-101.27,3.29-21.53,5.35-43.26,7.33-65q2.91-32.07,4.47-64.25c.94-19.13.93-38.3,1.48-57.45.2-7,.39-7-6.48-7-30,.16-60,.49-90,.5Q448.07,44.2,76.58,44.16Z"/><path class="cls-8" d="M480.86,135.65H823.34c5.66,0,6.21.7,5.82,6.38-1.43,20.9-2.47,41.82-4.26,62.68q-2.94,34.53-7,69c-2.23,18.63-4.13,37.44-8.33,55.68a511.4,511.4,0,0,1-19,64.52c-9.25,24.73-20.86,48.59-31.45,72.83-1.72,3.93-4.29,5.2-9,5.15-29.32-.3-58.65-.15-88,.1-4.13,0-5.41-1.36-5.24-5.14.2-4.32,0-8.67.36-13s-1.29-5.8-5.66-5.74c-15.33.2-30.66.08-46,.08H311.18c-7,0-7,0-7,7.21,0,4,0,8,0,12,0,3.35-1.39,4.6-4.89,4.59-30.15-.12-60.31-.17-90.46,0-4.23,0-5.57-2.64-6.89-5.36-6.11-12.58-12.72-25-17.84-38-8.89-22.57-17.32-45.35-25-68.36-6.91-20.7-10.91-42.16-13.29-63.87-3.35-30.57-6.81-61.14-9.67-91.75-1.72-18.38-2.38-36.86-3.54-55.29-.15-2.48-.54-4.95-.69-7.43-.35-5.79.17-6.34,5.93-6.34q21.75,0,43.5,0Zm-.34,10.64h-331c-6.47,0-6.59,0-6.24,6.35q.83,15.2,1.94,30.37c.83,11.61,1.65,23.23,2.72,34.82,1.67,18,3.26,36.08,5.43,54,2.1,17.32,4,34.74,7.64,51.77A559.86,559.86,0,0,0,175.82,378c8.81,27.45,20.5,53.77,33.51,79.49.79,1.55,3.14,3.26,4.78,3.27,25.16.2,50.33.09,75.49.14,3.14,0,4.09-1.47,4-4.3-.08-4,0-8,0-12,0-7.45.17-7.6,7.52-7.6H659.56c.84,0,1.67.05,2.5,0,3.77-.28,5.56,1.26,5.38,5.22-.19,4.32.2,8.68-.13,13s1.09,5.8,5.6,5.76c23.33-.21,46.66-.34,70,.06,5.78.1,8.56-1.82,10.93-6.84a739.24,739.24,0,0,0,34-83.58,397.51,397.51,0,0,0,18-83.78c2.15-20.51,4.36-41,6.17-61.55,2.11-24,3.89-48.05,5.65-72.09.5-6.82.24-6.84-6.7-6.84Z"/><path class="cls-8" d="M615,639.18c-4,4.67-9.3,3.39-14.15,3.49-1.5,7.76,1,11,11.21,13.06-1.64,2.22-2.89,4.12-4.37,5.83-.61.7-2.1.75-2.53,1.48-2.7,4.65-5.41,4.33-8.78.63-.5-.53-2.87.37-4.22,1-3,1.31-5.9,2.84-8.84,4.29l-.67-1.23c.55-1.47,1.11-2.94,1.91-5.07l-16.79,4.55c.47-2,.36-3.47,1-3.94,3.62-2.74,7.11-6.52,11.23-7.51,5.93-1.42,6.89-4.85,6.88-9.67,0-8.35-2.21-15.71-9.14-21.16a73,73,0,0,1-8-7.58C555,601.49,537.2,599.46,517.64,606c-12.16,4.06-24.19,8.49-36.32,12.65a51.61,51.61,0,0,1-10.93,2.46c4.11-7.77,10-14.4,8.14-24.05a13.3,13.3,0,0,0-1.72,3c-2.17,8.47-7.44,15.09-12.43,22a59.22,59.22,0,0,0-7.76,13.79c-2.63,7.1,1,10.89,9.41,10.46-1.44,1.58-2.66,3.52-4.39,4.68a38.79,38.79,0,0,1-8,4c-3.42,1.29-3.67,3-1.27,5.44a18.85,18.85,0,0,1,1.44,1.38c1.07,1.42,2.07,2.89,3.1,4.34-2.51.89-5.34,3-7.44,2.37-3.06-.85-5.09-1.1-7.6,1.09-1,.86-3.94,1.07-4.73.3-3.5-3.41-6.63-3.09-10.06-.16a6.39,6.39,0,0,1-2.07.65c-3.33-10-9.78-.72-14.53-2.45.35-7.33,5.12-11.12,12.21-10.22A21.17,21.17,0,0,0,431,657c4.92-1.39,7.15-4.94,5.91-9.87-2.32-9.18-5.2-18.22-7.67-27.37-1.07-4-1.69-8.09-2.56-12.14-.25-1.16-.69-2.28-1.34-4.38-4.21,6.67-2,12.36-.16,19.09a51.45,51.45,0,0,1-6-2.11c-8.11-4.16-15.78-9.08-19.33-17.92-5.3-13.18.07-24.16,8.73-33.71,4.43-4.89,10.07-8.68,14.93-13.2,2.13,1,2.13,1-.36,11,1.06-.19,2-.3,2.85-.53s1.53-.53,2.21-.77c.4.35.79.52.86.78.62,2.3,1.19,4.61,1.77,6.92,2-1,4-2.5,6.09-2.82,1.73-.27,4.43.3,5.38,1.52,2.71,3.49,5.16,3.4,8.44,1,3.71-2.69,7.62-5.09,11.94-7.94l3.93,8.61c2.59-2.21,5.48-3.76,7-6.17,2.69-4.32,5.77-4,9.55-2.19,1.31.62,2.68,1.13,4.16,1.75,1.05-2.57,1.41-6.08,3.11-6.92,1.93-1,5,.67,7.65.79,2,.08,4-.43,7.07-.81-2.21-2.45-3.58-3.95-4.94-5.45l.27-1.18c3.08.38,6.17.74,9.25,1.15,11.7,1.53,22.25-2.88,33-6.39,15.32-5,30.93-7.23,46.56-2.22,6.14,2,9.08,0,11.85-4.11a11.67,11.67,0,0,0-1.71-14.67c-6.12-5.91-13.82-7.95-21.93-8.1a108.9,108.9,0,0,0-17.35,1.52A121.89,121.89,0,0,1,518.44,519c-4.44-.88-8.69-1.19-11.71,3.57l-1.63-.77c.39-2.43.92-4.84,1.11-7.28.13-1.51.33-3.83-.51-4.49-8.93-7-7.37-21.5,4.84-27.62,16.53-8.28,33.66-9.79,50.48-1.56,11,5.38,21.21,12.41,31.79,18.67a66.94,66.94,0,0,0,6.55,3.56c2.79,1.27,5.57,2.51,5.37-2.8,0-1.06,2.86-3.28,4-3.06a6.63,6.63,0,0,1,4.34,3.79c1.31,4.17-2.77,8.91-7.91,9.63s-9.93-.21-14.06-3.58c-1.42-1.15-2.82-2.34-4.27-3.46-6.3-4.88-6.31-4.88-12.42,1.12L566,492.09a51.8,51.8,0,0,1-5,4.46c-1.1.77-2.64.91-4,1.33-.34-1.21-.76-2.42-1-3.66-.53-2.51-1-5-1.68-8.73l-10,11.82a60.11,60.11,0,0,0-2.34-5.77c-1-1.72-1.87-3.69-3.35-4.84s-3.61-1.35-5.45-2L531,491.07a24.89,24.89,0,0,1-3.22-2c-6.43-5.52-17.84-2.15-19.65,6.07-.45,2,.42,4.53,1.34,6.5.24.5,3-.23,4.63-.33s3.25-.09,4.88-.13a34.85,34.85,0,0,0,.12,4.58,41.23,41.23,0,0,0,1.33,4.8,14.87,14.87,0,0,0,3.24-2.37c3.19-4,4.31-3.67,7.29.5,3.51,4.91,9.27,5.86,14.72,5.8,8.3-.09,16.57-1.16,24.87-1.6a58.58,58.58,0,0,1,31.3,6.63c13.67,7.26,11.59,23.76,2.87,30.47-3.21,2.47-3.52,4-.82,7.43,7.08,9.06,7,25.75.73,35.33-6,9.07-11,18.57-7.45,29.85,2.51,8,6.3,15.24,16.38,15.59C614,638.16,614.37,638.69,615,639.18Z"/><path class="cls-8" d="M519.78,675.58H654.62c-6.89,10.08-12.62,19.19-19.06,27.76-28.48,37.93-63,69.95-99.31,100.08-16.13,13.38-33.08,25.77-49.72,38.54-5.67,4.36-6.36,4.11-12.18,0a822.29,822.29,0,0,1-97.68-81.51c-25.59-24.87-49.58-51.17-68-82a24.52,24.52,0,0,1-1.16-2.9H441.69c-4.09,4.69-6.76,8.35-13.37,8.26-32.49-.44-65-.19-97.49-.16-2.33,0-4.67.19-8.2.35,27.95,41.35,62.77,74.44,99.74,105.88C413.85,776.69,407.45,763,407.58,747c4.82,4.34,9.24,8.42,13.8,12.34a17.21,17.21,0,0,0,4.37,2.37c6.13,2.74,6.17,2.73,3.67,8.71-2.84,6.79-4.09,13.83-2.06,21a8.89,8.89,0,0,0,4.78,5.25c8.64,3,17.05,1.31,25.14-2.51l3.24-1.56c3.26,10.08,8.58,18.47,17.84,24.08-11.47,1-21.71-2.56-32.15-6.92a10,10,0,0,0,1.71,2.45q14,10.83,28.17,21.52c2.33,1.76,4.85,3,7.73.75,10-7.69,20.11-15.33,30.15-23,.46-.35.66-1,.75-2.12-9.66,4.27-19.42,7.7-30.32,7.3a45,45,0,0,0,15.82-23.7c4.37,1.51,8.16,3.56,12.13,4a67.65,67.65,0,0,0,16.7-.36c1.82-.26,4.12-3.18,4.67-5.28,2.18-8.25.34-16.11-3.56-23.57a27.26,27.26,0,0,1-1.27-3.93,39.16,39.16,0,0,0,24-17.48c.85,16.31-5.6,30-14,43.19,36.76-31.24,71.36-64.3,99.24-105.18a32.34,32.34,0,0,0-4.65-.84c-33.66,0-67.32-.08-101,.18C526.45,683.7,523.23,680.58,519.78,675.58Z"/><path class="cls-8" d="M435.17,567.52c-2.72-5.23-4.86-9.62-7.27-13.87-1.71-3-4.25-5.63-2.48-9.65.17-.39-2.29-2.8-3.51-2.79-4.58,0-9.16.64-13.73,1.14-2.79.31-5.55.82-8.33,1.23l-6.92,1c1.92-3.31,3-5.31,4.2-7.18,2.4-3.63,3.63-7.37,2.38-11.8-.29-1,.85-2.42,1.33-3.64.89.92,2.46,1.76,2.57,2.76.51,4.68,3.17,6.56,7.55,7.13,2.08.26,4,1.66,6.1,1.93,2.69.35,5.69.76,8.13-.08,4.57-1.58,4.78-4.31,1.56-7.88-2.78-3.07-5.27-6.39-7.87-9.62-1.1-1.36-2.15-2.76-3.52-4.52l-2.95,4c-.16,0-.36.15-.47.09-.86-.47-1.67-1-2.55-1.46-6.6-3.19-14.83-4.64-15.49-14.22-.29-4.29,2.48-7.55,6.25-7.4,2.6.11,5.28.32,3.75,4.37-1.24,3.28,1.24,3.9,3.53,3.54s4.33-1.67,6.56-2.28c5.71-1.57,11.47-3,17.21-4.48,1.67-.44,3.32-1,5-1.48-.68-1.54-1.38-3.07-2.05-4.61-.31-.72-.57-1.46-1.32-3.37,3.65.49,6.6.45,9.23,1.34,4.74,1.59,6.37,1.08,6.08-3.73-.31-5.22,2.62-4.76,5-2.92a19.42,19.42,0,0,1,6.28,8.14c1.24,3.42,3,4.64,5.78,3.13,3.47-1.89,6.47-4.65,10.46-7.62,1.4,1.59,3.11,5.14,5.73,6.05s6.08-.91,10.17-.67c-2.53,3.42-5.05,6.84-7.05,9.56l13.72,10.81c-1.61,1.26-2.21,2.13-2.87,2.17-6.4.4-4.68,3.81-2.8,7.31a3.37,3.37,0,0,1,.46.88c.52,2.37,1,4.74,1.5,7.11-2.66-.61-5.71-.6-7.9-2-6.35-4-8.07-11.05-4.8-18l-3-2.72c.65-1.23,1.32-2.47,2.27-4.25h-8.29c1.22,3.46,2.3,6.23,3.17,9.07.73,2.37,1.22,4.81,2.1,8.4-6.68-3.27-11.53-3.42-15.41,2-.43.59-2.58.39-3.7,0-4.2-1.61-5.92-.16-5.77,4.15a5,5,0,0,1-.53,1.67c-3.1,1.42-6.55-5-8.69,1.44l-7.16-5.83c-1.26,4.6,1.31,6.15,3.73,7.8,2.78,1.9,5.43,2.49,6.92.22,3.35.29,5.89.41,8.39.78a7.65,7.65,0,0,1,3.07,1.3c3.56,2.44,6.23,5,11.87,3.52,4.46-1.14,11-.87,15.09,4.31,2.21,2.77,5.35,4.79,8.65,7.65-5.79,1.77-10.06-.09-14.42-2.07-4.65-2.11-9.45-3.87-14.19-5.77-.3-.12-.82-.29-.94-.16-4.32,4.72-7.11-.62-10.84-1.89l-2.2,5.78-8.16-8-.92,1.15c3.3,6.45,3.3,6.45.31,14.46l-12.82-1c1,3.27,1.91,6,2.48,7.82l11.88-2.57c.17.49.34,1,.52,1.46.83-2.57,1.67-5.13,2.54-7.81,11.92,7.35,14.06,12.93,6.83,18.36-.58-2.08-1.1-4-2-7.34-1.52,3.56-2.3,6-3.59,8.1-.58,1-3.17,1.89-3.2,1.83C442.68,562.78,439,564.6,435.17,567.52ZM453,505.13c-4.34,3.06-7.57,4-11.53,2.09-2.95-1.44-6.07-3.12-9.23-3.38-2.09-.17-4.37,2-6.57,3.06,1.88,1.26,3.79,3.65,5.65,3.61,10.09-.22,20.19-.82,30.24-1.79,2.54-.25,4.89-2.36,7.33-3.61l-.53-1.35c-1.1-.12-2.42-.69-3.27-.28-5.15,2.49-9.39,1.57-13.64-2.25-1.26-1.14-4.12-.5-6.25-.68-.05.53-.11,1.06-.16,1.59Z"/><path class="cls-8" d="M448.9,744c.06-17.47,14.24-31.25,32.09-31.19a31.45,31.45,0,0,1,31.14,31.68c-.26,19.09-15.6,31.1-31.62,31.5C463.24,776.37,448.84,761.19,448.9,744Z"/><path class="cls-8" d="M251.68,99.76c-10.5,10.16-23.65,10.18-36.93,5.55-10.76-3.76-13.66-17.06-6.65-26.1a4.81,4.81,0,0,0,1.13-3.38,8.77,8.77,0,0,1,11.36-10.41c3.17,1,5.92,3.3,9,5.1,2.4-1.45,5-3.52,8-4.75a11,11,0,0,1,12.81,2.81c1.55,1.7,1.58,4.91,2,7.48.2,1.28-.31,2.67-.5,4,.77,0,2,.27,2.22-.08.82-1.4,2-3,1.83-4.5-.55-5.64,1.52-9.6,6.75-10.16,2.73-.29,5.76.9,8.45,2,1.6.62,2.8,2.24,4.63,3.79,1.22-1,2.44-2,3.68-3a13.66,13.66,0,0,1,16.71-.54c3.2,2.27,4.46,5.08,3,9.06a6.89,6.89,0,0,0,.17,4.92c3.87,7.73,1.94,17.07-5.23,21.6a29.56,29.56,0,0,1-20.45,4.64c-2.63-.38-5.53.08-7.88-.88C261.15,105,256.82,102.42,251.68,99.76ZM226.87,98c7.92-.43,13.94-.42,17.69-5.43,1.55-2.08,2.42-5.85,1.61-8.15-.68-1.92-4.19-3.78-6.58-4-6.61-.5-13.29-.16-19.94,0-3.61.07-6.74,1.43-7.5,5.27-.8,4,.26,7.93,4.44,9.54A77.77,77.77,0,0,0,226.87,98Zm50.2-17.73v.24c-4,0-8.13-.65-11.92.23-2.43.56-5.7,3.08-6.13,5.22-.51,2.53,1.3,5.8,2.81,8.32.78,1.32,3.06,2.35,4.72,2.43a127.11,127.11,0,0,0,17.78,0,9.85,9.85,0,0,0,6.61-3.91c1.5-2.38,2.42-6,1.66-8.58-.53-1.8-4.12-3.23-6.57-3.78C283.18,79.73,280.07,80.22,277.07,80.22Zm15-6.78c-.9-1.15-1.41-2.43-2-2.47a25.47,25.47,0,0,0-6,.4c-.37.06-.53,1.34-.78,2.06a37.54,37.54,0,0,0,5.39,1.16C289.61,74.67,290.64,74,292.09,73.44ZM245.45,74c-3.47-5-6.27-4.94-9.25,0Z"/><path class="cls-8" d="M575.72,69.25l-4.56-1.76c3-7.91,9.41-10.94,16.51-12.35,12.22-2.43,22.69,2.38,27.17,11.78,5.58,11.7,3.08,27.64-5.51,35.17-8.06,7.07-19.9,7.85-29.78,2-7.39-4.41-11.79-15.18-9.33-24.58C571.13,76,573.69,72.9,575.72,69.25Zm1-2.08a15.67,15.67,0,0,0,2.61,1.53c4.6.88,8.39,3.4,14-.07s12.25,3.81,11.84,11.67c-.38,7.24-5.56,11.7-13.06,11.26S581.2,87,581.79,79.37c.09-1.19,0-2.4,0-3.6l-1.35-.53c-1,1.1-2.31,2.05-2.82,3.33-2,5,.09,12,4.46,15.31,5.64,4.22,11.94,5.21,18.39,2.52,6-2.49,9-7.2,9.75-13.89,1.76-15.69-8.93-25.35-23.9-20.84C583.15,62.63,580.39,65,576.71,67.17ZM598.15,82l-11.09-2.65-1,.84c1.33,1.39,2.41,3.44,4,4C592.93,85.26,596.24,85.86,598.15,82Z"/><path class="cls-8" d="M314.29,68.33h-6A44.53,44.53,0,0,1,311.16,63c6.46-8.42,18-9.85,27.82-7.39,9.13,2.3,15.51,11.34,16.17,21.31.73,11-1.26,21-11.46,27.4-8.66,5.45-17.53,4.61-26.06,0C310,100.24,307.89,93,307.41,84.66c-.4-6.9,3.2-11.51,6.77-16.43,5.39.11,10.76,6.14,16.23,0,.44-.49,1.93-.19,2.89,0,8.05,1.2,11.74,9.28,7.93,17.29-2.44,5.14-9.14,7.49-15.56,5.46-4.92-1.55-7.31-5.75-6.7-11.37.13-1.24-.45-2.56-.71-3.85-1.13,1-2.76,1.79-3.29,3-2.85,6.71,2,15.5,9.77,18.08,8.93,3,18.17-.86,21.81-9,3.83-8.63.53-20.77-6.8-24.95C331.6,58.22,319.75,60.76,314.29,68.33Zm10.25,11.1c-.38,3,.56,4.66,3.68,5.17,2.95.49,6.09.8,7.57-2.64Z"/><path class="cls-8" d="M355,569.22c-.9-11.24-2-22.47-2.64-33.72-1-18.72-3.64-37.48,1.28-56.1,2.32-8.77,9.12-17.27,17.59-20.52-.78,4.8-1.77,9.2-2.16,13.65-1,11.4-2.1,22.82-2.54,34.25-.7,18.46-.78,36.94-1.36,55.4-.26,8.38-2.61,9.78-10.23,6.91Z"/><path class="cls-8" d="M523.78,666.82c2.18-8.72,8.91-14.13,16-13.94,5.88.16,9-3,7.33-8.74-1.48-5.16-4.19-10-6.84-14.78-3.48-6.22-7.46-12.15-11.15-18.25-2-3.39-1.19-5.25,3-5.41,12.58-.48,23.45,3.68,32.85,11.94,1.79,1.58,2.94,3.23,1,5.48a6.9,6.9,0,0,0-.7,1.32c-4.82,8.63-4.82,8.63-.07,17.37-6.63,6.12-8.45,13.11-1.71,21-.23.48-.47,1-.7,1.43-2.66-.2-5.72.35-7.9-.78-3.54-1.84-6.14-1.34-9.16.78-2,1.44-4.52,2.27-7.64,3.78.18-2.63.27-4,.4-5.92Z"/><path class="cls-8" d="M653.92,104.57c-5.7,2.7-11.82,4.43-18.45,2.43-5.46-1.65-8.09-5.09-8.12-10.86,0-.5.26-1.2,0-1.45-4.74-5-1.32-8.25,2.61-11.12-.23-.79-.2-1.46-.51-1.69-4-3-4.85-6.53-2.09-10.79s8.12-6.47,12.53-4.38a9.68,9.68,0,0,0,8.9,0c13.49-5.94,28.45,4.63,27.43,18.25-.2,2.64.24,5.33,0,8-1,9.32-7.7,15.27-16.85,14.84C657.7,107.69,656.14,105.93,653.92,104.57Zm-12.68-6.66c8.26-.09,12.36-4,11.72-9.89-.6-5.49-5.17-9.14-10.57-7.64-2.7.75-5,3-7.34,4.85-4.5,3.56-3.67,9.3,1.7,11.57A22,22,0,0,0,641.24,97.91Zm11.76-23c-.2.52-.39,1-.59,1.57,8.1,6.42,8.65,14.3,5.38,23.24-1.18,3.23,1.37,3,3.53,2.37,4.9-1.51,7.54-5.78,7.54-12.13,0-7.75-2.85-12.8-8.43-14.29C658.06,75,655.48,75.1,653,74.87Z"/><path class="cls-8" d="M708.51,70.82c6.73-6.19,12-7.4,18.22-4.13,4.72,2.48,5.76,5.38,4.17,10.5a5.77,5.77,0,0,0,.43,4.1c5.44,9.61,0,20.6-9.24,24.11a38.53,38.53,0,0,1-29.07-.22c-10.4-4.26-13.08-17-6-25.79a4.85,4.85,0,0,0,1.1-3.4c-1.33-7.44,4.56-12.91,11.77-10.39C702.83,66.64,705.39,68.89,708.51,70.82Zm.25,9.34v.23c-3.83,0-7.81-.65-11.43.22-2.46.6-5.75,3-6.23,5.16a10.43,10.43,0,0,0,2.57,8.34c5.59,5.5,23,5.37,28.57-.31,2.07-2.1,3.19-6.23,2.92-9.26-.31-3.5-3.94-4.48-7.41-4.4C714.76,80.21,711.76,80.16,708.76,80.16Zm15.08-6.66c-2.26-3.11-4.5-4.07-6.69-2.8-.82.47-1.2,1.7-1.79,2.58,2.12.44,4.23,1,6.36,1.26C722.24,74.62,722.84,74,723.84,73.5Z"/><path class="cls-8" d="M554.13,73.65c.93-2,1.16-3.25,1.93-3.92a15.49,15.49,0,0,1,3.62-1.8A23.44,23.44,0,0,1,561,71.66c.31,1.75-.23,3.87.56,5.29,3,5.29,1.6,11.34-4.24,12.87-5.31,1.4-3.79,4.9-4,8.09s1.7,3.73,4.35,4.08a3.84,3.84,0,0,1,2.41,2.92c0,1.07-1.58,3.08-2.35,3-4.69-.31-4.68,2.5-4.35,5.75.07.66.28,1.51,0,2a45.11,45.11,0,0,1-3.08,3.68c-1.12-1.13-3-2.12-3.25-3.41-1.36-7.73-1.24-7.53-8.9-7.84A41.88,41.88,0,0,1,526.36,106c-11.42-3.89-14.08-19-5.09-27.18,1.11-1,2.29-3.08,2-4.29-1.17-4.65,1.54-6.65,5-7.8C537.89,63.54,546.9,63.71,554.13,73.65Zm-6.7,17c0-12.06-.19-12.23-11.32-10.51-6.45,1-10.15,5.56-9.54,11.74.71,7.2,5.91,10.41,16.1,10,7.58-.33,3.8-6.17,4.74-9.71A6.17,6.17,0,0,0,547.43,90.67Zm-1.11-16c-1.87-4.11-10.1-6.45-12.24-3.93-.45.53.76,3.68,1.41,3.75A98.7,98.7,0,0,0,546.32,74.68Z"/><path class="cls-8" d="M188.45,73.48c1.13-1.84,1.73-3.44,2.86-4.45a4.53,4.53,0,0,1,3.46-.73c.44.07.65,1.84.84,2.87.37,2.08.22,4.38,1.07,6.24,2.37,5.19.63,10.82-5,12.55-3.94,1.22-4.12,3.61-4.09,6.78s1.2,4.91,4.64,5.16a3.74,3.74,0,0,1,2.4,2.79c0,1.12-1.43,3.27-2.09,3.21-4.83-.41-4.71,2.59-5.07,6-.19,1.85-1.86,3.55-2.87,5.32-1-1.77-2.83-3.57-2.78-5.31.12-4.64-.81-6.68-6.18-6-4,.54-8.26-.28-12.28-1.12-5.81-1.21-10.56-4-11.94-10.5-1.47-6.92-1.07-13.19,5.13-18a4.54,4.54,0,0,0,1.34-3.75c-1-4.76,1.63-6.9,5.45-8.06C172.86,63.65,181.74,63.72,188.45,73.48Zm-6.59,17.21c0-12.14,0-12.14-11.05-10.54-7,1-10.17,5.12-9.52,12.47.58,6.72,5.75,9.67,16,9.25,7.82-.32,3.31-6.33,4.52-9.7A4.86,4.86,0,0,0,181.86,90.69Zm-.29-15.88c-3.3-5.79-7.59-5-11.47-4.77-.85,0-1.62,1.6-2.43,2.46.94.77,1.82,2.12,2.81,2.2C173.71,75,177,74.81,181.57,74.81Z"/><path class="cls-8" d="M464.84,79.73c-4.09.31-7.61.32-11,.89-6.23,1-9.22,4.13-9.39,9.15-.21,6.09,2.29,9.21,8.42,11.26,6.65,2.22,13.13,1.23,19.62-.49,3.37-.9,5.94-1.32,4.17,3.69-.3.87.46,2.39,1.16,3.27,3.33,4.2,3.13,8.15-1.55,10.2-11.83,5.19-23.9,5.35-35.61-.44-2.17-1.08-3.76-3.68-5.11-5.88-.54-.88.3-2.6.52-3.93,1.18.29,2.83.18,3.46.93,7.15,8.57,16.76,6.48,25.88,5.84,1.48-.1,4-2.91,3.92-4.39-.12-3-2.56-3.35-5.56-3a63.42,63.42,0,0,1-14.76.26c-6.93-.83-12.05-4.6-14.07-11.68s0-13,5.52-17.93c1.19-1.07,1.6-3,2.46-4.46,1-1.75,1.71-4.35,3.24-5,8.22-3.64,16.68-4.51,24.95,0a10,10,0,0,1,4,3.64c1,1.91,2.27,4.7,1.56,6.27-.6,1.34-3.79,1.82-5.92,2.09A28.18,28.18,0,0,1,464.84,79.73Zm5.55-5c-2.39-4.13-10.09-6.25-14.9-4.63-1,.32-1.64,1.56-2.45,2.38,1,.75,1.9,2.09,2.9,2.14C460.51,74.82,465.1,74.69,470.39,74.69Z"/><path class="cls-8" d="M427.15,76l-3.67,2.47c1.26,3.21,3.12,6.29,3.63,9.57,1.5,9.74-3.77,16.81-13.8,19.28-9.78,2.41-19.94-2.48-23.17-11.53-3-8.45-1.7-16.38,4.15-23.36s13.7-8.22,22.14-6.15A14.53,14.53,0,0,1,427.15,76Zm-6.09.81a10.22,10.22,0,0,0-.32-2.19,3.16,3.16,0,0,0-.93-1.15c-5.19-3.85-11-3.79-16.6-1.69-4.9,1.83-7.26,6.17-7.84,11.27-.74,6.58,2.12,11.94,7.17,14,6,2.4,12.09,1.23,15.51-3,2.81-3.44,2.82-7.15-.21-9.9-.23,1.09-.38,2-.63,3-1.18,4.39-5.5,7.41-9.7,6.8-5.1-.74-7.91-4.09-7.76-9.26.2-6.8,6.72-11,14.55-9.29ZM408.29,88.87c1.53-1.9,3.26-3.12,3.18-4.21s-1.88-2.59-3.13-2.81c-.82-.15-2.79,1.66-2.79,2.59C405.55,85.67,407,86.89,408.29,88.87Z"/><path class="cls-8" d="M776.76,102c-1.3,1.47-2.34,3.57-4,4.24-2.55,1-5.5,1.11-8.28,1.61-3.48.63-4.26,2.81-2,5.54,2.89,3.49,9.1,3.4,12.41-.24.89-1,1.36-2.44,2.39-3.14s2.67-1.07,3.53-.61,1.22,2.21,1.07,3.3a8.3,8.3,0,0,1-1.79,3.5c-4.77,6.48-17.08,8.56-23.36,3.46a12.31,12.31,0,0,1-3.86-7.55c-.34-3-.91-4.63-3.86-6-12-5.5-13.26-20.44-2.8-28.41,1.11-.85,1.36-2.88,1.93-4.39.45-1.18.42-2.74,1.2-3.56,4.14-4.32,9.53-5.44,15.13-4.6,5.29.8,9.76,3.33,11.77,8.82,1.6,4.38,1,5.32-3.65,5.56-4.31.22-8.65.32-12.93.86-6.13.78-9.93,4.86-10.15,10.36A10.74,10.74,0,0,0,758.83,102c3.82.61,7.88-.06,11.82-.38a24.37,24.37,0,0,0,4.63-1.28Zm-7.39-27.51c-2.47-5.14-6.37-4.31-10-4a2.58,2.58,0,0,0-1.62,2c0,.72,1.07,1.94,1.72,2C762.75,74.59,766.06,74.48,769.37,74.48Z"/><path class="cls-8" d="M350.13,590.79a30.53,30.53,0,0,1,4-.31c1.65.07,3.29.48,4.94.62,9.61.79,11.37-.4,14.47-9.49,6.21,3.15,12.51,6.25,18.67,9.58a5.09,5.09,0,0,1,1.94,3.3c1.88,10,7.38,17.67,15.48,23.62a14.55,14.55,0,0,1,1.75,2.16c-3.52,2-6.64,4.11-10.06,5.49a5.59,5.59,0,0,1-4.92-1.1,26,26,0,0,1-5.85-7.87c-1.65-3.87-3.6-6.86-7.51-8.81a7.49,7.49,0,0,1-3.24-5c-.61-4.15-2.59-6.27-6.7-6.68-5.89-.57-11.79-1.17-17.67-1.9a46.67,46.67,0,0,1-5.63-1.38C349.93,592.26,350,591.52,350.13,590.79Z"/><path class="cls-8" d="M478.67,671.63c-3.95,3.72-8.15,6.79-11.17,10.77s-4.89,8.89-7.44,13.73c-9-4-18.22-7.86-28.61-4.22C434.45,682.31,466.19,668.84,478.67,671.63Z"/><path class="cls-8" d="M519.69,745.37c0-2.32.16-4.65,0-7-.53-6.61,4.2-10.19,10.29-7.32a39.61,39.61,0,0,1,9.47,6.18c5.83,5.23,5.93,7.26.38,13a36.11,36.11,0,0,1-9.51,7c-6.35,3.24-10.92-.17-10.55-7.43.08-1.49.14-3,.21-4.47Z"/><path class="cls-8" d="M552.81,741.15c-2.24-2.52-3.94-5.27-6.38-7A126.46,126.46,0,0,0,532,725.62c-2.06-1.07-3.6-1.7-2.22-4.28,4.54-8.47,5.5-17.26,2.28-26.41-.09-.23.18-.6.29-.9C541.86,698.59,555.67,727.68,552.81,741.15Z"/><path class="cls-8" d="M429.14,693.21c-3.48,11.45-2.14,21.22,3.58,31.19a41,41,0,0,0-24.53,17.28C405.86,728.25,416.87,702.45,429.14,693.21Z"/><path class="cls-8" d="M527.83,708.64c-1.13,3.6-1.93,7.35-3.45,10.79-2.33,5.27-8.11,5.74-12,1.41a96.83,96.83,0,0,0-8.45-8.38c-4.58-3.93-4.15-9.33,1.42-11.71a37.75,37.75,0,0,1,9.95-2.85C524.14,696.76,527.16,699.59,527.83,708.64Z"/><path class="cls-8" d="M486.08,705.25c-3.45,0-7.41-.14-11.37,0-6.3.26-10.16-4.53-7.17-10.1,2.51-4.66,6.38-8.65,10-12.66a4.29,4.29,0,0,1,7,.19c3.31,4.06,6.81,8.12,9.2,12.71C496.42,700.71,492.6,705.55,486.08,705.25Z"/><path class="cls-8" d="M530.72,692.22c-10.59-3.4-19.32-1.05-27.87,3.11-.8.39-3.22-.46-3.38-1.11-2.33-9.13-7.79-16-15.14-21.51-.16-.11,0-.6,0-.92C497.12,669.72,522.21,680.72,530.72,692.22Z"/><path class="cls-8" d="M441.58,738.44c0,3.17-.06,8.11,0,13.06.06,3.67-4.41,7.69-8,6.69A25.62,25.62,0,0,1,418,745.89c-.7-1.21-.52-4.14.39-4.89a102.59,102.59,0,0,1,14.7-10.6C436.5,728.5,441.81,732.85,441.58,738.44Z"/><path class="cls-8" d="M433.27,708.79c.66-9.28,3.81-12.2,12.83-10.87a37.51,37.51,0,0,1,9.89,3c4.85,2.21,5.36,7.59,1.49,11.1-3.05,2.78-6,5.67-8.79,8.73-4.13,4.58-9.79,4-12.27-1.69C435,715.83,434.29,712.24,433.27,708.79Z"/><path class="cls-8" d="M444.49,791.13c-9.32-.64-11.27-2.34-10.48-11.38a35.13,35.13,0,0,1,3.6-11.71c2.07-4.32,7.43-4.41,10.64-.79a85.28,85.28,0,0,0,8.27,8.51c5,4.26,4.5,10.21-1.61,12.58C451.58,789.64,448,790.22,444.49,791.13Z"/><path class="cls-8" d="M516.7,791.09c-3.34-.81-6.82-1.28-10-2.51-6.53-2.51-7.23-8.47-2-13a63.66,63.66,0,0,0,7.58-7.82c3.76-4.52,8.94-4.33,11.5,1a37.66,37.66,0,0,1,3.14,9.91C528.53,787.76,526.11,790.43,516.7,791.09Z"/><path class="cls-8" d="M481.09,807.59c-1.33-.68-3-1-3.88-2.05-3.33-3.81-6.49-7.77-9.55-11.79-2.74-3.59-1.09-6.76,1.88-9,1.47-1.07,3.94-.95,6-1,3.29-.16,6.6-.15,9.89,0,2.06.08,4.65-.14,6,1,2.68,2.2,4.85,5.21,2.1,9-2.89,4-5.71,8-8.76,11.87C484,806.52,482.5,806.85,481.09,807.59Z"/><path class="cls-8" d="M382.42,86.69c.48,6.44-.93,12.53-5.4,17.09-2.15,2.19-6.32,4.23-8.95,3.63-2.9-.67-5.28-4.29-7.42-7-.54-.68.68-2.76,1.09-4.2a35.37,35.37,0,0,1,3.72,2.07c1.22.88,2.19,2.63,3.42,2.78.84.11,2.39-1.71,2.85-2.95,2.92-8,2.52-16-.19-23.91-.36-1.07-1.83-2.51-2.71-2.45-1.14.07-2.12,1.58-3.3,2.26-1.34.77-2.81,1.31-4.22,2-.12-1.44-.76-3.1-.26-4.29,3.13-7.5,11.61-8.91,16-2.13,3.2,4.93,4.6,11,6.81,16.62Z"/><path class="cls-8" d="M799,102.24a14.73,14.73,0,0,1-14.18-14.45A14.53,14.53,0,0,1,799.3,73.64,14.24,14.24,0,0,1,813.23,87.7C813.25,95.25,806.39,102.27,799,102.24Zm8.32-15.83a8.71,8.71,0,0,0-8.44-8.2c-4.49,0-7.7,3.3-7.7,8a7.82,7.82,0,0,0,7.91,7.9C803.7,94,807.4,90.54,807.35,86.41Z"/><path class="cls-8" d="M365.58,608.47c1.68,2.55,4.6,5.06,4.25,7s-4.39,2.94-6,5c-2.49,3.14-4.32,3.14-6.49,0a3.1,3.1,0,0,0-.7-.7c-6.51-5.09-6.51-5.09-.71-10.94-2.05-.52-4.11-.56-5.54-1.53-1.22-.85-1.72-2.75-2.55-4.19,1.42-.42,3.08-1.53,4.21-1.14,2.87,1,5,1.14,6.85-1.74.38-.58,3.41-.46,3.81.2,1.43,2.33,2.86,2.49,5.38,1.83,1.51-.4,3.46.84,5.21,1.34a30.07,30.07,0,0,1-4,4.17C368.34,608.41,366.83,608.25,365.58,608.47Z"/><path class="cls-8" d="M468.36,566.7c-.4-4.64-7.68-6.29-4.92-12.68,5.11,1.91,7.15-1.86,9.19-5.18,1.77-2.88,3.57-3.12,6.59-1.87s6.54,2.6,9.52,2.08c6.41-1.12,7.38,2.65,8.49,7.54l-15.45-.82c.31,1.2.69,2.64,1.32,5.09l-8.77-2.37-4.25,8.62Z"/><path class="cls-8" d="M494,540.54c-4.72-3.48-9.52-6.86-14.14-10.47-2.64-2.06-2.51-2.23-5.54.08l-3.49-2.88c-2.71,1-5.41,3.06-6.94,2.4-2.75-1.19-4.79-4-6.55-5.61,4.12-1.54,7.33-2.47,10.29-3.91,5.11-2.49,8.67-1.82,13,2.47,2.2,2.17,5.17,3.61,7.19,5.91,2.87,3.24,5.19,7,7.74,10.49Z"/><path class="cls-8" d="M354.9,569.09c-.22.82-.44,1.65-.67,2.47a78.35,78.35,0,0,0,10.08,1c1,0,1.87-2.1,2.91-3.12,1.51-1.49,2.94-3.58,4.75-4,1-.27,4,2.24,3.91,3.4-.09,1.92-1.54,5-3.06,5.42-8.36,2.58-17,3.26-25.28-.17-2.61-1.08-4.78-3.66-2.36-6.81,2-2.66,4.63-3,7.2-.4.81.82,1.7,1.57,2.57,2.38Z"/><path class="cls-8" d="M352.39,578.87h15.86c-.26,3.59,3,7.67-2.81,9.49a14.48,14.48,0,0,1-14.91-3.9h14.54c0-.45.07-.9.1-1.35l-13-2.4Z"/><path class="cls-8" d="M458,549.12c-2.71-.34-5.45-1.24-3.34-4.92,1.85-3.25,3.75-2,6.2-.91,1.32.6,3.15.16,4.74.05,1.77-.13,3.52-.41,5.49-.65-1.12,7.18-2.61,8-7.77,6C461.78,548.09,459.74,548.93,458,549.12Z"/><path class="cls-8" d="M426,528.31c-4,4.5-14.89,2-19.91-3.75Z"/><path class="cls-8" d="M361,340.76,353.61,335c4.31-5.36,8.3-10.42,12.39-15.39q39.67-48.19,79.3-96.41c1.1-1.35,1-3.68,1.48-5.55-2,0-4.21-.66-5.84.07-43.34,19.67-86.6,39.52-129.94,59.17-1.69.77-4.8.82-6-.23-3.3-2.83-2.51-5.18,2-7.26q37.86-17.38,75.76-34.67c17.56-8,35.14-16,52.64-24.17,1.65-.78,2.76-2.72,4.12-4.11-1.9-.68-3.79-1.94-5.7-1.94q-70.49-.17-141-.08c-5.72,0-6.94-1-6-5.61.25-1.21,1.75-2.49,3-3.08,1.08-.53,2.61-.15,3.94-.15q70.25.06,140.49.05c1.38,0,2.76-1.12,4.14-1.71-1.19-.94-2.24-2.36-3.58-2.75Q380.6,175.8,326.29,160.63c-4-1.11-5.73-2.89-3.43-6.58.75-1.21,3.22-2.44,4.46-2.09,37.35,10.34,74.65,20.91,112,31.31a6,6,0,0,0,4.74-.87c2.64-2.17,4.85-4.88,7.54-7.69-4.75-4.53-9.25-8.9-13.84-13.18-5.84-5.46-5.87-5.43.83-10.68,5.94,5.42,12.06,10.74,17.84,16.42,2.53,2.49,4.78,3,8,1.64,2.42-1,5.18-1.21,7.69-2.06,2.66-.89,5.21-2.12,8.53-3.5,3.88,5.76,12.3,3.19,18.67,6.21.84.4,2.93-1.21,4.09-2.27,4.81-4.36,9.47-8.89,14.2-13.33,5.48-5.13,5.89-5.07,9.4.19-5.25,5.88-10.15,11.72-15.47,17.16-2.47,2.52-2.4,3.76,0,6.37,3.92,4.21,7.39,5.47,13.42,3.7,35.28-10.37,70.73-20.14,106.14-30,2.61-.73,5.56-2,7.18,1.88,1.26,3,1,4.91-2.62,5.91-22.59,6.31-45.15,12.76-67.73,19.13-14.55,4.1-29.13,8.11-43.66,12.3-1,.28-1.62,1.72-2.43,2.62a10.05,10.05,0,0,0,2.87,1.51,29.19,29.19,0,0,0,4.48-.05q69.75,0,139.5,0c3.31,0,6,.1,5.72,4.63-.2,2.65-1.09,4-3.9,3.94-4.34-.1-8.67,0-13,0H531a20,20,0,0,0-5,.14,25.34,25.34,0,0,0-4.79,2.36c1.17,1.2,2.12,2.89,3.55,3.54Q582,235.36,639.23,261.37c4.7,2.14,9.42,4.22,14.12,6.34,2.92,1.32,6.07,2.27,3.87,6.78-2.07,4.26-4.83,2.47-7.48,1.26q-28-12.72-55.86-25.56l-71.24-32.63a9.68,9.68,0,0,0-3.22-1.28,27.63,27.63,0,0,0-4.9.68c.31,1.57.1,3.55,1,4.65q21,26,42.31,51.83,23.92,29.13,47.91,58.2a15.15,15.15,0,0,1,1,1.58c-4.34,6.44-5.58,6.35-10.38.5q-31.21-38-62.59-75.88c-8.26-10-16.36-20.17-24.67-30.14-1.12-1.34-3.06-2-4.62-3-1.1,1.84-3,3.6-3.18,5.54-.75,7.09-.54,7.11-7.84,7.11-9.34,0-18.67-.14-28,.07-4.31.1-6-1.33-5.82-5.78.07-2.09-1.58-4.23-2.45-6.35-1.8,1.2-4,2.06-5.33,3.66Q407,283.51,362.28,338.21A14.32,14.32,0,0,0,361,340.76ZM483.62,172.24c4.08,14.93,7.78,29,11.83,42.92.94,3.2,6.91,4.28,9.66,2.26,12.17-8.92,13.43-25,2.51-35.38C501.23,176,493.48,172.79,483.62,172.24Zm-38.25,26.5c0,6.33,2.91,12.14,8.58,17.36,5,4.56,9.45,3.3,11.3-3.31,2.9-10.39,5.74-20.79,8.41-31.24a72.52,72.52,0,0,0,1.18-8.89c-3.21.6-6.54.8-9.59,1.85C453.34,178.59,445.31,188.56,445.37,198.74Zm35-11.42c-1.21,1.27-1.72,1.56-1.83,2-2.85,10.42-5.76,20.82-8.3,31.31-.26,1.09,1.61,3.83,2.67,3.93a79.42,79.42,0,0,0,14.3,0c.93-.08,2.53-2.87,2.28-4.11-1-5.21-2.54-10.32-4-15.44C484,199.33,482.26,193.7,480.4,187.32Z"/><path class="cls-8" d="M480,347c-22.16,0-44.31-.05-66.47,0-3.47,0-4.83-1.39-4.86-4.71-.36-39.37,30.82-77.47,72.84-76.79,31.42.51,59.34,24,67.51,54.82,1.82,6.85,2.34,14.07,3.17,21.16.41,3.52-1.05,5.39-5.21,5.35-22.33-.18-44.65-.08-67-.08Z"/><path class="cls-8" d="M480,426.38H372.58c-6.7,0-6.74,0-6.69-6.63.11-14.3-1.95-12.76,12.73-12.76q104.69,0,209.38,0c7.09,0,7.19.1,7.19,7.34,0,12.05,0,12.05-12.23,12.05Z"/><path class="cls-8" d="M480,396.28h-90.5c-6.7,0-6.74,0-6.7-6.64.07-11.89-1.43-10.75,10.61-10.75h178c6.61,0,6.74.1,6.72,6.7,0,12.12,1.34,10.66-10.63,10.68Q523.79,396.35,480,396.28Z"/><path class="cls-8" d="M480.52,355.75q41.21,0,82.4,0c6.16,0,8.33,2.9,6.21,8.72-.41,1.15-2.7,2.31-4.12,2.31q-82.14,0-164.29-.16c-.83,0-1.66,0-2.49.1-5.83.42-8.85-3.7-6.12-8.91.64-1.22,3.28-1.94,5-2,12.15-.18,24.3-.11,36.45-.12Z"/><path class="cls-8" d="M480.94,245.68c8,0,16,.17,24-.08,4.06-.13,5.63,1.12,5.56,5.37-.15,9.3,0,9.31-9.12,9.31-14.81,0-29.63-.17-44.44.08-4.76.08-6.91-1.35-6.24-6.21a8.66,8.66,0,0,0,0-2.49c-.71-5,1.62-6.27,6.3-6.07C465,245.92,473,245.68,480.94,245.68Z"/></g></g></svg>