<svg xmlns="http://www.w3.org/2000/svg" viewBox="0 0 336.82 427.9"><defs><style>.cls-1{fill:#fff;}</style></defs><g id="Layer_2" data-name="Layer 2"><g id="Layer_1-2" data-name="Layer 1"><path class="cls-1" d="M43.22,0h293.6c0,.61,0,1.22,0,1.82q0,86-.05,172.07c0,7.85-.49,15.71-1.07,23.54a198.06,198.06,0,0,1-6.06,35c-9.44,36.21-27.33,67.76-52.54,95.24C254.9,351.85,228.89,371,200,386.34a354.27,354.27,0,0,1-84.62,31.6,353.25,353.25,0,0,1-49,8.15c-8.42.79-16.88,1.27-25.33,1.59a307.49,307.49,0,0,1-41-1.21V0H25.82c0,.65.05,1.31.05,2V120c0,.7,0,1.41,0,2.11a5.67,5.67,0,0,0,4.82,5.69,10.42,10.42,0,0,0,2.09.19c16.41,0,32.83,0,49.25,0a38.35,38.35,0,0,0,7.78-.82c11.42-2.4,24.3-12.14,24.33-29.07,0-9.4,0-18.81,0-28.21a28.1,28.1,0,0,0-10.82-22.59A32.38,32.38,0,0,0,82.17,40h-39v-1.8q0-14.25,0-28.5C43.17,6.45,43.21,3.23,43.22,0ZM261.15,128c9.49,0,19,0,28.48,0a51.29,51.29,0,0,0,7.54-.54c7.72-1.19,13.09-5.28,15.11-13a32.94,32.94,0,0,0,1-7.33c.17-5.93.55-11.89-.63-17.77-1.45-7.25-5.65-12.12-12.91-14a33.91,33.91,0,0,0-7.89-1c-15.35-.1-30.69-.07-46-.08-.56,0-1.12,0-1.68,0a5.06,5.06,0,0,1-5-5.34c0-1.78.09-3.56,0-5.33-.24-3.54,1.6-6.4,6.26-6.37,18.43.13,36.86.06,55.29.06,1.31,0,2.62,0,3.92,0a5.92,5.92,0,0,0,6.08-6.16c0-1.73,0-3.47,0-5.2a5.69,5.69,0,0,0-4.19-5.65,12.44,12.44,0,0,0-2.93-.25q-29,0-57.95,0a58.58,58.58,0,0,0-7.13.45c-8.13,1-13.91,5.83-15.54,13.61a57.4,57.4,0,0,0,0,23.53c1.34,6.39,5.33,10.81,11.72,12.51a42.64,42.64,0,0,0,9.8,1.36c8.09.19,16.18.06,24.28.06,7.43,0,14.87,0,22.31,0a4.81,4.81,0,0,1,5.06,4.73q.11,4.84,0,9.69a4.79,4.79,0,0,1-4.5,4.7c-.75.07-1.5.07-2.24.07H230.85a16.73,16.73,0,0,0-2.24.12c-2.47.35-4.35,1.74-4.65,4.18a33.24,33.24,0,0,0,0,8.63c.39,2.86,2.85,4.34,6.18,4.34ZM179.44,40H156a31.91,31.91,0,0,0-18.28,5.33c-8.34,5.63-13.31,13.32-13.45,23.58s-.1,20.59,0,30.88a26,26,0,0,0,7.89,18.32,32.22,32.22,0,0,0,23.9,9.92q21.67,0,43.35,0c2.29,0,4.59,0,6.88,0,3.49-.1,5.77-2.15,6-5.6a42.5,42.5,0,0,0-.12-6.86,5.29,5.29,0,0,0-4.57-4.64,15.69,15.69,0,0,0-2.38-.16q-24.06,0-48.12,0a26.57,26.57,0,0,1-4.88-.4c-5.32-1-11.06-5.13-10.84-13.07.26-9.16.09-18.33,0-27.5a11.12,11.12,0,0,1,4.68-9.26,15.09,15.09,0,0,1,9.5-3.23c5.1,0,10.19,0,15.29,0h34.8a6.31,6.31,0,0,0,5.52-2.48c1.64-2.25,1.69-10,.07-12.31-1.37-2-3.37-2.5-5.64-2.5Zm54,223.28-.85-.54a9.11,9.11,0,0,0-14.26,5.13,24.08,24.08,0,0,0,0,12.61c1.11,4.19,3.57,6.17,7.86,6.58a9.27,9.27,0,0,0,7.2-2.2l.16,1.81h4.32V250.52h-4.46v12.74ZM50.67,261.63c-.1-.57-.14-1.07-.26-1.55-1.39-5.62-5.11-9-10.89-9.82-6.45-.85-14.1,3.37-14.28,11.56-.09,4.67-.06,9.35,0,14A10.4,10.4,0,0,0,27.38,282a13.45,13.45,0,0,0,16.78,3.62c3.94-2.09,5.84-5.53,6.52-9.94-.63,0-1.09,0-1.55-.08-2-.26-3.29.09-4.06,2.45-1.11,3.42-4.67,5.14-8.23,4.65s-6.37-2.81-6.63-6.53a113.46,113.46,0,0,1,0-15,7,7,0,0,1,6.6-6.52c4.16-.37,7.12,1.41,8.51,5.12.22.6.4,1.22.61,1.87ZM73.78,238c0-5.18,0-10.18,0-15.18,0-.61,0-1.22,0-1.82-.62-6.16-4.78-9.46-10.91-8.47a28.8,28.8,0,0,0-4.73,1.62V201.78H53.68V238h4.44c0-.62,0-1.13,0-1.64,0-4.63,0-9.26,0-13.89,0-2.37.68-4.46,3.14-5.45,4.07-1.65,7.52.49,7.84,4.84,0,.61,0,1.22,0,1.82,0,4.26,0,8.51,0,12.77,0,.53.07,1.07.1,1.59ZM57,250.48v36.21h4.45v-1.6c0-4.63,0-9.26,0-13.89,0-2.87,1.17-4.77,3.26-5.54,4.06-1.5,7.4.61,7.73,4.91,0,.6.06,1.21.06,1.82,0,4.26,0,8.52,0,12.77,0,.5,0,1,.08,1.62,1.25,0,2.36,0,3.48,0,.77,0,1.07-.24,1.06-1.05,0-5.19.1-10.39-.06-15.58-.19-5.9-3.93-9.35-9.83-9-2,.12-3.86,1-5.88,1.61v-12.3Zm45.8,36.22c.08-.17.15-.25.15-.33,0-5.89.12-11.79,0-17.68-.09-3.63-2.28-6.06-5.8-7a16.94,16.94,0,0,0-8.19-.2,8.59,8.59,0,0,0-5.48,3.86l3.16,2.88c1.67-2.83,4.26-3.18,7.12-2.93,3.82.33,5.46,2.66,4.48,6.57-.58,0-1.18,0-1.78,0-2.38.07-4.78,0-7.14.25a7,7,0,0,0-6.62,7.48,7.19,7.19,0,0,0,6.92,7.4c3.06.28,6,.25,8.73-1.71l.27,1.45Zm-6-55.43c-2.94,3-6.27,3.85-10,2-2.09-1-3.21-3.83-2.81-6.48h16.28c-.14-2-.15-3.88-.44-5.69a9.91,9.91,0,0,0-9.73-8.79c-4.9-.26-8.73,2.59-10.23,7.63a20.79,20.79,0,0,0-.5,8.74c.62,4.78,3.33,8.13,7.57,9.25,4.91,1.29,10.17-.32,12.9-4Zm97.64,97.49c-2.86,3.07-6.15,3.76-9.79,2.14-2.17-1-3.36-3.81-3-6.68H198c-.15-2-.17-3.81-.46-5.59-.83-5-4.44-8.44-9-8.7-5.66-.33-9.38,2.2-10.94,7.53a19.25,19.25,0,0,0,.1,11.2,9.15,9.15,0,0,0,6.86,6.72,18,18,0,0,0,5.28.35,11.15,11.15,0,0,0,7.8-4.21Zm18.11-53.28c-.15-2-.16-3.76-.44-5.54-.85-5.22-4.62-8.67-9.53-8.83-5.42-.19-9.27,2.71-10.61,8.05a20.23,20.23,0,0,0,0,10,9.59,9.59,0,0,0,5.3,6.85c4.21,1.92,10.89,1.7,14.85-3.25l-3.08-2.7c-3,3-6.33,3.91-10.1,1.94-2.06-1.08-3.17-4-2.71-6.51Zm-45.45,0a58.58,58.58,0,0,0-.89-6.72c-1.27-5-4.94-7.7-10-7.67a9.53,9.53,0,0,0-9.65,7.77,28.91,28.91,0,0,0-.58,7.49c.18,5.13,3,8.91,7.15,10.2a12.47,12.47,0,0,0,13.44-3.84L163.52,280c-3,3-6.31,3.92-10.08,1.95-2-1-3.19-4-2.79-6.5ZM61.32,372c-.16-1.73-.23-3.09-.41-4.43a9.94,9.94,0,0,0-9.58-9,9.8,9.8,0,0,0-10.44,7.52A21.51,21.51,0,0,0,41,377.48a9.77,9.77,0,0,0,10,7.14A9.74,9.74,0,0,0,60.6,377C61,375.26,61.12,373.43,61.32,372ZM155,335.47V310.26h-4.53v1.59c0,4.72,0,9.44,0,14.16-.07,4.21-3.11,6.47-7.2,5.48-2.33-.56-3.72-2.43-3.74-5.26-.05-4.81,0-9.63,0-14.44v-1.52H135c0,6.07-.23,12.05.08,18,.22,4.42,3.87,7.35,8.31,7.54a11,11,0,0,0,7-2.07l.23,1.72Zm-95.85,0c0-5.73.19-11.31-.06-16.86-.25-5.78-4.06-9-9.85-8.63-1.92.14-3.78,1-5.7,1.53l-.13-1.2H39.1v25.13h4.43c0-5,0-9.84,0-14.7a12.74,12.74,0,0,1,.18-2.23c.58-3.08,2.53-4.6,5.63-4.46s5,1.75,5.12,5c.18,4.86.11,9.73.14,14.59,0,.6,0,1.19,0,1.86ZM110,352.39h10.09v31.85h4.79V352.32h10V348H113.44c-3.91,0-3.91,0-3.58,3.95A3.29,3.29,0,0,0,110,352.39ZM38.25,238V206H48.48c0-1-.07-2,0-2.89.12-1.2-.36-1.49-1.5-1.48-7.44,0-14.87,0-22.3,0-.45,0-.9,0-1.31.06v4.37H33.47V238Zm25.61,93.85a12.17,12.17,0,0,0,7.65,3.77c3.68.44,7.31.37,10.48-1.92,2.67-1.93,3.3-4.69,2.71-7.73-.53-2.74-2.51-4.15-5.1-4.8a15.52,15.52,0,0,0-1.93-.31c-1.76-.2-3.53-.32-5.29-.57-2.18-.31-3.08-1.52-2.76-3.57a3,3,0,0,1,2.63-2.56A10.49,10.49,0,0,1,81,315.87L83.91,313c-3-3.1-10.19-4.14-14.48-2.1a7.21,7.21,0,0,0-4.29,7.89c.4,2.9,2.58,5,6.06,5.51,2.3.37,4.65.47,6.94.87,1.8.31,2.52,1.62,2.22,3.43a3.19,3.19,0,0,1-2.55,2.67c-4,1.07-7.77.64-10.9-2.4ZM32.25,384.26V362.69h5V359h-5c0-1.59,0-3,0-4.48.08-1.67.76-2.34,2.42-2.48.86-.08,1.73-.1,2.59-.14v-4c-1.09,0-2.11,0-3.13,0a6.15,6.15,0,0,0-6.4,5.79c-.2,1.74-.18,3.51-.27,5.44H24.57v3.7h3v21.46Zm91.72-74v-7.52h-4.62v7.55h-2.86V314l2.93.15V316c0,4.58,0,9.16.15,13.73a5.76,5.76,0,0,0,5,5.63,26.54,26.54,0,0,0,4.55.05v-3.88c-.69,0-1.29,0-1.89,0-2.32-.07-3.13-.85-3.15-3.14,0-4.49,0-9,0-13.46a7.87,7.87,0,0,1,.13-.94h4.9v-3.69Zm8.44-56.41v7.61l-2.94.14v3.62l3,.14V267c0,4.35,0,8.7,0,13.05,0,3.22,1.79,5.76,4.65,6.4a34,34,0,0,0,5,.39v-4.16c-.62,0-1.13,0-1.65,0-2.68,0-3.46-.78-3.49-3.53,0-1.5,0-3,0-4.49V265.3h5.18v-3.77H137v-7.61c-.57,0-1-.06-1.39-.06C134.62,253.85,133.64,253.86,132.41,253.86Zm-31.86,77.65c-.75,0-1.36,0-2,0-2.31-.08-3.12-.89-3.15-3.17,0-1.59,0-3.18,0-4.77V314h5.09v-3.76H95.4v-7.47H90.86v7.43l-3,.15V314l3,.15v1.62c0,4.5,0,9,.05,13.48a6.17,6.17,0,0,0,5.49,6.26,37.78,37.78,0,0,0,4.13,0Zm62.76-28.8v7.6h-2.95v3.63l3,.17v14c0,5.81,3.85,8.32,9.7,7.18v-3.82c-.85,0-1.6.05-2.34,0-1.84-.15-2.49-.75-2.72-2.56a19.24,19.24,0,0,1-.08-2.52c0-4.06,0-8.11,0-12.41h5.14v-3.77H167.9v-7.51Zm-92,81.54v-1.72c0-4.82,0-9.64,0-14.45a5,5,0,0,1,3.19-4.87,5,5,0,0,1,5.8,1.08c.15.15.34.26.21.16l3.46-3c-2.69-3.43-7.18-3.7-12.63-.77L71.15,359H66.73v25.3ZM104.14,348c-1.15,0-2.17.07-3.19,0s-1.52.28-1.51,1.47c0,11.13,0,22.27,0,33.4,0,.49.07,1,.11,1.45h4.56Zm68.68-86.52v25.26h4.53V285c0-4.76,0-9.54.05-14.3.07-3.44,2.43-5.62,5.84-5.29a13.1,13.1,0,0,1,3.51,1.37l3.33-3.08c-4.07-3.63-8.3-3.21-12.65-.49l-.19-1.74Zm-145.32,74h4.59V299.35H27.5Zm86.79-48.74c0-4.38,0-8.58,0-12.78a28.37,28.37,0,0,1,.25-4.33,4.77,4.77,0,0,1,5.22-4.24,18,18,0,0,1,4.19,1.37l3.23-2.83a7.47,7.47,0,0,0-4.17-2.56,10.13,10.13,0,0,0-8.65,2l-.14-1.82h-4.39v25.22Zm-7.65,23.54v25.18h4.41V310.26ZM108.87,299a2.71,2.71,0,1,0,2.71,2.79A2.7,2.7,0,0,0,108.87,299Z"/><path class="cls-1" d="M43.25,57.26H82.36A15,15,0,0,1,94.3,62.42a10.06,10.06,0,0,1,2.56,6.79c0,9.82,0,19.64,0,29.46,0,5-3.33,9.25-8.68,11a20.13,20.13,0,0,1-6.17,1c-12.48.09-25,0-37.45,0-.4,0-.81,0-1.3-.09Z"/><path class="cls-1" d="M233.61,274.09a51.69,51.69,0,0,1-1,5.52c-.64,2.24-2.35,3.3-4.78,3.33s-4.28-1.07-5-3.34a19,19,0,0,1,0-11c.68-2.29,2.38-3.28,5-3.27s4.11,1,4.77,3.29A49.35,49.35,0,0,1,233.61,274.09Z"/><path class="cls-1" d="M98.41,275.53c0,1.18.07,2.12,0,3-.26,2.71-1.39,4-4.07,4.3a17.31,17.31,0,0,1-4.71-.21c-1.67-.28-2.36-1.33-2.44-3.11s.58-3,2.12-3.54a9.15,9.15,0,0,1,2.6-.45C94,275.49,96.17,275.53,98.41,275.53Z"/><path class="cls-1" d="M95.62,223.08H83.93a6,6,0,0,1,2-5.34,5.6,5.6,0,0,1,6.29-.79C94.78,218.1,95.46,220.37,95.62,223.08Z"/><path class="cls-1" d="M193.21,320.54H181.65c-.28-3.65,2-6.47,5.31-6.64C190.74,313.71,193.14,316.24,193.21,320.54Z"/><path class="cls-1" d="M196.25,271.73a5.79,5.79,0,0,1,5.47-6.63c3.49-.2,6,2.46,6.06,6.63Z"/><path class="cls-1" d="M150.57,271.71c-.14-3.82,2.36-6.63,5.83-6.61s5.88,2.74,5.78,6.61Z"/><path class="cls-1" d="M44.73,371.82c.19-1.71.23-3.17.52-4.58a5.4,5.4,0,0,1,5.33-4.48,5.33,5.33,0,0,1,5.59,4.31,19.46,19.46,0,0,1-.05,9.29,5.2,5.2,0,0,1-5.21,4.06,5.21,5.21,0,0,1-5.47-3.89A40,40,0,0,1,44.73,371.82Z"/></g></g></svg>