<svg xmlns="http://www.w3.org/2000/svg" viewBox="0 0 227.84 262.5"><defs><style>.cls-1{fill:#fff;}</style></defs><g id="Layer_2" data-name="Layer 2"><g id="Layer_1-2" data-name="Layer 1"><path class="cls-1" d="M.07,0H227.76V5.35c0,44.56.24,89.11-.11,133.67-.17,22.32-4.12,43.86-16.71,63.09-10.62,16.23-26.24,25.95-43.11,34.25-17.11,8.41-34.16,17-51.28,25.38-1.27.62-3.28,1.07-4.4.51C89.34,250.79,66.33,239.7,44,227.45,21.1,214.94,8.53,194.36,3.39,169.35a164.3,164.3,0,0,1-3.2-31.61C-.14,93,.06,48.3.07,3.58ZM4.7,138.67h5c25,0,49.93.14,74.89-.1,4.86,0,6.1,1.4,6.08,6.12q-.28,49.38,0,98.75a5.4,5.4,0,0,0,2.28,4c6.1,3.36,12.34,6.48,18.66,9.42a6.07,6.07,0,0,0,4.51-.08c6-2.74,11.9-5.87,17.94-8.62,2.53-1.16,3.12-2.72,3.11-5.4-.11-32.58-.08-65.17-.08-97.75v-6.48h85.5V91.45H137V4.35H90.29V91.69H4.7ZM176.21,42.11l5.34-4-4.07-3.06c.91-4.37,1.85-8.84,2.85-13.64l2.15,1.88c3.87-5.14-4.56-5.35-2.88-9.9l-4.17,2.23c-.67-1.68-1.3-3.23-2.28-5.67l-3.54,5.45-2.77-1.39c-.86,1.5-1.3,3.43-2.25,3.72-5.6,1.72-2.29,4.12-1,7.68.55-2,.77-2.8,1.24-4.53,1.48,5.47,2.67,9.88,3.6,13.33-1,2.09-2.4,3.59-2.34,5,.17,3.94.23,8.13,1.65,11.7,1.93,4.85,1.37,9-1.88,12.46s-7.16,6.27-10.68,9.48c-2,1.82-3.77,3.87-5.64,5.82L151,80.21l8.52-6.71c.29,1.92.54,3.57.8,5.22l1.44.21,3.62-10c4.65,1.54,3.08-3,4.16-5.09,6.2,3.39,2.34-7.65,6.95-5.36.54-3.24,1-6.27,1.36-8.14l12.81-1.88c.15-1.25.3-2.38.57-4.59,1.55,2.49,2.29,4.22,3.49,5.51,3.67,3.92,7,8.57,11.44,11.27,6.09,3.7,6.83,4.51,2.85,10.87A79.87,79.87,0,0,0,205.28,79l2.06,1.16L211,74.84l3,3.41,1-.43-1.66-8c5.41-1.67,1.16-4.34.46-6.09a20.55,20.55,0,0,0,1.33-4.14c0-.24-1.88-.46-2.62-1-2.22-1.74-4.71-3.36-6.33-5.58-2.28-3.13-3.88-6.77-5.75-10.17,2.43.53,5.69,1.33,9,1.93,2.83.52,6.09.08,6.19-3.14.09-2.72-2.08-7.9-2.87-7.83-3.67.33-4.2-2.87-6.26-4.14a30.72,30.72,0,0,0-3.09-1.41c-.14,1.26-.24,2.12-.36,3.17-3.59-1.36-3.87-8.49-9.5-4.42-2.88-3.05-4.64-6.59-1.31-10,3.07-3.15,6.7-1.62,10,.46a27.47,27.47,0,0,0,5.29,2.76c1,.37,2.39,0,4.4-.15l-10-4.93c2.92-.23,5.36.71,7.87,1.32,4.32,1,5,.34,4.5-2.43a50.57,50.57,0,0,1-6.56-.05c-3.58-.49-7.13-1.91-10.66-1.84-6.89.12-10.81,6.68-7.64,12.7A13.28,13.28,0,0,0,195.18,30c5,2.48,10.46,4.22,15.54,6.65,1.28.61,1.85,2.67,2.75,4.06A23.66,23.66,0,0,1,209,42.87c-1,.27-2.29-.24-3.39-.57C193,38.5,182,41.73,171.27,50.6c.28-4.13-5.81-5.37-2.45-10.48,1,2.12,1.79,3.78,3,6.24l2.59-5.55ZM75,20.16l0-.74-9.11-4.59c3.57.05,6.67,1.27,9.88,1.78,3.5.55,3.77-1.31,3-2.95-2.72.2-4.55.65-6.27.38-2.92-.46-5.74-1.75-8.67-2-5.73-.54-9.47,1.75-10.7,6-1.43,4.88.49,9.26,5.76,11.8,4.77,2.31,9.9,3.89,14.64,6.25,1.75.87,2.84,3.06,4.23,4.65-2.16.61-4.59,2.21-6.43,1.69C58.3,38.7,46.72,41.22,36,50.22c-.76-3.64-6-5.2-3-10.58l3.06,6.62c1.06-2.31,1.75-3.8,2.48-5.38l2.92,2,.92-4,3.12.49.56-1-4.35-3.23c.86-4.57,1.68-8.9,2.61-13.85l2.12,2.77c3.46-5.25-3.56-6.27-3.06-10.46l-3.78,2.34c-.72-1.86-1.32-3.41-2.2-5.71l-3.57,5-2.16-.83-5.84,5.32c.17.84.46,2.39.89,4.62l2.47-3c1.34,5,2.51,9.46,3.44,12.94-1,2.09-2.42,3.62-2.3,5C30.71,43.65,32,48,32.24,52.41c.2,3.1.47,7.09-1.18,9.23C27.71,66,23,69.31,19,73.16c-1.64,1.57-3,3.41-4.52,5.13L16,79.66l7.51-6c.43,2,.78,3.65,1.12,5.24l1.33.06c1.13-3.16,2.27-6.31,3.48-9.65,4.9,1.4,3.14-3.56,4-5.77,5.54,2.25,3.75-2.55,4.8-4.32l2.08-.24,1.79-8.72L55.2,48.55,55,45.1c1.78,1.18,2.54,2.83,3.72,4.1,3.65,3.94,6.9,8.67,11.35,11.38,6.31,3.85,7.09,4.75,3,11.24-1.4,2.22-2.42,4.69-3.61,7l1.22,1c1-.57,2.31-.91,2.92-1.76s.61-2.25,1-4L78,78.24l1-.36c-.49-2.73-1-5.47-1.47-8.22,5-1.88,1-4.29.21-6.23.71-1,1.85-2,1.76-2.76s-1.37-1.47-2.2-2.1c-2.22-1.68-5-2.91-6.61-5.06-2.39-3.27-4-7.15-5.88-10.81a94.33,94.33,0,0,0,9.29,2.14c4.66.64,7.22-2.61,5.88-7.07-.5-1.66-9.68-9.21-11.28-8.91-.83.15-1.45,1.42-2.2,2.22-2.69-1.71-3.54-7.38-9-4.26-2.28-2.8-4.43-6.2-1.17-9.81,2.84-3.14,6.36-1.77,9.55.06a32.43,32.43,0,0,0,4.78,2.64A17.37,17.37,0,0,0,75,20.16ZM193.74,180.33l.78-.79c3.2.74,6.4,2,9.61,2,2.12,0,5.17-1.24,6.14-2.9s.78-5.24-.44-6.73c-2.11-2.57-5.36-4.25-8.28-6.07-.33-.21-1.62,1.11-1.92,1.32-2-1.14-3.79-3-5.54-3-4.34.08-5.22-2.77-5.34-5.75-.13-3.59,2.28-5.6,5.86-5,2.18.38,4.15,1.84,6.27,2.71,2.35,1,4.75,1.78,7.13,2.66l.34-1-9.67-5.68.59-1.09c2.66,1.22,5.28,2.56,8,3.65,4.38,1.76,5.86.95,6.06-2.11-1.6.11-3.38.57-5,.24-2.41-.5-4.7-1.61-7.07-2.35-6.55-2.06-12.5.4-14.44,5.9-1.72,4.89,1,9.36,7.37,12.24.76.34,1.59.49,2.34.84a93.44,93.44,0,0,1,9.35,4.64c1.14.71,1.54,2.59,2.28,3.94-1.39.69-2.76,1.86-4.18,1.93-1.74.09-3.5-1-5.3-1.15-5.86-.6-11.85-1.93-17.58-1.25-4.69.55-9.08,3.57-15,6.11-.58-3.8-1-6.67-1.44-9.54l1.26-.19c.54,1.41,1.08,2.82,1.8,4.72l2.64-4.14,2,3,5.39-3c-1.13-1.47-2.58-3.36-3.71-4.81.9-3.1,1.69-6.27,2.77-9.33.32-.9,1.46-1.52,2.22-2.27l2.21.44-4.31-9.48-3.72,2.69-1.89-7.17c-1.43,2.75-2.35,4.51-3.3,6.35l-2-1.29-6.83,5.87c1.38,1.24,3.8,2.48,4.64,4.4,1.35,3.07,1.64,6.6,2.28,9.44-.93,1.91-2.4,3.7-2.59,5.63a55.51,55.51,0,0,0,0,11.88c.68,6-1.37,9.72-7.25,11.77-7.62,2.65-7.62,2.65-8.83,7.48l7.42-3.7-.29,4.69c2-1.52,2.82-3.63,4.32-4.93,4.93-4.27,10.6-7.87,11.06-15.36.05-.88.84-1.71,1.29-2.56.14.4.29.8.43,1.21l14.94-3.38c3.27,2.4,6.43,4.48,9.26,7,1.06.92,2.21,3.11,1.8,4.06a13.86,13.86,0,0,1-4.15,4.71c-2.32,1.88-3.31,3.76-1.31,7l3.82-5.22,1.58,2.76,5.8-13Zm-158.53.28,0,1.55a11.3,11.3,0,0,0,1.23,1.5c7.84,6.86,7.39,9.53-2.13,13.85-1.7.77-3.07,2.25-4.59,3.41l1.24,1.8,6.79-4.11c.19,2.25.34,4,.6,7.19,2.66-4.8,3.88-9.09,6.7-11.56,3.88-3.4,2.53-6.42,1.47-10-.19-.63.47-1.51.36-1.2l13.33-.79a70.11,70.11,0,0,0,3.15,8.08c1.14,2.25,2.6,4.7,4.6,6.08,6.13,4.24,7.32,6.49,5.63,13.76-.67,2.9-1.82,5.72-2.28,8.65a48.58,48.58,0,0,0-.08,7.54l2.21.23,1.5-8.43,2.6.64c.3-7,.6-13.7.89-20.37-10.32-2.07-4.63-13.37-11.17-17.53,2.59.07,4.68.69,6.79.83,5,.31,7.51-2.53,6.76-7.34-.3-1.92-9.22-9-11-8.5-.76.23-1.19,1.51-1.75,2.29-2.64-.65-4-6.18-7.81-1.93-.38-.28-.79-.56-1.17-.87-4.75-3.84-6.24-7.58-3.63-10.34,3.81-4,7.07-1,10.46,1.21A69.84,69.84,0,0,0,73.47,160l.42-.93-10.74-7.56c3.61.87,6.62,2.79,9.82,4.29,4.19,1.95,6.28.82,6.45-1.88-2-.19-4.13,0-5.9-.63-2.93-1.1-5.51-3.16-8.46-4.13-4.12-1.36-8.05-.46-10.6,3.32s-2.66,8.28.24,11.6c2.13,2.45,5.66,3.89,8.82,5.17,4.12,1.66,8.57,2.51,12.69,4.17a4.46,4.46,0,0,1,2,3.85,4.41,4.41,0,0,1-3.45,2.62c-3.77-.35-7.45-1.62-11.22-2.08-4.4-.54-9.17-1.69-13.22-.57C45.42,178.59,41.42,183.09,35.21,180.61Zm-2-7.38,3.37,4.92,1.9-4.11,2.69,4,5-4.08c-1.11-1.12-2.75-2.78-4.16-4.19.58-2.62,1.17-5.63,1.92-8.6.31-1.21.64-2.85,1.52-3.38,3-1.81,3.06-2,.62-4.11-1.05-.89-1.49-2.51-2.19-3.81-.2-.36-.34-.75-.52-1.15l-3.51,2.16L37.14,146c-1.18,2.15-1.92,3.52-2.73,5l-2.68-1.68-5.22,6.53,3.08,2.9.93-1c1.16,4.2,2.31,8.41,3.48,12.66-4.35.88-2.91,4-1.5,8Zm153.08,15.29-4.78-2.28c-4.05,5.12-8.89,9.43-5.83,16.84.56,1.36-1.24,4.54-2.81,5.78-4.13,3.24-8.84,5.73-13.11,8.8-2.15,1.55-3.85,3.72-6.27,6.11,6.84,2.19,7-3.92,10.22-5.67.37,1.6.67,2.86,1.28,5.52l4.58-8c.19,0,1.36.49,1.63.18,2.71-3.14,5.61-6,9.55-7.56.27-.11.33-1.57,0-2.14-2.28-4.14-.74-7.62,1.63-11.07C183.8,193,184.93,190.87,186.34,188.52ZM151.6,16.6l-2.47.52c.67,4.16,1.35,8.33,2.09,12.88L147,26.55l-1,1,4.71,7.76c-3.85,3.94,1.46,5.21,2.63,7.5-3.64,6,2.4,6.32,4.15,8-.28,2.15-.49,3.77-.69,5.39l1.43.25C160,53,167.61,53.08,164,46.39c-4.66,2.59-7.27,2.11-8.5-3-1.37-5.7-1.17-11.75-1.91-17.62C153.23,22.68,152.29,19.66,151.6,16.6ZM28.16,46.22c-4.2,2.68-7.11,2.21-8.33-2.48-1.4-5.34-1.28-11.07-2-16.61C17.4,23.57,16.67,20,16.07,16.5l-2.7.51c.65,4.2,1.29,8.41,2,12.67l-4.24-3.07-.92,1.05,4.61,7.2c-3,4.57,2.07,5.85,2.62,7.57-2.55,6.13,2.42,6.92,4.07,8.15-.14,2.48-.23,4.09-.32,5.7l1.39.22C23.91,52.79,31.89,53.26,28.16,46.22Zm30.43,5c-6.31,4.37-6.67,6.07-3.73,11.32,3.52,6.26,2,9.73-4.91,11.46-1.6.39-3.37.41-4.77,1.16s-2.61,2.26-3.89,3.43l1,1.53,9.44-4.22c-.33,1.7-.59,3.06-.84,4.42L52,81,62.18,66.74c-1-2.28-2.43-4.44-3-6.79S58.79,54.83,58.59,51.26Zm135.19.68c-5.79,3.52-6.14,4.67-3.41,10.1,3.81,7.57,2.58,9.94-5.65,12.19-2.83.78-5.37,2.59-8,3.93l1.06,2.13,9.95-4.4c-.2,1.63-.35,3-.51,4.27l1.12.45c1.26-2.34,2.32-6.51,3.82-6.67,5.06-.56,3.24-3.39,2.9-6l2.42-.69C196.16,61.87,195,57,193.78,51.94ZM150.3,159.66l-3-.73-1.12.64c6,5.85.51,14.4,5.24,20.43l-.93,4.7,10-1.7c.19-1.15.42-2.54.65-4-7.58-.31-8.29-.85-8.5-8.47-.11-4.08.75-8.19.71-12.28,0-2.52-.92-5-1.42-7.55l-2.38.37C149.82,153.91,150.05,156.72,150.3,159.66Zm-137.83.07c1.61,3.31,3.31,5.56,3.79,8,1.11,5.8,2.4,11.27,8,13.93v3.11l7.25-1.88-1.8-6c-4.05,3.15-6.15.42-7.93-2.51-2.59-4.25-3.66-8.77-2.2-13.77,1-3.36,1.34-6.76-3.35-9.24.25,3.51.46,6.35.68,9.36Zm51.76,43.63c-1-3.92-2.11-8.51-3.53-13-.34-1.07-1.86-1.76-2.83-2.62-.59,1.24-1.77,2.56-1.63,3.72a38.15,38.15,0,0,0,2,7.15c1.94,6,1.28,7.15-4.39,10-2.29,1.16-4.07,3.32-6.09,5L49,215.1l4.86-3.67c.38,1.85.69,3.4,1.06,5.23Z"/><path class="cls-1" d="M87.58,96.85C91.16,95.44,94,94,97,93.25c1.47-.36,3.26.79,4.93.89,2.67.16,5.71.81,8-.19,2.64-1.17,4.17-1.18,6.72.24,1.83,1,4.73.27,7.13.07,1.65-.14,3.4-1.27,4.88-.94,3.21.72,6.28,2.09,10.12,3.45v35.67l-6.71.5v14.29h-8V133H102.79v14.22H94.7V132.83l-7.12-.5Zm36,19.38c-6.25-6.94-14.89-6.91-21.11-.16C107.85,123.42,116.81,123.59,123.59,116.23Zm-22-16.25-2.73-4.32C98.2,97.1,97,98.55,97,100s1.3,2.83,2,4.24Zm22.63-.42,2.59,4.51c.73-1.55,1.92-3.07,2.05-4.67.08-1.18-1.23-2.45-1.92-3.69Zm-10-4.18c-4.69,1.71-2.45,5.14-2.86,7.66-.05.3,1.19.81,1.83,1.23.56-2,1.2-4,1.62-6C115,97.52,114.53,96.71,114.23,95.38Z"/><path class="cls-1" d="M113.94,215.28l-4.18-3.92c2.45-4,5.11-8.5,2.69-14.1a2.73,2.73,0,0,1,.55-2.11,1.88,1.88,0,0,1,1.57-.24c.4.76.94,1.78.72,2.47-1.72,5.43-.06,10.05,2.84,13.91Z"/><path class="cls-1" d="M101.64,231.89l-2.76,5.74,2.15,1.76c-1.33-1.42-2.67-2.84-4.3-4.59,2.6-3.86,4.75-8.54,2.65-14.11-.2-.53.41-1.45.83-2.07a1.34,1.34,0,0,1,1.26,0c.42.58,1,1.54.83,2-2.87,5.71.55,10.12,2.88,14.77Z"/><path class="cls-1" d="M105.11,32.29l-4.4,4.13-3.79-4.48c2.39-3.53,4.39-8,2.63-13.41-.22-.7.35-1.71.7-2.51.07-.16,1.17-.13,1.25.05.32.77.81,1.77.56,2.43C99.92,24,102.61,28.28,105.11,32.29Z"/><path class="cls-1" d="M167.26,131.51c-.75-1.88-1.5-3.75-2.26-5.63l-3.38,3.21c2.32-4.74,6-9.22,2.79-15-.23-.41.47-1.45.93-2a1.43,1.43,0,0,1,1.27-.05c.38.78,1,1.79.76,2.48a13.55,13.55,0,0,0,3.09,13.92l-4.72,3.88Z"/><path class="cls-1" d="M33.62,132.3l-3.19-3c1.1-6,2.17-11.82,3.28-17.89,1.06,6,2.07,11.74,3.17,18Z"/><path class="cls-1" d="M114.18,39.2,117,56.55l-1.33-2.92-5.46,3.06,3.93,3.75-4.26-4.76c4.08-4.21,3.91-10.33,2.5-16.76Z"/><path class="cls-1" d="M20.92,115.88,17,111.17c.61-3.68,1.58-9.47,2.6-15.58l3.26,17.73-1.71-3.11-4.23,4.27Z"/><path class="cls-1" d="M100.88,62.94c1.05,5.86,2.1,11.73,3.18,17.74l-3.35,2.94L97,79.91c.85-2.31,2.3-5.14,2.85-8.14.53-2.85.11-5.87.11-8.81Z"/><path class="cls-1" d="M153.45,110.21l-3.61,4.69,2.46,2-3.39-3.36c1-6,2.05-11.84,3.22-18.59,1,6.52,1.87,12.23,2.74,18Z"/><path class="cls-1" d="M75.61,96q1.48,8.47,3,16.95l1.23-.45-4.37,4,1.74-1-2-6.31A33.9,33.9,0,0,0,74,95.63Z"/><path class="cls-1" d="M47.68,116.43l-4.2-3.78c2.43-4.21,5.38-8.71,2.67-14.37-.22-.46.44-1.43.86-2a1.31,1.31,0,0,1,1.23,0c.44.63,1.13,1.67.9,2.08-3.24,5.72.51,10,2.61,14.22Z"/><path class="cls-1" d="M208.23,95.86,211,113.29l-1.42-3-4.91,3.39,3.58,3.42-4.43-4.65c4-4.19,4.3-10.28,2.58-16.86Z"/><path class="cls-1" d="M104,188.53l-3.49,3.3,2.56-2.24-3.8-4.45c-.48,1-.95,2-1.42,3l2.89-18.27C101.87,176.48,102.89,182.35,104,188.53Z"/><path class="cls-1" d="M110.12,163.38c2.42-3.9,4.6-8.21,2.47-13.41a2.58,2.58,0,0,1,.34-2.06,2,2,0,0,1,1.64-.28,4,4,0,0,1,.63,2.45,14.72,14.72,0,0,0,2.9,13.55L113.93,168Z"/><path class="cls-1" d="M65.77,128.54l-4.23,3.79-4.22-3.91c2.87-4,5.14-8.62,2.93-14.22-.21-.54.35-1.46.72-2.11a1.42,1.42,0,0,1,1.23.1c.37.64.92,1.6.69,2.12C60.38,120,63.52,124.39,65.77,128.54Z"/><path class="cls-1" d="M190,128.82q2-5.11,3.94-10.29l3.93,10.16L194,132.33Z"/><path class="cls-1" d="M123,32.71l3.78-10.51c1.3,3.41,2.68,7.06,4.06,10.7l-3-3.36-4.65,3.13q2.64,1.41,5.3,2.8l-3-5.89Z"/><path class="cls-1" d="M126.87,69.54,130.75,80,127,83.55,123,80C124.12,76.92,125.47,73.31,126.87,69.54Z"/><path class="cls-1" d="M126.84,224.92l3.93,10.25-3.9,3.71,1.31-.46c-.79-2.15-1.57-4.3-2.36-6.44L123,235.47C124.27,231.91,125.58,228.35,126.84,224.92Z"/><path class="cls-1" d="M126.88,177.33c1.31,3.66,2.61,7.28,3.73,10.42l-2.78,2.81-2.14-5.51-2.81,3.22C124.2,184.66,125.53,181,126.88,177.33Z"/><path class="cls-1" d="M180.1,103.05c1.23,3.2,2.55,6.65,3.88,10.1l-2.33-2.89-3.88,4.41,2.54,2.52-4.12-4.75Z"/><path class="cls-1" d="M176.56,27.41c.33.54.5.7.48.81-.69,3.16.19,7.94-4.07,8.1-1.65.07-3.49-4.91-5.8-8.45Z"/><path class="cls-1" d="M32.28,27.35h9.77c-1.3,3.28-2.27,6-3.56,8.63-.19.38-2.58.34-2.78-.07C34.44,33.3,33.5,30.52,32.28,27.35Z"/><path class="cls-1" d="M167.53,161c1.44,3.52,6.62-2.53,6.64,3,0,1.83-3,3.68-4.62,5.52l-3.81-7.1Z"/><path class="cls-1" d="M34.33,162.46h9.18l-5.62,7.44-5.13-6.47Z"/><path class="cls-1" d="M121.75,116.14c-5.28,5.28-12,5.18-17.53,0C110.45,111.15,114.78,111.1,121.75,116.14Z"/></g></g></svg>