<svg xmlns="http://www.w3.org/2000/svg" viewBox="0 0 406.6 498.52"><defs><style>.cls-1{fill:#fff;}</style></defs><g id="Layer_2" data-name="Layer 2"><g id="Layer_1-2" data-name="Layer 1"><path class="cls-1" d="M356.45,0q0,121.23-.07,242.45,0,56.88,0,113.74c0,19.63-9.23,31.88-28.1,37.2q-60.36,17-120.76,33.89a16.05,16.05,0,0,1-8.2.06q-61.4-17.08-122.69-34.51c-16.5-4.68-26.18-17.85-26.18-35.17q0-176.1,0-352.21c0-1.81-.15-3.63-.23-5.45ZM54.21,4.1V353.48c0,2,0,4,.07,6a31.07,31.07,0,0,0,23.1,29.67c39.94,11.3,79.85,22.66,119.86,33.7a24.67,24.67,0,0,0,12.54,0c39-10.76,78-21.89,117-32.85,17.65-5,25.86-15.67,25.86-34.13q0-173.16,0-346.3c0-1.77-.15-3.53-.23-5.44Z"/><path class="cls-1" d="M5.75,431.19C9.23,416,8.51,401.75,0,387.43c6.33,2.09,11.64,3.82,16.93,5.6,37.45,12.58,74.85,25.29,112.38,37.6,5,1.65,6.72,3.86,5.69,8.75a22.12,22.12,0,0,0,0,4.27,460.91,460.91,0,0,0,136.4.12,9.08,9.08,0,0,0,.44-1.64c.57-9.69.56-9.72,9.73-12.79q60.2-20.16,120.41-40.28c1.22-.4,2.48-.72,4.66-1.35a52.83,52.83,0,0,0-7.25,32.5c.06.82,0,1.66.15,2.48,1.16,8.8,1.15,8.75-7.13,11.57-27,9.2-54,18.54-81.08,27.56-4.11,1.37-5.69,3.35-5.05,7.43a9.25,9.25,0,0,1,0,1.49c0,12.72,0,12.78-12.56,16.26-26.23,7.28-53.05,10.57-80.18,11.36-36.41,1.05-72.23-3-107.25-13.37-4.11-1.22-5.81-3-5.71-7.58.27-13.7.09-13.78-12.82-18.2Q49.1,446,10.43,432.89C9,432.42,7.66,431.89,5.75,431.19Zm97.68,9.13c0,11.34.25,23.3-.13,35.23-.14,4.52,1.79,6,5.59,7.2,27.37,8.31,55.53,11.74,83.93,12.66,15.71.51,31.53-.6,47.23-1.84a274.56,274.56,0,0,0,58.59-11c3.3-1,4.9-2.6,4.7-6.36-.34-6.3-.09-12.64-.09-19V440.53C236.41,455.5,170.32,455.79,103.43,440.32ZM6.32,392.58c4.23,11.15,5.4,21.48,3.58,32-.65,3.74.42,5.24,3.94,6.42,22.82,7.62,45.56,15.47,68.32,23.24l17.68,6c0-8.6.18-16.2-.07-23.78-.14-4,1.5-5.28,5.25-5.17,5.51.16,11,.05,16.89.05Zm394.3-.05L284.69,431.46c6,0,10.61.17,15.24,0,6.52-.3,6.94,0,6.94,6.73v21.68a35.62,35.62,0,0,0,3.65-.79q41.7-14.18,83.39-28.35c2.81-.95,3.58-2.51,3.1-5.2C395.11,414.61,396.15,404,400.62,392.53Z"/><path class="cls-1" d="M60.17,10.23H346.58v5.32q0,170.36,0,340.7c0,15-6.33,23.6-20.77,27.69q-59.64,16.89-119.35,33.51a13.16,13.16,0,0,1-6.73-.2Q140.5,400.75,81.33,384c-14.81-4.19-21-12.61-21-28q-.11-169.35-.19-338.71Zm274,182.48q0-82.32.09-164.64c0-4.53-1.15-5.88-5.81-5.88q-125.16.21-250.34,0c-4.33,0-5.67,1.11-5.66,5.56q.16,163.65.1,327.29c0,11,2.69,14.37,13.23,17.35Q140.9,387.95,196,403.58a26.28,26.28,0,0,0,15.09-.07q55.05-15.75,110.18-31.19c10.38-2.92,12.93-6.17,12.93-17Q334.2,274,334.19,192.71Z"/><path class="cls-1" d="M213.65,466.74c5.42,0,10-.27,14.52.08s6.93,5.18,6.53,11.29c-.16,2.4.1,4.82.11,7.24,0,4.09-2.26,6.42-6,7.51-4.44,1.29-9.27-.33-11-3.63-1.17-2.27-2.35-4.53-3.58-6.9-6,6.11-9.82,6.49-16.63,1.72-3.78,5.3-9.29,2.54-14,2.3-4.06-.2-5.5-6.39-3.78-14.43.88-4.11,3.34-6.42,7.92-5.41.81.18,1.66.11,2.46.31,5.5,1.31,9-2,12.84-5.08,1.84-1.46,4.87-3.28,6.49-2.66s2.49,4,3.61,6.18A5.86,5.86,0,0,1,213.65,466.74Zm-4.7,2.45c2.14,6.42-.89,7.61-5.8,7.53-.39,0-1.61,3.33-1.09,4.52,1.07,2.42,5.6,2.32,7.16-.14C211.52,477.47,211.24,473.6,209,469.19Zm-16.48,13c2.4-2,3.18-5.23.85-6.6s-5.73-.3-8.68-.32v7.31c2.06-3.11,3.42-5.16,4.79-7.21C190.35,477.47,191.27,479.54,192.47,482.22Zm33.83-3.74L222,474.54c-1.26,1.53-3,2.91-3.56,4.67-.25.8,1.84,2.35,2.87,3.56Z"/><path class="cls-1" d="M31.63,428.16c-4.15-.94-8.62-1.21-12.36-3-4.12-2-6.2-5.75-4.6-10.84.6-1.93-.16-4.29.43-6.23.47-1.53,1.89-3.64,3.19-3.89C24.24,403.08,32.13,408.73,34,416a65,65,0,0,1,8.19-3.74c.81-.25,2.64,1.11,3.21,2.16.8,1.47.85,3.35,1.41,5.94,4-5.25,8.46-4.53,12.35-2.22,5.47,3.23,10.47,7.26,15.8,10.14,2.67.58,5.35,1.15,8,1.75,2.42.55,5,2.36,6.91-1.07.18-.31,3.37.26,3.67,1a36.77,36.77,0,0,1,3,10.38c.22,2.54-.41,6-2.07,7.57-1.36,1.28-5,1-7.25.25-4.55-1.5-8.85-3.79-14.57-6.34-4.46,1.3-5.84.88-6.73-2.66,1.79-1.35,4.36-2.32,4.77-3.87.49-1.82-.89-4.15-2-6.09-3.46,10.84-6.16,12-17.37,6.89-3.27,4.22-7.64,4.59-11.36,1.06-3-2.84-4.93-6.83-7.33-10.31Zm20.14.11c1,4.81,4.14,6,7.42,6.3,1.08.11,3.11-1.52,3.39-2.67a8.34,8.34,0,0,0-3-9.11l.91,7.48Zm-3.43-1.69L47.49,425a62.29,62.29,0,0,0-7.93-2.3c-.76-.13-1.8,1.37-2.71,2.12,2.44,1.65,4.74,3.67,7.41,4.74C45.1,429.88,47,427.64,48.34,426.58Zm-30-9.26c2.29,4.71,6.48,7.39,8.87,6.07,3.09-1.7,3.16-4.27,1.53-6.64-1.62.67-3,1.66-4.45,1.73C22.63,418.57,20.91,417.86,18.36,417.32Zm61.31,21.11-.42,2.6,5.68,1.2c0-1.18.26-3.32,0-3.37A34.58,34.58,0,0,0,79.67,438.43Z"/><path class="cls-1" d="M390.51,402.54c1.37,4.34,2.38,7.58,3.42,10.8,2.13,6.66-1.15,13.53-7.86,15.44-4.19,1.2-8.6,1.64-14.72,2.74-3.59,4.21-5.74,4.92-10.22,3.12-5.57,2.31-10.1,5.63-14.64,5.63-4.19,0-6.3,2.69-9.5,3.54s-6.32.86-10.48,1.37c.59-.71.2-.45.21-.22.49,6.33-2.2,9.53-8.76,9.49-1.52,0-3,1.51-4.57,1.77s-3.2-.19-4.8-.33a34.56,34.56,0,0,1,2.92-3.34,15.53,15.53,0,0,1,3.13-1.62c-5.16-1.46-6.9-4.58-6.19-9.12,1.39-8.93,2-9.49,8.18-11a138.33,138.33,0,0,0,18.19-5.4c3.35-1.33,6.38-6.31,9-5.92,3.64.53,6.66,1.7,10.27-.24,1.28-.7,3.38.11,5.82.29,2.72-2.8,7.47-3.14,11.21-4.86,5.48-2.52,14.37-.95,16.43-9.71C387.79,404,389.48,403.35,390.51,402.54Zm-50.68,28.65c-3.06,1.06-5.82,1.48-7.86,2.92-1.22.86-1.3,3.32-1.9,5.06,1.57.36,3.35,1.38,4.67,1C338.46,439,340.94,436.54,339.83,431.19Zm-17.07,5.47c-2.91,1-5.77,1.4-7.95,2.85-1.18.78-1.2,3.3-1.74,5,1.47.36,3.13,1.34,4.38,1C321.24,444.36,323.54,441.85,322.76,436.66Zm60.89-18.09c-4.28-.06-6.32,2.13-6.74,5.8-.08.66,1.71,2.3,2.31,2.16C383,425.61,384.59,423.08,383.65,418.57Zm-13.75,5.79-7.49-1.87c.54,3,.92,5.42,1.49,7.78,0,.19,1.84.37,2.11,0C367.35,428.55,368.45,426.62,369.9,424.36ZM347.75,434.7c6.87.15,8.18-1.39,6-7Z"/><path class="cls-1" d="M278.15,75.08c-6-2.69-9.39-5.65-8.78-12.06.57-6.1-.15-12.31.21-18.44.27-4.54-1.46-5.68-5.73-5.58-3.94.08-6.24.54-5.88,5.38.42,5.58.1,11.22.1,16.88-7.28-.61-8.58-2-8.6-8.44a51.68,51.68,0,0,1,.06-7.47c.74-5.2-1.41-6.64-6.39-6.37-3.72.21-5.57.94-5.13,5.08a90,90,0,0,1,.06,9.29c-8,.12-8.65-.54-8.67-7.59,0-6-4.46-9.08-9.75-6.25-1.14.61-1.41,3.31-1.63,5.11-.31,2.61.38,5.48-3.87,5.43-4-.06-5.34-2-4.76-5.66.88-5.43-2.52-5.22-6.32-5.37-4.13-.15-6.49.79-5.77,5.45.57,3.69-.82,5.58-4.81,5.57-4.26,0-3.93-3-3.66-5.54.49-4.65-1.66-5.5-5.8-5.51s-5.44,1.5-5.41,5.54c.06,8.49-.12,8.49-9,9.06,0-3.59-.15-7.15,0-10.69.25-4.78-3.16-3.7-5.78-3.75s-6-.77-5.64,3.91c.22,3.15,0,6.32,0,9.48,0,6.94-.53,7.54-8.63,9,0-5.86-.33-11.61.1-17.3.38-5-2.26-5.13-6-5.22-3.93-.09-5.76.83-5.52,5.22.35,6.3-.39,12.68.22,18.94.63,6.49-2.86,9.29-8.59,11.83-.25-2.27-.62-4.14-.63-6-.07-8.31-.23-16.64,0-24.94.15-4.61-2.21-5-5.87-5s-5.37.83-5.29,5c.24,12.3-.24,24.62.22,36.91.24,6.63-3.46,10.22-8.48,14.75-.29-3-.65-5-.66-7-.05-14.63,0-29.27-.1-43.9,0-1.79-.61-4.81-1.59-5.1a15,15,0,0,0-7.77,0c-.79.21-1.21,3.12-1.22,4.8-.08,22.12,0,44.23-.14,66.35A33.38,33.38,0,0,1,95.45,120c-2.55,8.58-5.28,17.1-7.94,25.64a4.78,4.78,0,0,1-2.12,3c-.13-1.69-.38-3.38-.38-5.07q0-54.12,0-108.26c0-6.65,0-6.67,6.62-6.67q111.45,0,222.9-.1c4.83,0,6.6,1,6.57,6.28C320.86,70,321,105.24,321,140.49a8.35,8.35,0,0,1-1.29,4.88c-.48-1.49-1-3-1.45-4.46-1.7-5.55-2.8-11.37-5.23-16.58-3.2-6.86-4-13.81-3.94-21.23.23-19.62,0-39.24.16-58.86,0-3.87-1-5.27-5-5.24s-5.63.87-5.56,5.24c.23,14.8.1,29.6.07,44.4,0,1.92-.21,3.85-.39,7.15-4.74-4.15-8.62-7.13-8.6-13,0-12.64.07-25.28-.06-37.92,0-1.82-.56-5-1.47-5.2a19,19,0,0,0-8.28,0c-.68.13-1.19,2.85-1.21,4.38-.12,8.32,0,16.63-.08,25C278.61,70.81,278.36,72.57,278.15,75.08Z"/><path class="cls-1" d="M291.85,290.54,307,287.81c-1.62,8.53-8.65,15.08-17.66,17.2,8.25,2.69,12.4.42,15.11-7.38a16.4,16.4,0,0,1,5.28-6.76c2.73-2.2,6.07-3.65,9.23-5.47,4.68,6-.81,14.65-12.12,19a51,51,0,0,0,6.91-.61,61.23,61.23,0,0,0,6.92-2.34c1.74,7.14-4.39,13.6-14.63,15.74l5.82,2.41c-.41.64-.81,1.29-1.21,1.93-2.22,0-4.45.14-6.66,0a50,50,0,0,0-12.19.42c-5.11.82-10.86-2.31-16.33-3.73l0-1.29,1.84,4.82c-5,1.64-9.81,1.24-13.36-1.7-3.21-2.65-5.13-6.85-8.49-9.81,2.38,3.85,4.77,7.69,7.16,11.56-9.3,3.12-17.52-.7-20.74-9.34a22.13,22.13,0,0,0-2.7-4.17l-1.75,1.06,6.7,12.1c-5.17,2.52-9.52.55-14-1.37v4.77c-3.55-1.51-6.79-2.18-9.15-4-17.56-13.51-17.31-13.56-35.14.23-2.29,1.77-5.56,2.27-8.37,3.35l-.85-1.45.94-2.49-13.72,2.56-.8-1.63,6.54-11.86-1.13-1.07c-1,1-2.81,1.93-3,3.1-1.57,9.67-7.87,11.55-21.35,10.53,1.46-2.14,2.78-3.95,4-5.84a15.71,15.71,0,0,0,2.6-6.36c-2.5,3.46-4.33,7.93-7.66,10.12s-8.18,2.15-13.42,3.32c.78-3,1.12-4.38,1.38-5.41-3.74,1.42-7.47,3.26-11.41,4.15-2,.45-4.38-.86-6.61-1.27a12.38,12.38,0,0,0-3.1-.13c-4.46.32-8.9.69-13.35,1.05-.33-.7-.67-1.4-1-2.09l4.32-2.5c-3.54-1.86-7.17-3.05-9.86-5.36s-5-5.71-3.77-10.43a60.41,60.41,0,0,0,7.15,2.47,25.37,25.37,0,0,0,7.42.2c-6-1-11-3.26-12.74-9.49-.83-3-1-6.14-1.54-10.07,5,2.85,8.84,4.64,12.16,7.14a13.05,13.05,0,0,1,4,6c2.72,7.82,6.44,9.85,15,7.15-10.42-.37-13.3-8.9-18.17-15.28l.54-1.43L115.14,290c-1.41-3.62-4.76-4.12-8.6-3.73a37.26,37.26,0,0,1-5.49,0C91,285.86,86.16,281,86.08,271a57.81,57.81,0,0,1,.71-11.4c1.16-6,5.11-9.14,11.24-9.3q9.47-.22,18.94,0a8.47,8.47,0,0,1,4.54,1.49c7.61,5.61,15.09,11.39,22.6,17.14a13.12,13.12,0,0,1,1.6,2.08,43.84,43.84,0,0,1-4.79.56q-17.94.06-35.9,0c-2.7,0-5.43.25-5.35-3.94.08-4,2.57-4.08,5.37-4.08h17.21l.42-1.87c-2.89-.95-5.73-2.39-8.69-2.73-4.1-.47-8.3-.07-12.45-.13s-6.19,1.61-6.13,5.93c.21,13.68-1.75,12.86,12.33,12.86,10,0,20,.7,29.91-.15,17.42-1.5,33.89,3,50.57,6.49a3.63,3.63,0,0,1,2.54,2H125.08c7.26,2.28,11.56,6.36,12.7,14.05.23,1.59,3.42,3.15,5.54,3.94,1.75.65,3.94.13,5,.13-2.53-1.75-6.21-3.46-8.67-6.26-2.31-2.63-3.33-6.4-5.16-10.16,10.55-.26,18,4.41,21.74,12.26.76,1.61,2.7,2.66,4.09,4l1-1a106.37,106.37,0,0,1-6.38-8.65c-2.26-3.74-1.36-5.13,2.87-5.07,8.24.1,15,2.69,18.4,11,.41,1,1.76,1.61,3.25,1.78-2.37-3.82-4.74-7.65-7.13-11.53,9.71-4.87,21-.89,24.67,8.65,1.4,3.6,3.73,4.55,6.79,4.47,2.74-.08,5-.68,6.33-4.24,3.41-9.39,14.4-13.45,24.84-9.07l-7.79,12.77c1.77-1.21,3.25-1.66,3.63-2.58,4.16-9.87,12.32-11.58,22.26-11.17.45,6.33-4.18,9.47-7.42,13.35l.89,1.12c1.52-1.2,3.67-2.09,4.46-3.66,4.05-8.07,10.83-12.41,20.22-12.44.7,7.52-4.19,13.36-14.67,16.52,3.2,0,5.49.54,7.33-.15,2.05-.76,4.95-2.37,5.31-4.08,1.63-7.57,5.83-12,13.42-13.89H216.16l-.16-1.42c2.8-.49,5.74-.6,8.4-1.52,25.23-8.72,51.34-4.34,77.08-5.36,2-.08,4,0,6-.09a4.18,4.18,0,0,0,2.4-.48c4.48-4.06,1.76-9.35,1.89-14.05,0-1.34-3.16-3.74-5.06-4a72.32,72.32,0,0,0-14.93-.06c-2.35.22-4.56,1.94-6.83,3,.11.53.23,1,.34,1.58h17.05c3.05,0,5.65.19,5.53,4.42s-3.14,3.58-5.65,3.59c-11.8.07-23.61.05-35.41,0-1.56,0-3.13-.29-6-.57,1.94-1.65,2.82-2.47,3.78-3.2q9.87-7.59,19.79-15.1c1.28-1,2.77-2.27,4.19-2.31,7.48-.22,15-.38,22.43,0,5.69.31,9.62,4.84,9.92,10.67.21,4.15.13,8.32.05,12.47-.12,6.59-3.65,11-10.19,12.16a53.19,53.19,0,0,1-11.42.54c-3.64-.19-6,1-7.37,4.37-2.43,2.1-5.36,3.84-7.14,6.39-2.87,4.12-5.66,7.68-11.45,6.79,9.2,2.58,10.39,1.84,13.67-6.52C288,294.79,290.22,292.77,291.85,290.54Zm-96.67,11.75c.17-7.71-10.57-14.36-19.18-10.65C179.86,300.47,185.78,303.76,195.18,302.29Zm35.92-11.18c-10.8-2.48-19.7,4.51-19,11.4C222.69,303.25,227.82,300.24,231.1,291.11Zm-77.27,14.31v.74c10.68,0,21.43.75,32-.18,14.57-1.28,26.23,3.95,36.66,13.33a33.25,33.25,0,0,0,3.2,2.3c-6.2-8.74-14.71-15-24.86-15.85C185.29,304.49,169.52,305.42,153.83,305.42ZM184.09,308c-10.4-1.68-14.06.94-17,12.16A17.58,17.58,0,0,0,184.09,308Zm38.82-.23c2.74,8,10.5,13.25,17.41,12C234.13,307,233.91,306.87,222.91,307.72ZM174,303c-1.09-8.14-7.62-12.31-17.2-11.23C159.38,299.51,165.46,303.58,174,303Zm76.6-11.34c-8.6-1.46-18,4.36-17.36,11.28C241,303.84,246.79,300.19,250.55,291.68Zm37.15-2.75c-6,.47-12,.27-14.79,6.92-.57,1.37-1,4-.41,4.4a8.15,8.15,0,0,0,5.12.89c1.1-.13,2.25-1.33,3-2.34C283,295.7,285.2,292.45,287.7,288.93ZM148.31,320c11.3.29,13.76-1.69,15-11.48C153.85,306.2,152.54,314.37,148.31,320Zm-28.87-31c2.7,3.83,4.56,7.49,7.39,10.06,1.64,1.48,4.86,1.2,7.37,1.71-.12-1.95.32-4.18-.48-5.78C130.8,289.22,125.22,289.29,119.44,289Zm124.14,19.71c1.76,9.88,4.86,12.23,14.54,11.06C252.81,308.84,251,307.48,243.58,308.72Zm-125.2-7.55c-.94-8.27-4.32-10.56-14.07-9.52C108.56,300.24,112.83,303.13,118.38,301.17Zm184.49-9.68c-10.36-.61-14.07,2-13.94,10C294.91,302.73,298.52,300.15,302.87,291.49Zm-49.66,9.56c8.19.83,14-3.46,15.08-11C261.5,291.38,255.64,293.61,253.21,301.05ZM133.27,320c8.47.27,11.37-2.12,13.87-11.07C140.54,307.75,138.19,309.59,133.27,320Zm140.53,0c-5.12-10.16-8.54-13.64-13.91-10.73C263,318.32,265.52,320.34,273.8,320ZM153.55,301.06a14.33,14.33,0,0,0-15.15-10.32C141.41,298.83,146,301.94,153.55,301.06ZM116.5,320.35c6.34-.85,11-2.59,14.44-6.73.72-.86,1.26-2.62.84-3.44s-2.2-1.11-3.34-1C121.93,309.6,120,315,116.5,320.35Zm174.15-.27c-3.55-4.7-5.19-10.22-11.5-10.84-1.33-.13-2.73.5-4.09.77.41,1.32.46,3,1.3,3.9C279.92,317.85,284.47,319.8,290.65,320.08ZM115.48,309.93c-5-2.08-7.8,1.61-13.29,9.06C111.78,319.25,114.19,317.62,115.48,309.93Zm176.14-.3c1.14,8.05,4.76,10.38,13.62,8.89C300.83,315.24,299.28,308.34,291.62,309.63ZM88.76,305.4c1.42,4.82,4.38,7.79,8.94,8.13,1.53.11,3.26-2.42,4.91-3.74-1.26-1.05-2.36-2.68-3.79-3A85.67,85.67,0,0,0,88.76,305.4ZM319,307l-1-1.58c-3.08.37-6.26.39-9.19,1.25-1.59.47-2.76,2.35-4.12,3.59,1.92,1.08,4.43,3.5,5.65,3C313.5,311.89,316.13,309.2,319,307Zm-1.17-17.3c-11,4.64-11.83,5.56-10.67,11.12C314,300.25,316.48,297.79,317.82,289.74ZM208.76,305.2l0,1.06h45V305.2ZM89.33,289.67c1.08,8.28,4.54,11.49,11.21,10.81C100.07,294.46,100,294.42,89.33,289.67Zm29.28,2.83c4.12,13.19,6.36,14.71,15.45,11C125.07,305.87,123.91,297.21,118.61,292.5Zm80.55,16.16c-5.7.51-15.15,7.07-18.13,13Z"/><path class="cls-1" d="M315.79,167.23c-.35,60-47.94,112-112.11,112.07-64.5.1-112.52-51.87-112.61-112.56-.09-61.55,51-112,112.84-112C265.19,54.86,315.82,105.75,315.79,167.23ZM180,62.1c-9.07,3.6-16.92,6.68-24.74,9.83-4.59,1.85-9,3.9-5.22,8.65l-33,31.46-4.66-1.48L99.73,141l5.32,3.28a103.41,103.41,0,0,0-.27,44.26l-5.73,3.39c4,9.22,7.79,18.36,11.93,27.36.49,1.07,3.07,2.22,4.06,1.81,2.7-1.11,3.65.21,5.3,1.93,7.78,8.12,15.53,16.32,23.88,23.84,3.62,3.26,8.21,5.11,2.53,11.56l31.5,13,3.61-7.08c7.71.48,14.82,1.29,21.93,1.27s14.17-.88,21.6-1.4c.92,1.88,2,4,3.45,7.09l30.73-12.5c-1.12-3.58-1.8-5.74-2.51-8,11.43-7.32,21.16-16,28.78-27,1.76-2.53,3.24-4.62,6.72-2.53.56.34,2.4-.32,2.79-1,5.3-9.22,9.63-18.82,11.41-29.27l-4.22-2.44c.62-7.73,1.68-15,1.66-22.27s-1.16-14.47-1.8-21.74l4.9-3c-4.16-10.14-8.28-20.18-12.62-30.74-5.4,3.47-7.26.48-10.06-2.51-7.35-7.83-15.33-15.08-23.13-22.49a38.61,38.61,0,0,0-4.56-3.25c.81-2.24,1.41-3.94,2.16-6-9.79-6-19.85-10.56-30.81-12.85-3.05,6-3,5.61-9.45,5.31-9.58-.45-19.21-.59-28.79-.16C185.21,69,180.56,70.58,180,62.1Z"/><path class="cls-1" d="M93.88,345.1a31.23,31.23,0,0,0,3.49,0c4.28-.48,6.06,1.27,5.89,5.66-.09,2.3.3,6.31,1.37,6.64,3,.93,6.56.66,9.78.16.78-.12,1.54-3,1.62-4.59.37-7.84.28-7.85,8.14-7.86h2.49c7.66,0,8,0,7.61,7.51-.21,4.6,1.49,5.83,5.73,5.46,3.55-.32,7.36.91,7.08-5.22-.36-7.71,0-7.73,7.58-7.75h2.49c8,0,8.29,0,8.1,8.07-.1,4.16,1.53,5.36,5.26,4.95a12.46,12.46,0,0,1,3,0c3.76.44,5.3-.84,5.2-5-.2-8,0-8,8.14-8.06h1c9,.09,9.47-1.11,9.12,8.69-.12,3.23,1.07,4.39,4.32,4.36,9.76-.1,8.61.18,8.42-7.71-.1-4.19,1.67-5.77,5.66-5.35a23.16,23.16,0,0,0,2.5,0c9.48,0,9.36,0,10.41,9.48.14,1.28,2.13,2.48,3.46,3.44.55.4,1.62.08,2.45.08,7.12,0,7.35,0,7.14-7.31-.12-4.35,1.33-6.24,5.7-5.7a20.84,20.84,0,0,0,2.5,0c9.42,0,9.3,0,10.48,9.53.16,1.28,2.09,2.76,3.53,3.33s3.28.05,4.93.15c2.68.15,3.79-.84,3.93-3.7.44-9.32.55-9.31,9.91-9.31,1.33,0,2.66.08,4,0,3.17-.19,4.67,1.23,4.47,4.42a5.45,5.45,0,0,0,0,1c.35,2.39.2,6.54,1.18,6.83,3.21,1,6.85.67,10.3.45.68,0,1.6-1.89,1.77-3,.29-2-.34-4.12.24-5.93a7.44,7.44,0,0,1,3.39-3.61c1-.58,2.6-.17,3.93-.15,11.87.13,9.93-1.3,10.44,10.36.2,4.57-2.57,5.13-5.65,5.94-35.6,9.38-71.19,18.84-106.86,28a25.06,25.06,0,0,1-12,0c-35.67-9.15-71.26-18.58-106.85-28-2-.54-5.27-1.82-5.5-3.16-.64-3.84-.78-8.17.51-11.71.52-1.43,5.28-1.31,8.11-1.9Z"/><path class="cls-1" d="M86.55,185c.57,2.15,1.09,4.3,1.72,6.43,1.87,6.34,3.91,12.64,5.64,19,1.36,5,2.3,10.18,3.56,15.25.28,1.14,1.14,3.11,1.61,3.08,5-.39,6.2,3.74,8.42,6.65,2.09,2.72,4.11,5.49,6.16,8.25l-.39,1.71c-8.48,0-17,.1-25.42-.13-.94,0-2.61-1.86-2.62-2.86-.16-19-.12-38.1-.12-57.15Z"/><path class="cls-1" d="M320.67,187.82c.14,2.85.3,4.47.3,6.08,0,15.13-.18,30.26.12,45.39.09,4.74-1.53,5.94-6,5.75-7.18-.32-14.37-.09-22.74-.09,4.05-5.6,6.47-12.6,10.79-14.08,7.26-2.49,4.92-7.41,6.3-11.78C312.66,209,316.54,199.2,320.67,187.82Z"/><path class="cls-1" d="M83.28,339.28l5.15-2.66L85,332.94c8.13-10.5,11.09-11.73,19.52-8.34.41,4.19.86,8.26,1.16,12.35.05.7-.48,2-.85,2.06-2.33.27-4.82.77-7,.2-1.91-.5-3.49-2.31-5.1-3.46-.3.73-.63,3.24-2.07,4.51s-3.84,1-5.84,1.48Z"/><path class="cls-1" d="M239.65,335.8l4.15-.53c-1.88,4.61-5.6,6.12-9.89,4.28a7.84,7.84,0,0,1-4-10.8c2.23-4.44,8.42-6.06,14.06-3.19C239.78,327.81,237.19,330.75,239.65,335.8Z"/><path class="cls-1" d="M193.55,333a11,11,0,0,0-.2,1.88c.12,2.14,1.59,5.08-2.58,4.72-2.84-.24-7.21,1.35-6.19-4.51.25-1.42-.44-3-.23-4.42.13-.92,1.08-2.43,1.72-2.46,4.1-.23,8.22-.12,12.23-.12,0,3.29.16,5.43-.05,7.54a19.61,19.61,0,0,1-1.27,4,21.21,21.21,0,0,1-2.45-3.5c-.37-.82-.07-1.94-.07-2.93Z"/><path class="cls-1" d="M307.92,328.43c.31,4.26.87,7.54.63,10.77-.09,1.26-1.77,3-3.1,3.44-1.74.59-3.85.14-6.95.14.66-4.95.75-9.61,2.2-13.79C301.05,328,305.92,328.54,307.92,328.43Z"/><path class="cls-1" d="M125.88,324.65l3.07-.44c4.46,4.25,7.26,8.87,4.85,14.58-.78,1.84-3.22,3-5,4.5C125.43,337.42,125.43,337.42,125.88,324.65Z"/><path class="cls-1" d="M208.46,339.25c-3.11,1.29-5.29-.73-4.32-3,1.2-2.8-1.24-8.14,4.57-8.28,6.77-.16,3.57,5.39,4.32,8.35C214.1,340.56,210.88,339.66,208.46,339.25Z"/><path class="cls-1" d="M163.58,329c0,2.45.12,4.57-.05,6.68a23.61,23.61,0,0,1-1,4,18.63,18.63,0,0,1-2.81-3.18c-.42-.74-.08-1.91-.08-4.33-.52,1.69-.6,2-.73,2.34-.69,1.74-1.4,3.47-2.1,5.2-.69-1.74-1.89-3.44-2-5.2C154.45,327.58,155.78,326.81,163.58,329Z"/><path class="cls-1" d="M148.85,329.18c-.63,3.49-1,7.06-2.18,10.36-.14.41-6.13-.25-6.27-1a15.58,15.58,0,0,1,.78-8.89c.63-1.35,4.08-1.38,6.25-2C147.91,328.17,148.38,328.68,148.85,329.18Z"/><path class="cls-1" d="M178.85,327.82c-.75,4.82-1.07,8.37-2.13,11.67-.12.4-6.18-.24-6.26-.83a19.3,19.3,0,0,1,.77-9.39C171.67,328.17,175.4,328.4,178.85,327.82Z"/><path class="cls-1" d="M257.94,333.84c.42,3.7-.95,5.91-4.48,5.87-3.17,0-4.39-1.81-4.2-5.2s.51-6.54,4.79-6.39C257.74,328.25,258.44,331,257.94,333.84Z"/><path class="cls-1" d="M119.65,329a79,79,0,0,1-.81,10.24c-.09.47-3.58,1-4.86.33s-3.06-3-2.9-4.39C111.94,327.68,112.78,327.2,119.65,329Z"/><path class="cls-1" d="M290.26,335.92l2.2,1,.18,1.41c-1.93.32-5.45,1.21-5.56.89a20.91,20.91,0,0,1-1.44-8.11c.08-1.11,2.4-2.58,3.91-2.89.92-.19,3.22,1.62,3.15,2.38C292.55,332.29,291.29,333.85,290.26,335.92Z"/><path class="cls-1" d="M318.59,335.64l2.58,1.27c.13.4.26.81.4,1.21-1.72.49-3.6,1.62-5.11,1.24-1-.25-1.73-2.54-2.21-4a4.86,4.86,0,0,1,.06-3.41c.79-1.42,2-3.15,3.33-3.54,1-.29,3.22,1,3.73,2.14.39.85-1,2.55-1.68,3.85A8,8,0,0,1,318.59,335.64Z"/><path class="cls-1" d="M274.49,324.72l4.56-.55c0,4.22.09,8.13-.05,12a13.57,13.57,0,0,1-1.12,3.48c-1.13-1.11-3.09-2.12-3.23-3.34A103.57,103.57,0,0,1,274.49,324.72Z"/><path class="cls-1" d="M264.08,324.85l3.76-.71a6.18,6.18,0,0,1,.46,1.51c0,3.45,0,6.9-.1,10.35a10,10,0,0,1-.35,3.36,3.17,3.17,0,0,1-2.59-.19,5.66,5.66,0,0,1-1.13-3.3C264,332.43,264.08,329,264.08,324.85Z"/><path class="cls-1" d="M283,167.2a79.55,79.55,0,1,1-159.1-.43c.09-44.23,35.59-79.23,80.27-79.13C247.83,87.73,283,123.23,283,167.2Zm-1.89,0c0-42.87-34.78-77.84-77.54-77.9a77.71,77.71,0,1,0,77.54,77.9Z"/><path class="cls-1" d="M239.17,89a8.19,8.19,0,1,1,.07-16.38A8.19,8.19,0,1,1,239.17,89Zm6.21-6.9,0-2.35c-2-1.48-3.8-3.86-6-4.23-3-.52-5.28,1.62-5.45,5-.17,3.62,2,6,5.3,5.64C241.45,85.88,243.36,83.49,245.38,82.07Z"/><path class="cls-1" d="M289.24,210.9a8.21,8.21,0,1,1,8.2-8.29A8.35,8.35,0,0,1,289.24,210.9Zm6-7.23-.07-2.33c-2.05-1.39-4-3.73-6.16-4-3.3-.33-5.42,2-5.19,5.69.22,3.4,2.48,5.47,5.49,4.89C291.47,207.55,293.26,205.18,295.23,203.67Z"/><path class="cls-1" d="M297.43,131.54a8.34,8.34,0,0,1-8,8.46,8.25,8.25,0,0,1-8.73-8.19,8.14,8.14,0,0,1,8.21-8.18A8.27,8.27,0,0,1,297.43,131.54Zm-2.25,1.51c0-.78,0-1.56,0-2.34-2-1.48-3.81-3.82-6-4.22-3-.55-5.26,1.54-5.42,5-.18,3.66,2,6,5.26,5.64C291.23,136.86,293.15,134.47,295.18,133.05Z"/><path class="cls-1" d="M168.34,89a8.19,8.19,0,1,1,8.41-8A8.27,8.27,0,0,1,168.34,89Zm6.21-7.21-.06-2.3c-2.05-1.4-4-3.72-6.16-4-3-.35-5.21,1.83-5.23,5.24,0,3.67,2.29,5.89,5.54,5.38C170.78,85.77,172.59,83.28,174.55,81.76Z"/><path class="cls-1" d="M118.08,122.69a8.35,8.35,0,0,1,8.51,7.94,8.23,8.23,0,0,1-8.42,8.48,8.21,8.21,0,0,1-.09-16.42ZM112.14,130l.06,2.39c2.07,1.35,4,3.56,6.23,3.84,3.16.41,5.21-2,5.18-5.32s-2.24-5.58-5.41-5C116,126.32,114.15,128.53,112.14,130Z"/><path class="cls-1" d="M126.6,201.2a8.37,8.37,0,0,1-8,8.42,8.24,8.24,0,1,1-.38-16.48A8.43,8.43,0,0,1,126.6,201.2Zm-14.45-.91,0,2.27c2,1.45,3.87,3.8,6.06,4.15,3,.5,5.33-1.76,5.38-5.07,0-3.5-2.06-6-5.47-5.46C116,196.52,114.14,198.85,112.15,200.29Z"/><path class="cls-1" d="M239.08,260.61a8.2,8.2,0,1,1-.17-16.39,8.2,8.2,0,0,1,.17,16.39Zm.14-16c-2.69,3.44-5.55,5.49-5.47,7.43s2.72,5,4.77,5.55a4.46,4.46,0,0,0,5.63-5.09C243.87,250.27,241.61,248.27,239.22,244.62Z"/><path class="cls-1" d="M168.12,244.22a8.2,8.2,0,1,1-8.29,7.92A7.84,7.84,0,0,1,168.12,244.22Zm7.57,7.93c-3.57-2.41-5.54-4.74-7.78-5a4.55,4.55,0,0,0-5.2,5.6c.49,2.05,3.54,4.68,5.57,4.8S172.27,254.78,175.69,252.15Z"/><path class="cls-1" d="M202.94,241.8c-41.8-.58-74.63-33.9-74.19-75.29a74.25,74.25,0,0,1,75.9-74c41.12.59,74.39,34.72,73.56,75.47C277.37,209.49,243.85,242.37,202.94,241.8Zm51.89-58.42c.79,4,2.32,8,2.22,12-.18,6.63-1.4,13.23-2.18,19.85,6.81-5,11.9-10.18,9.62-19.24-1-4.06-.18-8.6-.18-11.5l-9.6-1L253.38,179c6.07,3.87,7.28,3.2,9.28-2.41a81.8,81.8,0,0,1,5.82-12c3-5.4,5-11,3-17.08-1.7-5.25-6.44-6.36-10.56-2.74-1,.87-1.9,1.8-2.86,2.71l-1.43-1.23c1.62-2,2.87-4.67,5-6,2.3-1.43,5.35-1.63,8.07-2.36-11.08-23.69-22.25-32.34-50.86-42.28-5.45-1.89-6.48-1-7.82,4.76-2.49,10.77.91,21,2.57,31.49a20.9,20.9,0,0,1-.71,9.43C211,147,208.4,152.43,206.13,158c-1.31,3.19-.37,4.69,3.21,4.58a35,35,0,0,1,6.86.44c1.69.28,3.47,1.8,4.89,1.45,1-.25,1.52-2.67,2.81-5.24,1.51,3.7,2.66,6.5,4.1,10.05l-16.06-2.89c-.27,2.53-.57,5.41-.88,8.29,3.18-.32,6.37-.62,9.54-1,.26,0,.52-.4.71-.66,1.87-2.49,3.71-1.24,4.81.48a86.62,86.62,0,0,1,4.27,8.44l-1.13.75c-1.09-.66-2.12-1.73-3.28-1.89-4.26-.63-9-2.23-12.65-.89-2.07.77-2.29,6.52-3.32,10a1.51,1.51,0,0,0,.15,1c2,4.11.63,7.84-1.5,11.32s-1.79,6.58.46,10.14c1.17,1.87,1.61,5.72.47,7.25-3.71,4.95-3.38,9.23-1.08,14.73,1.46,3.49,2.89,4.54,6,3.75,3.86-1,2.18-4,1.52-6.08a13,13,0,0,1,1.35-11.34c1.29-2.23,1.88-6.06.84-8.23-3.82-7.95,1.31-14.18,3.24-21.19a16.13,16.13,0,0,1,1.74,6.72c.33,4.68.72,9.38.72,14.07,0,3.21.27,6.91-1.16,9.53-2.73,5-2,9.38-.2,14.11,4-.15,5.72-1.18,4.64-5.54-.6-2.42.19-5.6,1.36-7.94,1.69-3.38,2.21-6.33.65-9.91-2.35-5.37-.5-12.56,4.82-17.86v36.84c3.41-.28,5.72-1.35,5.83-5,.13-3.94.05-7.89.3-11.81.5-7.84,1.16-15.67,1.76-23.51,3.75,2.54,4.42,5.22,4.06,8.9-.82,8.29-.81,16.66-1.18,26.19,4.26-2.57,6.76-4.66,6.52-8.43s-1.47-7.8-1.41-11.68a143.09,143.09,0,0,1,1.58-18.13C251.71,186.23,253.67,184.86,254.83,183.38Zm-63.69-21.09,5.91-2.44-4.52-5.79,9.52-5.36-5-4.23,10.37-6.11-9.49-4.79,9.22-6.48-7.22-2.57c1.55-3.87,2.92-7.31,4.49-11.25l-6.79,1.33,5.7-14.27-.62-.54-13,10.85c-.6-4.31-1-7.15-1.63-11.61-3.28,8.87-8.56,10.27-15.57,5.78-.7,3.8-1.24,6.69-1.86,10.06l-9.78-2.33c.34,4.4.63,8.23,1,12.78l-10.42-2.59L156,133H143.28l7.91,10.34-11.27,3-.81,1.43,7.53,5-10.85,6.48,10.75,4.56-9.8,11.61,1.15,1.4c4.1-2.58,8.14-5.25,12.32-7.69a49.32,49.32,0,0,1,8-3.84,69.21,69.21,0,0,1,8.21-1.92c-1.52-2.78-2.8-5-4-7.34-3.61-6.89-4.8-14.26-.53-20.92,5-7.85,12.46-14.21,13.57-25.65,2.67,2.86,4.45,4.32,5.69,6.15,7.84,11.57,8.53,23.42,1.13,35.51-2.3,3.76-4.49,7.59-6.51,11l26.8,10.24.73-1.65Zm-13.2-46.8c-4,5.82-7.49,11.79-11.8,17.12s-5.84,11.38-3.58,17.62c2.09,5.76,5.5,11.05,8.3,16.5,3.56-6.28,6.8-12,10.06-17.76C187.57,137.31,186.28,124.3,177.94,115.49Zm26.82,74.4c-5-1.66-9.35-2.69-13.3-4.6-2.65-1.28-4.48-1.6-7.17-.08-7,3.92-14.59,4.76-22,1.65-4.31-1.8-7.68-2.23-12.27-.12-4.4,2-9.85,1.8-14.83,2.56,1.44,7.2,10.13,7.45,20.58.56,11.23,7.68,22.07,6.35,32.32-1.91,4.78,4.8,9.92,7.58,16.61,7.28.1-1.42.21-2.39.22-3.37A19.15,19.15,0,0,0,204.76,189.89Zm-49.39,9.47c11.06,8.08,22.08,8.65,32.45-1.63,3.67,4.63,7.92,7.52,13.4,7.11,1.08-.08,1.92-3.29,2.63-4.61l-17.2-6.78c-8.84,5.94-18.88,6.91-29.35,1.72A3.59,3.59,0,0,0,155,195c-5.28,1.45-10.52,3-15.81,4.52C141.1,206.31,145.22,206.59,155.37,199.36Zm30.84,4.56c-6.66,5.08-15.53,7.38-23.83,3-7.14-3.79-11.86.1-17.76,1.64,3.47,5.42,4.2,5.43,10.67.37,11,7.32,22,8.88,32.77-1,4.49,5.21,9.82,7.72,17.77,6.84-2.26-2.48-3.52-4.89-5.46-5.79C196.11,207,191.49,205.73,186.21,203.92Zm-35.85-31.09c6.11,9,15,11.61,25,10.77,7.31-.61,13.47-3.62,17.12-9.29-6.69-.79-13.27-1.58-19.86-2.33a5,5,0,0,0-2.37.17A27,27,0,0,1,150.36,172.83Zm53.88,47.31c-5.24-2.08-10.18-4.13-15.2-6a4.58,4.58,0,0,0-3.47.28c-8.76,5.46-17.72,5-26.56.67-3.3-1.63-5.48-1-7.81,1.19,6.84,10.05,26.1,11,36.52,1.78C196.54,225.88,201.1,226.26,204.24,220.14Zm70.91-61c-1.94,2.84-4.28,5.64-5.88,8.81-1.29,2.55-2.71,5.73-2.26,8.31.92,5.23,2.19,10.18.18,15.48-.56,1.47.44,3.52.85,6.15C273.94,187.68,276.5,172.72,275.15,159.18Zm-111.72,68.3c9.94,8.28,18.17,7.9,23.95-.6,4.47,4.6,9.66,7.72,16.5,8.22-1.3-4.5-3-7.61-8-7.92-2-.12-3.92-1.67-5.92-2.48-1-.41-2.52-1.22-3.08-.82C180,228.9,172.05,227.73,163.43,227.48ZM201,239.94l0-.81-13.37-6-5.1,3.74Zm-26.76-74.05-.21,1.28,17.12,4.3.31-1.31Z"/><path class="cls-1" d="M247.18,129.6c-4.07,2.86-8.28,2.61-11.72.16-5-3.55-10.14-5.3-16.2-4.31a7.65,7.65,0,0,1-2.34-.43c2.38-5.7,6.88-7,13.53-4.07,1.76.8,3.23,2.24,4.86,3.35a41.61,41.61,0,0,0,5.77,3.76C243,128.91,245.14,129.11,247.18,129.6Z"/><path class="cls-1" d="M217.46,135.73l6.38-2.54,4.43,3.09-4.13.29c5.17,1.41,11,.07,14.89,5.25l-11-1.55-.14,1.77,4.48.22.42,1.29-9,2.19Z"/><path class="cls-1" d="M258.05,170.53c.69-2.48,1.09-5.1,2.15-7.42,1.3-2.83,3.31-5.33,4.73-8.11,1.71-3.35,2.63-6.62-3.9-6.21l.46-1.43c1.64-.42,3.57-1.58,4.84-1.08,1.51.59,3.62,2.82,3.42,4a41.93,41.93,0,0,1-3.63,11.49c-1.64,3.28-4.31,6.05-6.52,9Z"/></g></g></svg>