<svg xmlns="http://www.w3.org/2000/svg" viewBox="0 0 74.55 68.92"><g id="Layer_2" data-name="Layer 2"><g id="Layer_1-2" data-name="Layer 1"><path d="M14,45.37l6.44-3.72a18.27,18.27,0,0,1-2.3-.35A17.25,17.25,0,0,1,7.74,33.22,24,24,0,0,0,32.38,14.77a25.17,25.17,0,0,0,.8-6.4A18.13,18.13,0,0,1,39.72,27.7l0,.13a17.35,17.35,0,0,1-1.15,3.39L46,26.88A24.15,24.15,0,0,0,30.54.18a3,3,0,0,0-3.93,3.55,19.43,19.43,0,0,1-.06,9.61A18,18,0,0,1,5.06,26.81c-.29-.08-.56-.17-.84-.27l-.28-.09A3,3,0,0,0,.08,30,23.19,23.19,0,0,0,14.66,46.45Z"/><path d="M52.73,22.31c-.32,0-.64,0-.95,0h-.86a23.52,23.52,0,0,0-6.6,1h0a23.43,23.43,0,0,0-14.6,13.19c-.34-.11-.69-.21-1-.3-9.87-2.57-16.58,5-17.23,5.81A16.49,16.49,0,0,0,7.88,52.25,16.67,16.67,0,0,0,24.55,68.92H51.21a23.33,23.33,0,0,0,1.52-46.61ZM51.21,62.25H24.55a10,10,0,1,1,10-10h6.66a16.49,16.49,0,0,0-5.6-12.37,16.64,16.64,0,1,1,15.6,22.37Z"/></g></g></svg>