<svg xmlns="http://www.w3.org/2000/svg" viewBox="0 0 512.84 639.9"><defs><style>.cls-1{fill:#fff;}</style></defs><g id="Layer_2" data-name="Layer 2"><g id="Layer_1-2" data-name="Layer 1"><path class="cls-1" d="M110.87,477.69a1.2,1.2,0,0,1,0,.38l0,0,0,.22a.11.11,0,0,1,0,.05.79.79,0,0,1,.15-.12l0,0A1.89,1.89,0,0,0,110.87,477.69Z"/><path class="cls-1" d="M200.12,520.73c-1.93-4.5-6.85-6.64-8.43-11.39-.27-.79-2.05-.92-2.57.78-.35,1.17-.88,2.29-2,5-1.54-8.22-8.89-9.52-12.31-14.7-.67-1-2.56-1.1-2.69,1.08-.07,1.2-.09,2.33-1.33,3-2.24-1.87-3.21-5-6.32-6.85.26,3.08,2.58,4.21,3.56,6.13.81,1.58,2.08,3.51-.2,4.69-1.73.89-4,1.17-5.38-.84a31.52,31.52,0,0,1-4-7.75c-.79-2.33,1.16-1.73,1.94-2.35a22,22,0,0,1-7.3-3.51c.29,2.39,2,2.91,2.64,4.19s.73,2.82-1.4,2.66c-5-.37-11.15-3.11-10.31-9.2.15-1.05,1.68-2.8-.35-3.32-1.61-.41-1.11,2.15-2.67,3.09.64-4.93-2.9-6.45-5.8-8.47,0,2.45,2.67,3.93,2.35,6.5h0c-.44,2.69-3,1.73-3.66,1.22a13.32,13.32,0,0,1-5.73-9.22c-.16-1.38.88-1.55,1.91-1.66-.71-2.34-2.51-3.29-4.7-3.74-1.89-5-9.09-2.64-11-7.85-.15,1.32-.29,2.64-.5,4.61a38.6,38.6,0,0,1-3.24-5,14.65,14.65,0,0,0-6.42-6.78c-.27,2.24,1.76,3,2.87,4.26.94,1.1,1.56,2.16.63,3.46-1,1.48-2.28,1.23-3.84.53-3.46-1.55-4.65-3.9-3.13-7.39a39,39,0,0,1,2.38-4.08c-3.06-1.91-1.72,2.68-3.52,2.36C96.34,453.79,93,447.4,87,442.69L84,450c-1.63-6.17-3.27-10.84-6-15.4-2.43-4.13-3.06-.95-4.77.14.39-4.7-1.22-7.79-4.73-10.44-6.23-4.71-9.68-11.42-12.53-18.63a19.66,19.66,0,0,0-6.42-8.48c-5.78-4.11-9.08-10-12.14-15.83-2.87-5.5-5-11.47-7.58-17.11-3.08-6.7-8.34-12.27-10.41-19.68-1.06-3.79-1.1-8.39-5.47-10.67-.48-.26-.37-1.52-.7-2.24-2.08-4.53-.43-9.43-1.54-14.14-2.17-9.19-2.23-18.75-2-28,.21-7.9,1.63-15.92,2.47-23.88.76-7.31,3.17-14.23,4.84-21.27,1.45-6.15,3.67-12,2.72-18.48-.89,2.18-3.66,2.36-4.42,4.4-2,5.32-3.91,10.65-5.74,16-3.31,9.72-4.41,20-6,30-1.86,12-5.31,24.1-2.34,36.48a1.2,1.2,0,0,1,0,.5c-3.17,11.38.38,22.73.5,34.09.06,5.38,2,11,1.43,16.55-1,9.89,2.89,18.77,5,28h0a4.58,4.58,0,0,0,3.12,4.87c1.6-2.43-1.59-3.13-1.9-4.87h0c2.76,2.74,6.51,4,9.69,6.18-3.27,3.37-5.28.05-7.66-1.07,1.11,4.19,2.36,8.3,6.56,10.56,1.15,3.65.84,7.92,4.2,10.63,2.17,1.76,2.94,4.2,4.08,6.55,1.65,3.44.33,7.93,3.22,10.66a93.57,93.57,0,0,1,11,12.89c1.94,2.61,2.64,4.06-.21,6.14,3.68,1,7.35,2.11,6.66,6.41-.79,4.94,5.26,4.37,5.67,8,.47,4.07,4.6,9.54,8.63,9.73A6.11,6.11,0,0,1,67,482.36c.87,1.65,2.39,2.27,3.63,3.1,2.61,1.74,7.31,1.38,5.82,6.69-.05.14.38.57.64.64,5.85,1.56,8.81,8.29,16,8.26-2.33,1.16-5.09,1.72-1.41,3.8,1.41.8,2.57,2.07,4,2.78,5.17,2.55,10.18,5.2,12.52,11,.7,1.71,2.24,2.19,4,2.15-1.86-4.81,2.64-3.2,4.21-3.61,1.38-.36,3.49.76,4.85,1.8,5.23,4,11.19,5,17.5,4.92,1.17,0,2.36-.08,3,1.48-3.69.83-7.34,1.83-11.05,2.45-5,.82-8.85-2.43-13.1-4.16a4.57,4.57,0,0,0-2.23-.73c1.48,4.17,6,3.14,8.85,5.26,6.8,5.14,13.58,10.51,21.09,14.39,6.76,3.5,13.69,8.61,22.31,5.35.26-.1.64.11,1,.18-1.78,5.67-1.27,6.89,2.88,5.58,3.69-1.17,6.7-.15,9.91.83,4.76,1.47,9.43-1.31,12-5.68a24.9,24.9,0,0,0,3.93-14.6,5.08,5.08,0,0,1,3-4.61C200.37,526.67,201.46,523.83,200.12,520.73Zm-14.65-4.64c1,.91.67,2.07.35,3.43a2.16,2.16,0,0,1-1.53-2.95C184.37,516.3,185.33,516,185.47,516.09Zm-13.66-10.28c1.56-1.09,1-2.89,1.83-4.63.57,1.1,1,1.92,1.4,2.73l.06.28c-1.24,4.91,2.9,5.86,6,7.59-1.29-3.07-5.46-4-5.85-7.75,3.37,2.42,7.07,4.46,9,8.44.35.71,1.33,1.37.44,2.08s-1.69-.58-2.56-.83c-4.26-.15-6.33-4.29-10-5.51A1.32,1.32,0,0,1,171.81,505.81Zm3.27,11c-1.85-2.48-5.2-3.44-6.6-6.6,8.69.78,12.75,7.32,17.34,13.26-1.55,1.06-2.54-.12-3.66-.59-.61-1.88-2.56-2-3.93-2.92-.1,2.67,2,2.48,3.56,2.9l.28.08c.07,1.69-.26,2-2.27,1.38-7.32-2.36-12.54-6.73-15.09-14.47C168.78,511.49,170.26,516.74,175.08,516.78Zm-17.79,19.11c-.06-.16.56-.6.86-.92l.26,0c4.44,1.73,9.24,1.83,13.8,3a4.4,4.4,0,0,0,5.81,0l.09,0c1-.07,2.61.25,1.71,1.37C175.26,545.06,160.1,542.66,157.29,535.89Zm7.46,7.84c-7.1.9-11.7-5-17.92-5.27,4.21-2.59,8-2,11.15,1.8C159.65,542.26,162.41,542,164.75,543.73Zm7.3-5.91c-4.12-3-9-2.73-13.7-3,6.84-4.84,14.21-3.73,19.63,3Zm-2.44-7.24c2.75-2.61,3.43-.25,4,2Zm-2.51-1.75c-5.34-.69-7.2-5.42-10.13-8.83-1.19-1.37,1-1.56,1.43-1.69a10,10,0,0,1,8.49.92c2.31,1.48,4.49,3.16,6.86,4.85-.66,1.33-2.27.59-3.12,1.37C171.19,528.39,169.75,529.18,167.1,528.83Zm-1.45-13.08c-9.5,2-16.33-3-22.68-10C155,499.23,160.16,506.67,165.65,515.75Zm-40.32-16.53c-5.66,3.78-13.27,1.41-20.79-6.69,10.17-4.43,17.41.72,24.49,6.45-6.32-4.14-14-3.4-20.88-5.8C113.31,496.83,120.2,495.52,125.33,499.22ZM94.66,486.07c-2.88-1.07-2.47-3.58-3.31-5.51-.5-1.16.57-1.74,1.74-1.6,8.15,1,16.17,2.34,22.34,9.52A39.92,39.92,0,0,1,94.66,486.07Zm6.55,5.95c-4.29,3.09-8.08,1.5-12.33-1,2.19-1.55,4-2.95,6.51-3.1,1.8-.11,1.53,0,1.85,2.13S100.13,489.89,101.21,492ZM82.75,473.44h0l9.86,1.84a10.17,10.17,0,0,0-9.75-1.87l-.15,0h0c-.73.43-1.56.75-2.15-.06s0-1.18.66-1.47a13.86,13.86,0,0,1,2.22-1c4.08-.92,15.27,2.86,18.14,6.06-7.82,2.55-15,1.18-18.84-3.58Zm-3.51-6.61c-.9-1.48-1.77-3-3.88-2.89.77,1.73,1.89,3,4,3,1.17,1,2.09,2.91,4,1h0c.6.11,1.5-.25,1.63.65.25,1.66-1.15,1.36-2,1.26-5.71-.69-11.43-1.45-13.88-7.91-.66-.78-2.46-.58-2.23-2,.19-1.06,1.47-1.18,2.48-1,5.41.76,9.93,3,12.81,7.87Zm67.37,44.57c-9.11,3.29-16.07.18-20.66-9.22C135.14,501.38,135.14,501.38,146.61,511.4Zm-1-11.08c.58.47,2.33.9.13,1.53-5.57,1.6-12.71-1.56-16.41-7.15C135.63,490.26,142.57,494,145.65,500.32ZM130,491.44c-2.33-.56-3-3.36-5.36-3.8-.29,2.36,2.59,2.69,3,4.59-4.33.72-10.89-3.35-11.83-7.41-.29-1.26.62-1.64,1.62-1.9C122.44,481.58,128.87,485.88,130,491.44Zm-14.66-19c.71-2.55,1.28-.11,1.85.38h0c-1.71,2.66.26,2.86,2.07,3.17.86,1.06.61,3.25,2.92,2.83-.82-1.15-.81-3.15-2.93-3l-.9-1.89h0c2.34.71,4.67,1.44,7,2.16-.13,1.78,1.46,3.27.85,5.13-1,3.11-1.11-1.36-1.86-.35l-.08.13C119,481.54,114,476.9,115.3,472.41ZM114,478.16c-1,.49-2.07-.69-3,0l4,3.45c-8,.52-10.45-5.39-14.54-9C107,469,109.23,469.92,114,478.16Zm-13.66-9.51c.64.78.19.94-.52,1.25-3.88,1.68-7.72,1.43-11-1-2.43-1.84-4.51-4.2-7.33-5.77,4.36-3.41,12.22-.85,17.18,5.27h-.09c-2-.19-3.88-1.16-5.91-1.15l-.44-.27.32.28-.61.05c1.93,2.2,4.27,1.94,6.7,1.1h0C99.39,467.85,99.91,468.08,100.38,468.65Zm-12.77-22.1c1-.64,2.54,1.42,3.24,2.58,2.72,4.54,5.17,9.24,8.08,14.55-8.82-.56-10.48-6.66-12.62-12.18C85.62,449.72,86.24,447.39,87.61,446.55Zm-.68,12.54c-3.4-2.74-6.68-4.72-11.17-3.88,2.75,1.35,5.75,1.15,7.83,3.39-7.15.62-7.89.26-10-5.38C77.68,455.86,84.77,450.56,86.93,459.09ZM73.74,437.23c.3-.33.88-.41,1.76-.8,1-.31,1,1.24,1.49,1.82,2.92,3.26,3.3,7.72,5,11.57,1.1,2.5-1.45,3.43-3.67,3C74.29,452,70.9,440.3,73.74,437.23Zm-1.7,19c-.36.81-1.47.81-2.18.44-2.53-1.35-5.31-2.54-6.48-5.42A23.75,23.75,0,0,0,60.15,446c-3.41-.67-1.68-1.91-.25-2.88,4.38-3,10.57,0,11.29,5.49a34.59,34.59,0,0,1,0,5.19L68.3,452c-.22,1.92,1.21,2.7,2.49,3.58.16-.54.33-1.08.49-1.62C72.54,454.38,72.39,455.49,72,456.28ZM47.31,432l5.9,6.87c.09,1.61-.17,3.4,2,4a4.79,4.79,0,0,0-1.91-3.89c-.82-3.36-2.32-6.15-6-7-.84-2.12-4.24.44-4.48-2.83,3.63,1.67,8.79-.43,11.15,4.33,1.6,3.25,4.12,6.49,2.41,10.58-1.55,1.94-2.7.68-4-.41-3.36-2.81-4.71-6.83-6.43-10.6C45.32,431.57,46.71,432.14,47.31,432Zm-16.88-20.5a16.49,16.49,0,0,1-8-8.51h0l3.88,1a14.33,14.33,0,0,0,4.95,4.84,5.64,5.64,0,0,0-4.94-4.93c-1.22-1.79-2.53-3.36-5-2.07h0c-1.28-1.69-1.28-1.69-.47-1.87,5.58-1.24,14,5.37,14.32,11.3-1-.26-1.38-1.84-2.71-1.28C33.49,412.74,31.77,412.18,30.43,411.47ZM7.71,377.79c4.13.47,7.4,1.65,9.56,5h0c-1.79.75-3.14-1-4.83-.85.88,2.64,3,1.94,4.88,1.79h0l3.47,3c-5.11.46-8.64-.76-11.64-3.57-1.66-1.56-.55-2.18,1.12-2.35Zm3-2.13c-4.27-1.82-5.75-5.57-4.55-12.13,1.47,3.87,7.48,4.87,6,10.85C11.73,376.09,11.77,376.12,10.68,375.66ZM14,369.5c.68.14,1.22.93,1.61,1.26.48,1-.09,1.06-.5,1.09-.8.08-1.72.11-1.72-1.05C13.39,370.33,13,369.29,14,369.5Zm-.25,3.75c6-.52,10.5,3,12.43,9.6-.84-.07-1.38-1.39-2.32-.65-.18.14.24,1.05.39,1.61C18.26,382.77,15.09,378.91,13.75,373.25ZM26.35,383c1.28.55,1.25,2,2.35,3.51-1.66-.27-2.69-.33-3.28-1.58h0C26.41,384.62,26.26,383.77,26.35,383Zm-2.68,4.8c6.56,1.09,9.94,5.65,13.25,10.29a1.25,1.25,0,0,1-.53,2c-1.83.61-1.34-2.32-3-2.19-.75.92,1.31,2.22-.23,2.84a3.93,3.93,0,0,1-4.43-1.33c-2-2.77-4.72-5.28-5.3-9l2.81.36C25.48,389.91,24.71,389,23.67,387.83Zm13.66,27c4.25,3.05,10.71,3.94,10.89,11-1-.62-1.94-1.24-2.9-1.87A6.15,6.15,0,0,0,42.39,421c-.26,2.21,1,2.88,2.86,3,.73,2.89,1,3.13,2.91,2l.07,0c1.54,1.12,1.18,1.71-.54,1.87-5,.46-7.64-3.32-10.31-6.35-1.79-2-2.29-5.19-3.52-8.2C35.56,413.65,36.67,413.71,37.33,414.8Zm17.89,14.11c.3,1.26.61,2.53.91,3.8-2.37-1.68-5.07-3.11-4.82-6.66ZM51.66,446.3c7.36-.17,9,6.51,12.89,10.46,1.26,1.28.37,1.72-.9,2.36-3.44,1.74-9.51-.32-10.95-4.61C51.85,452,50.22,449.1,51.66,446.3ZM63.3,422.79c6.52,3.09,10.32,11.51,7.75,17.46-.36.83-1.34.75-1.71-.36v0c2.22-2.07-.18-3.31-1-4.83-.62,1.75,1.06,3.09.91,4.76-6.15-4.71-6.89-6.48-8.07-18.71C62.33,421.06,62.81,421.94,63.3,422.79Zm1.91,16.54c-6.28,1.41-6.74,1.08-8.83-6.35,2,.12,1.41,3.41,4.2,3.29-1.76-2.72-2.74-5.55-5.27-7.36-1-3.25-1.83-3.93-3.89-3.05l-.1-.05c-1.73-.76-1-2.1-.78-3.31a23.91,23.91,0,0,1,2.53.78,14.68,14.68,0,0,1,7.8,9C61.81,434.91,62.83,437.38,65.21,439.33Zm-16-39.95c2.79,8.84,13.18,13.6,9.19,24.23C48.63,418.09,45.29,410.11,49.16,399.38Zm-.46,18.5c-7.12-1.16-10.24-5.81-12.58-11.4-.61-1.43-1.47-3-.36-4s3-.76,4.61,0C46.73,405.6,47.11,411.79,48.7,417.88ZM36.37,383.61c2.3,4.94,6.63,8.36,8.09,14.61-3.37-3-4.28-6.54-7.11-9.7.66,4.83,3.84,7.56,5.66,11.22C35.63,396.29,32.8,389.67,36.37,383.61Zm-6.12-15.44c-.2,6.53,6.75,10.54,2.06,18.12.84-5.56-2.94-8.86-2.26-13.28-2.6,4.44,2.43,8,1,12.35C26.53,381.06,26,375.6,30.25,368.17Zm-6.85-9.39c3.58,3.79,7.9,7.17,2,12.17A22,22,0,0,1,23.4,358.78Zm-1.59-4.21c.81.9.77,1.75.69,3-.33,5.32-.93,10.85,2.93,15.35.89,1,0,1.73-.27,2-1.12,1.26-1.65-.29-2-.83C19.61,369,18,361.41,21.81,354.57Zm-4.68-8.79c1.88,3.53,3.58,7.35.58,11.35-1.56-3.46,1.69-7.9-2.58-10.51C15.5,345.57,16.09,343.84,17.13,345.78Zm-1,12.86c-3.31-4.24-3.94-7.94-1.08-11.91C16.76,350.34,16.39,354.14,16.15,358.64Zm-1.77-19.15c1.89,3.08-2.05,5.24-1.7,8.26-1.43-3.45,1.65-7.65-2.1-10.52-.6-1.61-1.2-3.23-2.07-5.6C12.13,333.65,12.83,337,14.38,339.49Zm-6.79-4.78,2.86,2.44c.56,2.67,1.46,5.32.53,8.31C6,343.17,10.09,337.84,7.59,334.71ZM6.2,332.26a18.65,18.65,0,0,1,3.68-9.56C10.92,326.81,9.71,329.43,6.2,332.26Zm3.9-17.93c.1,1.75-1.46,3-.26,4.79s-.74,3-1.84,3.18c-1.75.31-1.65-1.47-1.67-2.74C6.28,317,7.16,315.06,10.1,314.33Zm-3.53-7.74c.51-1.07.54-2.68,2.75-3.14a28.35,28.35,0,0,1,0,3.73c-.17,1.2.75,2.71-.81,3.51-.27.15-.93-.19-1.27-.47A2.89,2.89,0,0,1,6.57,306.59ZM7,295.44a14.84,14.84,0,0,1-.32,7.28C5.39,299.24,5.39,299.24,7,295.44Zm1.49-16.19v-5.13C11.17,275.74,10.47,277.15,8.51,279.25Zm8.31-46C18.3,237,14.6,239,14.9,241.93,13.38,238.56,16.09,236.44,16.82,233.27Zm-4,11.75c.61,3.19.87,6.27-2.39,8.54C11.28,250.72,12.07,247.87,12.87,245Zm-1.8,18.51c.82,2.86-1.21,4.76-2,7C8.18,267.79,8.39,265.37,11.07,263.53Zm-2.58-8c2,3.84,2,3.84,0,7Zm-.71,37.19c-3.68-2.89-2.34-6.05-.86-9.55C9.52,286.28,7.74,289.56,7.78,292.67Zm-.85-20c.71,3.78.64,6.62-2.28,9.11C4,278.43,5,275.82,6.93,272.71Zm-2.4,38.07c-1.87-2.41-1.13-5-.8-8.88C6.6,305.65,3.36,308.23,4.53,310.78Zm-.3-17.72c-.2,3.08,1.12,5.53-1.36,7.59C1.53,298,2.78,296,4.23,293.06ZM2.46,316.88c.76-1.44.78-3.7,3.09-3.79.7,0,.8.87.66,1.84-3.79-.68.93,4.1-2.5,4A1.31,1.31,0,0,1,2.46,316.88ZM4,321.38c2.83,2.27,2.36,4.95.93,7.76C2.31,326.86,1,324.41,4,321.38Zm-.36,19.11c-.3-2.76-2.29-5.4-.61-9.06,2.29,2.74,2.67,5.45,3.48,8,.26.84,1.38,1.77-.11,2.35A2,2,0,0,1,3.68,340.49ZM5,344a13.85,13.85,0,0,1,6.76,5.87c.56.86,1,1.85.05,2.43-.29.18-1.38-1-2.13-1.6-1,1.68.81,2.53,1.26,3.77C5.35,354.9,3.43,351.6,5,344Zm5.12,13.87-2.53.23,6.69,5.7L16.42,366a4.73,4.73,0,0,0-1.35-2.9c-.49-.45-1-.9-1.45-1.37a8.75,8.75,0,0,0-1.44-1.41l0,0L10.92,359s0,0,0,0a2.8,2.8,0,0,1-.48-1c4,.91,6.06,4.08,7.54,7.37.94,2.08-1,.34-1.55.56-.52,2.31,1.67,2.75,3.89,4.18-5.92-1-7.55-2.44-15.11-12.58C7,356.82,8.59,356.19,10.11,357.88ZM5.93,375.94a3.83,3.83,0,0,1-.55-1.21c1.12.29,3.15-.15,2.71,1.38S6.58,376.63,5.93,375.94Zm.74,7.6c3,1.9,4.73,3.37,7.75,3.76C10.6,388.58,8.62,387.55,6.67,383.54Zm3,5.89c8.16-2.48,12,2.22,15.56,8.71C18.89,396.47,13.48,394.61,9.66,389.43Zm5.8,14a2.56,2.56,0,0,1-1-1.48c0-1.21,1.16-1.13,1.82-.89a10.61,10.61,0,0,1,6.44,5.92C19.62,405.71,18.87,402,15.46,403.39Zm5.92,4.95c-1.73.92-2.3-.36-3.18-.72C20.08,404.88,20,408.1,21.38,408.34Zm5.95,12.82c-1.81-2.38-3-5.26-5.9-6.76A2.12,2.12,0,0,1,20.8,411c1-1.24,2.22-2,3.37-.11-.62.17-1.85-.12-1.23.86.94,1.5,2.1,3.21,4.31,3.2.25,2.49,2.11,3.68,4,4.83-.11-2.61-2.18-3.64-3.93-4.91l-2.79-3.82c7.61,2.2,10.59,5.92,9,11.27,0,0,0,0,0,0-.06.21-.13.43-.21.65C30.84,424,28.92,423.25,27.33,421.16Zm1.14,4.59c.47-1.27,1.65-.75,2.54-.82,6.81-.53,9.21,1.39,10.93,9.19-4.78-1.29-8.93-2.45-12.31-5.38C28.73,428,28,427.05,28.47,425.75Zm7.09,12.36c-2.64-1.86-4.88-3.77-6-6.72C36,435.43,36,435.43,35.56,438.11Zm1.57-2.94c5,1.7,9.26,3.41,11.38,8.25.93,2.14,1.53,4.75.18,5.95-1.93,1.7-4.32-.07-6-1.62C39.21,444.53,37.84,440.3,37.13,435.17Zm7.48,18.15c1.23,0,2.08-2.6,3.62-.53-1.6,0-1.67.83-1,2A2,2,0,0,1,44.61,453.32ZM48.32,457c.74-.18,1.67,0,2-1a3.64,3.64,0,0,1,2.54,2.67C51,459.07,49.19,459.23,48.32,457Zm1.51,5.38c7.13-2.6,13-2.14,18.23,1.93a22.06,22.06,0,0,0-13.7-.62l10.67.48C58.19,468.21,54.42,467.57,49.83,462.39Zm12.32,13.55c-2.54.44-3.78-1.46-5.27-2.92-1.06-1-2.55-2.4-1.17-3.66,1.16-1.06,2.47.53,3.5,1.43h0c-.79,2.46-.27,3.13,3,3.93h0l1,.33c1.46-.23,2.94-.48,3.64,1.5C65.21,476.82,63.54,477.65,62.15,475.94Zm1-4.62c-2.19-2.51-1.42-4,1.61-4.35s6-.1,8.13,2.62c1.47.13,2.95.14,4.39.41,1,.19,2.08,1,1.22,2s1.24,2.21-.63,2.88S64.54,472.91,63.16,471.32ZM71,482c-1.33-1.36-2.62-3.49-1.54-5.33s3.1,0,4.3.41c3.12.94,6.24-.94,9.33.75,3.56,1.95,7.71,3.05,7.85,8.75l-2.93-1.78c-.94,1.3.81,1.61.6,2.56-.19.12-.52.42-.64.36-3.26-1.88-7-.31-10.5-1.69A17.87,17.87,0,0,1,71,482Zm18.87,13.66c-1.32,1.56-2.77,1.56-4.3.27-2.39-2-4.82-3.95-8.38-4.37,4.5-3.33,10.83-2.07,13.32,2.15C91.21,494.86,90.35,495.16,89.91,495.69Zm.66,1.63c6-4.39,12.71-3.35,19.21,2.84C102.78,504.36,97,499.36,90.57,497.32Zm7.7,9.55c-2.13-.16-4.45-1.05-4.1-3.28.48-3.08,2.84-1.64,4.61-.89,1.34.57,3-.37,4.22.77.34,1.69-2.52,1.63-1.93,3.4C100.14,506.88,99.2,506.94,98.27,506.87Zm2.49,1.78c-.21-.25.28-1.12.47-1.73,5-3.49,10.43-5.88,16.81-5.05,1.29.17,2.65-.18,3.67,1s4,1.3,3.33,3.71-3.16,1.31-4.65,1.16c-2.77-.28-4.71,1.12-6.75,2.38C109.77,512.52,103.58,511.92,100.76,508.65Zm8.07,7.3c-.56-.49-1.47-1-1.08-1.91.33-.78,1.23-.88,2-1.19,3.36-1.36,6.24.7,9.34,1.11C117.43,516.06,110.56,517.45,108.83,516Zm10.49-2,0,0-2.41-2.82a8,8,0,0,1,4.08-1.3c8.59-.32,14.27,3.68,17.68,11.8C130.59,522.82,124.67,519.13,119.32,514Zm19.55,2.61c-1,.36-1.52-.11-1.62-1.12s.38-1.6,1.39-1.54c5,.29,10.37-2.39,14.91,3C148.51,516.16,143.7,514.91,138.87,516.6Zm2.15,4.61c-.76-.77-2.13-1.41-1.6-2.8s2-1.33,3.3-1.57c8.25-1.49,12,4.66,16.24,9.68.81,1,1.3,2.2,3.06,2.75-3.3,2.09-5.55,2-8.27,0C149.73,526.27,144.66,524.86,141,521.21Zm-2.58,14.65a12.48,12.48,0,0,1-2.19-1c-1.88-1.48-5.59-2.18-5.32-4.46.35-2.9,3.83-1,5.86-1.56,3-.85,6-3.06,9.17-.88,2.72,1.89,6.41,2.52,8.58,6.61C148.77,535,143.91,538.58,138.44,535.86Zm26.1,11c-5,1.09-15.41-2.78-18.24-7-.16-.24.28-.89.44-1.35h0c6,3,11.41,7.7,18.89,6C166.24,545.69,166.21,546.5,164.54,546.87Zm1.21-2.45c2.19-1,4.47-.48,7.45-.37C170.39,547.29,168,544.44,165.75,544.42Zm26.47-.94c-5.22.24-9.71,2.74-14.42,4.57h0a31.5,31.5,0,0,1-3.88,1.29,64.08,64.08,0,0,0,18.59-5.88h.09a0,0,0,0,0,0,0l0,0c-3.61,8.9-4.84,9.57-14.3,7.54-3.15-.68-5.95,1-9,1.32,2.82-6.78,14.29-13,20.84-11.21.75.21,3.31-.08,2.48,2.35Zm-.63-4.71c-6.64.92-11.72-2.23-16-7a48.75,48.75,0,0,1-3.44-4.92,65.68,65.68,0,0,0,8.08,0c7-.89,10.76,4,14.31,8.48C196.61,537.86,193.19,538.54,191.59,538.77Zm4.51-8a1.25,1.25,0,0,1-.09-.25c0-.13,0-.26,0-.39,1.26-4.94-.35-9.26-2.87-13.38-.44-.86-.37-1.92-1-2.71,0,1,0,2,0,3,.95,4.7.22,9.88,3.87,13.8v.07c-1.75.23-1.76.22-4-2.58-2.81-3.53-4.45-7.51-3.81-12,.26-1.81.8-4.68,3.89-2.2a39.79,39.79,0,0,1,5.11,6.92C199.4,524.75,198.85,527.81,196.1,530.78Z"/><path class="cls-1" d="M145.62,500.3h-.07c-4.6-1.44-8.29-5.41-15-5.28,3.6,1.36,5.94,2,8.08,3.12s3.86,3.7,6.83,2.22l.19,0s0,0,0,0l0,0Z"/><path class="cls-1" d="M124.59,487.55l0,0-.21,0,.08.08,0,0,.09,0s0-.08,0-.12Z"/><path class="cls-1" d="M72.86,469.59h0c0,.08,0,.12,0,.18a7.53,7.53,0,0,1-4-.24c1.2,2.6,3.89,1.35,6.61,3.1-1.28-1.52-1.87-2.23-2.4-2.87h0a1.58,1.58,0,0,0-.12-.15Z"/><path class="cls-1" d="M9.75,350.56l-.24,0,.1.09,0,0,0,0,.07-.14Z"/><path class="cls-1" d="M402.23,479.33a2.46,2.46,0,0,1,0-.28.23.23,0,0,0-.07.07.75.75,0,0,1,0-.21,2.51,2.51,0,0,0,0,.27h0v0l0,0,.12.07Z"/><path class="cls-1" d="M414.83,469.29a4.68,4.68,0,0,0,6.16-1l.27,0h0l.15-.25,7.66-3.8c-4.18.41-5.68,1-7.08,2.92v0h0l-.38.25c-.53.35-1,.71-1.58,1l0,0-5.18.77-.23,0,0,0h0l-.12.14Z"/><path class="cls-1" d="M512.7,300.64a12.46,12.46,0,0,0-.47-3.89c-1.77-8.73-2.1-17.68-4.37-26.37-1.64-6.29-1.41-13.1-3.35-19.25-2.68-8.51-4-17.91-12-25,.77,4,.15,7,.87,10.22,2,9,5,17.77,6.71,26.9,1.24,6.79,1.58,13.64,2.57,20.43.88,6.12.29,12.4.3,18.6,0,7.81-2.32,15.31-2.16,23.07.09,4.63-.36,9-4.32,12.18-.75.59-.75,1.17-1,2-2.11,7.08-3.67,15-8.6,20.25-6,6.39-6.28,14.9-10.8,21.74-3.08,4.65-5.49,9.81-9.44,13.84-4.37,4.45-8.54,8.79-11.07,14.8-1.91,4.5-3.63,9.49-8.16,12.59s-8.29,6.52-7.68,13.18c-1.79-1.28-2.14-4.6-4.63-.43-2.76,4.61-4.19,9.52-6.25,15.31-1.13-2.95-1.9-4.94-2.79-7.27-5.84,5.15-9.48,11.26-12.72,17.78l-3.05-5c-2.65,6.64-7.83,11.11-10.85,17.29-1.06-1.7.21-3.47-1.31-4.55-8.31,8.44-22.92,9.44-27.17,24.37.22-3.9-2.08-4.71-3.43-6.3-3.95,3.57-9.23,5.37-12.34,10.86-.21-2.5-.33-4-.52-6.4-4.09,5.47-9.22,8.81-12.26,14.11-2.41-1.63-.46-5.77-4.39-6.33.15,1.82,0,3.81-1.81,4.74a22.8,22.8,0,0,0-10.3,10.62c-2.25-1.47-1.2-5.12-3.32-5.3-2.6-.22-1.75,3.52-3.45,4.83-.39.31-.68.74-1.06,1.06-4.94,4.13-7.1,9.15-5.07,15.54a4.49,4.49,0,0,1,2.81,4.17,24.64,24.64,0,0,0,4,14.63c3.22,5.1,6.15,7.18,12.28,5.8,2.47-.55,4.86-2.33,7.56-1.2,2.08.87,4.53,1.45,6-.06s-1.19-3.18-1.11-5.27c1.09,0,2.4-.37,3.36.05,8.47,3.68,14.51-2.84,20.68-6a81.72,81.72,0,0,0,18.78-12.55c3.22-3,8.54-2,10.46-6.51-3.21,1.39-6.53,2.57-9.6,4.2-4,2.13-7.7-.17-11.46-.55a30.2,30.2,0,0,1-5.42-1c1-2.43,3-1.62,4.57-1.7,5.41-.28,10.53-1.1,15.15-4.45,2.65-1.93,5.83-3.17,9.51-1.65,2.53,1,.5,2,.41,3,1.94,0,3.52-.63,4.2-2.58,1.91-5.52,6.88-7.64,11.39-10.19,1.7-1,3.31-2,4.95-3.09,3.52-2.3.89-2.71-1.53-3.89,5.43.25,8.44-3.17,11.52-5.85,1.7-1.47,5.54-1,5.11-3.5-.74-4.32,2.27-4.26,4.58-5.62,5.07-3,9.3-7.06,14.83-9.74,4.72-2.28,5-10.16,10.25-13.43a1.19,1.19,0,0,0,.43-.83c.77-5.93.76-5.93,5.61-7.42.53-1.78-3.69-2.16-1.33-4.36,4.29-4,5.78-10.24,11.22-13.39,2.39-1.39,3.13-4,3.3-7.07.2-3.4,1.24-7.32,3.76-9.62,3.87-3.52,4.86-7.94,5.83-12.56,4.19-2.27,5.44-6.39,6.57-10.57-2.39,1.11-4.4,4.44-7.67,1.07,3.19-2.18,6.93-3.44,9.69-6.18a1.85,1.85,0,0,1-.36,1.86c-.69.93-1.87,1.68-1.49,3a4.59,4.59,0,0,0,3.08-4.86c1.74-5.64,4.33-11.53,4.5-17,.44-15,2-29.92,3.26-44.86C513.47,321,511.41,310.79,512.7,300.64ZM509,295c1.28,2,2.38,4.06,1.24,6.6C507.53,299.76,509.27,297.16,509,295Zm.15,8.1c.76,3.69.68,6.23-.41,8.7C509.69,309.23,506.48,306.65,509.19,303.1Zm-2.83-28.64c1.42,2.56,2.59,5.09,2.14,8.29C505.33,280.47,505.54,277.5,506.36,274.46Zm-1,20c-.82-3.91-1.08-7,.48-10.88C507.71,287.56,508.86,290.72,505.35,294.47Zm-1.59,8.83c2.4,3.17,4,5.08,2.29,7.69a2.52,2.52,0,0,1-1.61.66C503,309.39,504,307,503.76,303.3Zm2.91.15c-1.48-2.42-.59-4.49-.67-6.44C507,298.84,508.64,300.64,506.67,303.45Zm-2.3-46.58v6.39C502.61,261.42,501.87,259.59,504.37,256.87Zm-6-13.66c-.61-1.57-1.11-2.85-1.6-4.13s-1.61-2.49-.46-4.64C497,237.5,499.66,239.62,498.38,243.21Zm.45,3.21L500,246q1.32,4.22,2.66,8.45C498.79,252.58,500.39,249,498.83,246.42ZM502,264.55a5.26,5.26,0,0,1,2,6.95C502.89,269.2,501.2,267.25,502,264.55Zm2.42,10.67a6.54,6.54,0,0,1,0,4.47C502.12,278.15,502.08,276.74,504.39,275.22Zm-1.14,44.86c1.23-1.73-.5-3-.23-4.65,2.8.43,3.64,2.31,3.69,4.68,0,1.33.5,3.4-1.7,3.16C504,323.15,502,321.85,503.25,320.08Zm-1,26.51c-1.19-3-.16-5.75.41-8.47l2.7-2.34C503.11,338.93,506.85,343.8,502.23,346.59Zm4.56-14c-3.93-2.81-4.11-3.22-3.69-8.9A18.07,18.07,0,0,1,506.79,332.54Zm-2.62.67c-.55,1.66-1.11,3.34-1.67,5-3.79,2.87-.66,7.09-1.8,10.48C496.2,342.38,499.49,337.64,504.17,333.21Zm-7.25,26.43c-.25-4.49-.61-8.29,1.06-11.89C500.87,351.71,500.22,355.41,496.92,359.64ZM496,346.71c1-1.86,1.59-.13,1.91.92-4.19,2.55-1,6.9-2.46,10.22C492.18,354,494.12,350.17,496,346.71Zm9.56,31.91-2.76,3.19c1.6.18,2.78.67,1.17,2.34-2.6,2.68-6,3.57-9.57,3.73-.62,0-1.51,0-1.42-.86.17-1.56,2-1.32,2.78-2.27,1.9.15,4,.86,4.88-1.79-1.35-.14-2.48,1-3.79,1h0a2.43,2.43,0,0,1-1-.19C497.9,380.44,501.24,379.44,505.55,378.62Zm1.47-15.5c1.74,6.69.42,10.78-4.41,13.36-1.86,1-1.12.17-1.57-1.32C499.21,369.12,505.7,368.41,507,363.12Zm-8.87,9.76c-.18-.08-.9-.32-.9-.41a2.68,2.68,0,0,1,1.85-2c.7-.22.55.54.6.91C499.83,372.33,499.43,372.9,498.15,372.88Zm.71,1.19c-.84,6.28-3.15,8.75-10.05,10.74.15-.56.57-1.47.39-1.61-.95-.75-1.48.62-2.33.67C488.72,377.51,493,374,498.86,374.07Zm-12.1,30.79a5.65,5.65,0,0,0-4.95,4.94,14.11,14.11,0,0,0,5-4.84l2.29-.59,1.59-.41a16.49,16.49,0,0,1-8,8.51c-1.37.73-3,1.23-2-1.51-1.22-.32-1.92.54-2.75,2.12.37-6.77,8.86-13.59,14.34-12.05,2.47.7.19,1.27-.45,1.77C489.29,401.53,488,403.07,486.76,404.86Zm-21,28c-3.72.88-5.2,3.68-6,7.05a4.72,4.72,0,0,0-1.91,3.88c2.19-.55,1.92-2.34,2-4l5.86-6.82,0,0c.47.06,1.3.08,1.31.19.3,3-5.56,11.84-8.36,12.67a1.55,1.55,0,0,1-2-.88c-1.56-6.47,2.91-13.33,9.14-14.05,1.53-.17,3.06-.43,4.57-.65C469.87,433,466.66,430.84,465.77,432.86Zm-10.5,27.25c-2.56,1.35-5.15,1.22-6.75-.55s1.65-2.55,2.13-4.05c1.69-5.27,5.75-7.38,10.73-8.35C462.15,453.48,460.05,457.58,455.27,460.11Zm2.58-30.21,2.54-1.85,1.38-1c.24,3.55-2.46,5-4.84,6.66.14-.56.27-1.12.41-1.68Zm10.89-1.5c-2.57,1.29-4,.61-3.9-1.39l.05,0c2.5,1.68,2.6-.35,2.94-2,1.83-.14,3.1-.81,2.84-3a6.11,6.11,0,0,0-2.93,2.94L466,426.05l-1.13.72c0-3.28,1.29-5.82,4.47-7,2.46-.9,3.66-3.7,6.44-4,.65-1.09,1.77-1.15,3.08-1.4C477.69,420.83,474.44,425.55,468.74,428.4Zm11.15-26.6c-1.53-.62.52-1.92-.23-2.84-1.65-.13-1.41,3.15-2.94,2.13-2.44-1.61.38-2.69,1-3.84a16.83,16.83,0,0,1,11.69-8.5c-1.09,1.27-1.86,2.17-2.64,3.06a3.51,3.51,0,0,0,2.89-.86c-.66,4.24-3.33,6.75-5.38,9.53A4,4,0,0,1,479.89,401.8ZM486.71,384c.1.74,0,1.59.94,1.92-.41,1.3-1.68,1.06-2.77,1.67C485,386,485.42,384.79,486.71,384Zm4.75-28.72c3,6.95,2.55,13.45-1.37,19.65-.38.61-1,2.09-2.1,1.16-.53-.45-.67-1.3.2-2.61,2.93-4.36,2.93-9.62,2.42-14.72C490.49,357.61,490.26,356.66,491.46,355.32Zm-1.84,4.53a21.86,21.86,0,0,1-2.07,12.38C484.71,367.1,484.71,367.1,489.62,359.85Zm-6.91,9.34c4.31,7,3.88,12.46-.64,17.28-1.62-4.37,3.58-7.91.73-13.41.66,5.35-2.88,8.67-1.94,14.31C475.93,379.79,483.2,375.7,482.71,369.19Zm-6.24,15c3.67,6.31,1.47,11.84-6.21,16.94,1.35-4.07,4.64-6.67,5.61-12.07l-7,10.78C469.61,392.86,474.79,389.87,476.47,384.18Zm-3.91,19.37c1.63-.77,3.43-1.17,4.62-.19,1.49,1.21.3,2.93-.35,4.43-2.33,5.39-5.46,9.91-11.87,11.09C464.71,412.22,468.08,405.66,472.56,403.55Zm-8.8-3a24,24,0,0,1,1.28,4c-2.79,2.15-2.06,4.21-2.18,6,.61-1.64,1.22-3.27,2.22-5.88,1.76,8.13-1.79,14.6-10.35,20C450.9,414.17,461.06,409.26,463.76,400.54ZM460,424.28a23.38,23.38,0,0,1,2.54-.78c.17,1.21.94,2.55-.78,3.31l-.1.05c-2.07-.9-2.9-.21-3.9,3.06a13.84,13.84,0,0,0-4.83,7.68c2.23-.48,1.69-3.37,3.8-3.62-.05,2.54-1.72,4.42-2.84,6.48-1.78,3.29-3.7-1.1-5.68.14a23.13,23.13,0,0,0,4-7.34A14.54,14.54,0,0,1,460,424.28Zm-10.23-.48c.49-.86,1-1.72,2.33-1.74-.5,7.3-1.26,14.38-8.24,18.74a2.25,2.25,0,0,1,0-.69h0c.25-1.39,1.45-2.62.81-4.15-.73,1.57-3.23,2.86-1,4.91v0c-.38,1.12-1.36,1.2-1.72.37C439.44,435.31,443.24,426.88,449.76,423.8Zm-8,31.18c.18.54.36,1.08.53,1.62a11,11,0,0,0,1.81-1.45h0a2.42,2.42,0,0,0,.57-2.19l-2.8,1.79c.09-2.53-.59-5.09.79-7.57,2.31-4.14,7.46-5.69,10.84-2.94,1.36,1.11,2.33,2.43-.61,2.72-3,3.37-3.75,8.67-8.85,10.33-1.14.37-2.25,1.09-3,0A1.43,1.43,0,0,1,441.78,455Zm-11.73,15.87c-.81.1-2.21.4-2-1.26.14-.9,1-.54,1.63-.65,1.4,1.4,2.27.79,3.09,0,.31-.31.61-.66.93-.94,2.07,0,3.2-1.3,4-3-2.11-.11-3,1.41-3.88,2.89l-2.95,0c2.87-4.89,7.39-7.11,12.8-7.87,1-.14,2.3,0,2.48,1,.24,1.4-1.56,1.2-2.23,2C441.48,469.4,435.76,470.16,430.05,470.85Zm2.37,3.63c-.42.74-1.43.39-2.2.17-2.09,3.72-5.33,4.73-9.46,4.31-3-.31-6.12-.06-9.52-.06,3.23-4.47,15.25-8.4,19.39-6.55C431.32,472.66,433.45,472.63,432.42,474.48Zm-.76-25.18c1.44-3.08,2.37-6.4,3.9-9.43.38-.74.64-2.62,2.57-2.2,2.21.48,1.61,2.12,1.68,3.51,0,.83,0,1.66,0,3a9.15,9.15,0,0,1-3.15,8.44c-1.58,1.41-3.18,1.9-4.87.64C430.27,452.13,431,450.79,431.66,449.3Zm-.08,5.6c2.58-.16,5.23.59,7.82-1.23-1.17,5.89-2.2,6.48-10,6,2.09-2.28,5-2.18,8.37-3.6-5-.41-8.24.87-11,3.81C427.54,455.84,428.26,455.11,431.58,454.9Zm-6.51-7.6c4,6.69-.67,14.86-10.91,17.66C418,458.4,419.6,451.73,425.07,447.3Zm-10.56,21.84c4.82-5.74,12.2-8.23,17.38-5.36-4.46,1.92-6.5,6.55-11.19,7.77a10.2,10.2,0,0,1-7.13-.62c-.51-.23-1.48,0-1.07-1A1.44,1.44,0,0,1,414.51,469.14Zm-8.73-2.65c1.53-1.65,3-3.36,4.48-5a1,1,0,0,0,0,.24,0,0,0,0,0,0,0,.82.82,0,0,0,0,.22.81.81,0,0,0,0,.22c-.45,2.61-2.07,4.76-3,7.18,2.8-1.92,4.6-4.22,3.08-7.83,0,0,0-.06,0-.09v0l0,0A6.35,6.35,0,0,1,410,460c0-.19.38-.38.58-.57,1.06,2.15,2.63,4.08,2.31,6.74s-2.42,3.3-4.24,4.32a2.29,2.29,0,0,1-3.11-.54C404.47,468.76,404.72,467.62,405.78,466.49Zm6.76,7.13c-4,3.74-6.63,9.36-13.54,9.22.06-2.39,2.38-2.26,3.1-3.59-1-.59-2-.15-3.44.57C403.79,470.92,406,470,412.54,473.62Zm7.31,6.35c1.53-.18,2.42.61,1.85,2-.83,2-.77,4.39-3.6,5.34-6.53,2.19-13.06,3.47-20.6,2.13C403.94,482.53,411.75,480.89,419.85,480Zm4.23,12c-6.47,3.66-6.66,3.68-12.07.94.33-1.43,1.52-.83,2.38-1,.48-.09,1.15.08,1.43-.18C419,488.78,419,488.76,424.08,492Zm-40,8c7-5.67,14.26-10.9,24.13-6.58-6,7.75-13.89,10.46-20.83,7.09,5.23-4.11,12.35-2.52,17.63-6.27C398.16,496.36,390.5,495.83,384.11,500Zm3,3.26c-4.78,9.47-11.63,12.49-20.66,9.11C372,506.14,377.93,501.05,387.12,503.24Zm7.64-28.3-.9,1.88c-2.14-.21-2.1,1.83-2.94,3,2.3.43,2.05-1.77,2.92-2.82a14.93,14.93,0,0,0,1.48-.29c1.15-.32,1.83-1,.6-2.88.57-.48,1.09-3,1.85-.36,1.06,3.59-3.57,9.9-8.28,8.74a4,4,0,0,1-.72-.23c-.78-.95-1.28,3.42-1.77.26C386.12,476.44,390.83,476,394.76,474.94Zm-6.66,10.47c2.46-1.37,5.47-2.31,8.45-1.18a1.13,1.13,0,0,1,.47,2c-3.25,3.44-5.64,8.2-11.59,7.6,0-2.38,3.33-2.68,3.06-5.1-2.22.45-3.11,2.75-5.52,4.09C382.88,488.66,385.65,486.78,388.1,485.41Zm-12.67,5,.18,0c5.28.52,4.4-5.62,7.84-7.08-4.12.75-4.59,5.44-7.93,7.05h-.08c.92-5.12,3.95-8.15,9-9.41.58,6.62-4.26,12.19-9.11,10.61a.43.43,0,0,1-.22-.37A6.72,6.72,0,0,1,375.43,490.44Zm8.26,5.24c-3.65,5.59-10.76,8.73-16.38,7.18-2.21-.61-.51-1.07.11-1.54l0,0,.17,0c1.4.73,2.61.43,4-.37,3.07-1.72,6.31-3.15,10.38-5.14-6.13.16-9.89,4-14.48,5.46h-.06C370.58,494.93,377.37,491.3,383.69,495.68Zm-26.5,3.74c2.57-3.58,5.22-7.28,9.59-8.71,2.81-.92,1.68,1.85,2.12,2.72,0,5-6.95,10-11,8.4A1.49,1.49,0,0,1,357.19,499.42Zm12.87,7.28c-6.15,7-12.89,12.12-22.57,10C352.67,508,358,500.18,370.06,506.7Zm-14.94,31.46c-6,6.86-14.16,6.72-21.47,2.38-1.69-1,.15-1.57,1.31-1.57H335a4.41,4.41,0,0,0,5.85,0c4.56-1.15,9.36-1.24,13.79-3l.24,0h0C356.42,536.57,355.83,537.35,355.12,538.16Zm11.18,1.3c-4,1.16-8.07,2-11.54,4.45-1.88,1.35-3.91,1-6,.49C355,544,358.42,534,366.3,539.46ZM354,535.87c-4.49.2-9.06.06-13,3h-5.93c5.42-6.72,12.79-7.84,19.64-3Zm-14.53-2.29c.64-2,1-4.6,4.1-2.1Zm3-7.06-3.52-1.22c4.64-2.65,7.9-7.11,13.82-6.48,1.41.15,3,.58,3.5,1.39s-1.26,1.66-1.75,2.63c-1.73,3.43-4.22,5.89-8,6.83C343.73,530.35,342,529.8,342.45,526.52Zm2.38-21.19c2-2.58,2.95-6.15,7.07-7.15-.08,4.89-4.38,6.69-5.81,10.17,3.45-2.44,6.77-4.92,7.41-9.56,1,3.26-1.49,9.67-3.94,10.75a4.45,4.45,0,0,1-4.7-.31C343.4,508,343.81,506.66,344.83,505.33ZM345,511c-1.38,1.52-2.46,2.55-3.35,3.73s-3.21,1.13-3.65,3.06c4.82,0,6.29-5.29,10.36-7-2.55,7.74-7.77,12.11-15.09,14.47-2,.66-2.33.31-2.27-1.38l.28-.08c1.61-.42,3.66-.23,3.56-2.9-1.36.91-3.32,1-3.93,2.92-1.12.47-2.1,1.65-3.63.6C331.72,518.47,335.89,512.2,345,511Zm-16.16,2.48c1.95-4,5.64-6,9-8.43a4.72,4.72,0,0,1-.43,1.56c-1.19,2.52-4.34,3.58-5.43,6.18,4.68-1.8,6.86-4.59,6-7.62a2.21,2.21,0,0,1,0-.25c.34-.73.69-1.45,1.27-2.66.86,2.3,2.58,5.78,2.19,6-3.43,2.23-6.09,5.88-10.52,6.44-.88.24-1.53,1.65-2.56.84S328.48,514.18,328.83,513.47Zm-1,3.6a.92.92,0,0,1,.81.33c.67,1.48.21,2.53-1.36,3.13C327.11,519.3,326.23,518,327.82,517.07Zm-10.77,14.8v-.07c3.68-3.94,2.92-9.13,3.8-13.87-2.5,4.18-2.19,9.15-3.8,13.58a1.43,1.43,0,0,1-.09.27c-3.09-3.15-3.33-6.59-.9-10.24,1.66-2.5,2.76-5.5,5.85-6.77,1.88-2.07,2,.22,2.46,1.09,2.58,4.94-2.78,14.46-6.43,16.88C317.87,532.79,317.35,532.17,317.05,531.87Zm1,6.16c-.48-1.25,5.57-8.07,8.07-9.12,4.72-2,9.74-.37,15.16-1.5-3.54,4.75-6.26,9-11.31,11C325.45,540.31,319,540.38,318.07,538Zm13.42,14.7c-6.38,1-7.84-.44-11-8.31l0,.05h.07a69.06,69.06,0,0,0,18.57,6c-5.66-2.41-11.45-4.48-17.27-6.48-.34-.12-.84.25-1.28.45h-.08c.39-2.66,2.4-2.48,4.36-2.55,7.13-.26,16.3,5.16,19.1,11.77C339.69,551.68,335.71,552.05,331.49,552.73Zm8.16-7.59c3.12-.27,5.41-.63,7.69.28C345.06,545.45,342.79,548.12,339.65,545.14Zm27-3.84c-5.15,3.64-10.22,7.53-17.16,6.6-1.6-.21-3.17-.14-2.09-2.45h0c7.48,1.73,12.94-2.92,18.9-6l0,0h0C366.48,540.11,366.89,541.15,366.67,541.3Zm8.19-11.92c.62.18,1.25.36,1.88.49,1.85.38,4.78-1.06,5.37,1.11.75,2.75-2.77,3.29-4.44,4.36-3.73,2.41-7.95,3.52-12.49,1.61-1.88-.8-4-1-6.5-1.57C363.47,529.2,368.48,527.45,374.86,529.38Zm-4.72-5.4c-4.75,3-9.75,5.63-14.65,8.4-1.74-.16-2.73-1.22-3.91-1.75.66-.64,1.61-1.17,1.91-1.94,1.22-3.2,4.2-5,6.12-7.63A8.88,8.88,0,0,1,368,517.9c2,.25,4.87-1.11,5.59,1.66C374.09,521.62,371.65,523,370.14,524Zm-10.6-6.09c4.35-5.47,9.94-2.71,15-2.94,1,0,1.38.65,1.29,1.62-.07.78-.52,1.37-1.23,1.11C369.63,515.84,364.69,517.18,359.54,517.89ZM393.75,515l0,0c-5.29,5.15-11.24,8.73-19.06,7.72,3.94-8.8,9.05-12.2,17.44-11.87a7.8,7.8,0,0,1,4.07,1.31c-.8.94-1.61,1.87-2.42,2.8Zm10.49,2c-1.72,1.51-8.6.12-10.27-2,3.1-.42,6-2.48,9.34-1.11.77.31,1.66.4,2,1.18C405.71,516,404.8,516.45,404.24,516.94ZM401,512.3c-3.4-2.43-6.7-3.92-10.86-3.45-.89.1-2.08.26-2.24-1.22-.13-1.13.55-1.79,1.32-2.49,4.18-3.79,13.92-2.64,18.58.26,1.33.83,2.65,1.68,4,2.52C411.51,511.48,404.45,514.74,401,512.3ZM417,507.08c-1.3,1.54-3.27.62-5,.77.26-1.58-1.77-2-2.24-3.21,2-1.36,4.1-.4,5.89-1.54a2.19,2.19,0,0,1,3.46,1.45C419.63,506.57,417.67,506.27,417,507.08Zm-13.6-6c6.29-6.08,13-7.15,19-2.91C416.19,500.17,410.69,505.64,403.37,501.09ZM428.74,496c-2.31,2.6-4.71,2.63-6.74-.86,4.21-2.1,7.28-8.45,13.62-2.93C433.22,493.56,430.56,494,428.74,496Zm14.73-15.56c-2.16,5.36-7,6.67-12.12,7.44-1.92.29-4-.6-5.78.65-.62.43-1.06.42-1.18-.59-.18-1.56-.27-1.55-2.6-.22,2.31-6.89,7.64-10.09,14.19-9.32a10.27,10.27,0,0,0,5.09-.7C445.16,475.91,444,479.1,443.47,480.45Zm-5.36-4.74c-.66.18-3.47,2.41-3.6-1.71-.11-3.28,1.19-3.09,3.26-3.12a20.63,20.63,0,0,0,2.35-.28c.84-2.59,3.5-2,5.26-2.53,1.92-.6,5.37-.85,5.6,1.69s-2.14,4.81-5.1,5.07A43.63,43.63,0,0,0,438.11,475.71Zm18.05-1.66c-1.48,1.52-2.83,3.27-5.31,3-1.45,1.76-3.09.54-4.89.75,1.33-2.52,3.2-1.79,4.9-1.7l-.1-.33c2.25-.36,4.72-.54,3.09-3.94,1-.88,2.34-2.51,3.51-1.41C458.74,471.66,457.19,473,456.16,474.05Zm-7.6-8.28c3.42-1.82,7-.12,11-1.5-5.51-.63-10.06-1-14.5,1.06,5.62-4.93,11.89-3.74,18.28-2.25C459.2,468.45,455.56,469.17,448.56,465.77Zm11.68-6a3.83,3.83,0,0,1,2.44-2.77c.33,1,1.21.92,2,1C463.94,460.33,462.11,460,460.24,459.72Zm5.59-3.93c-.07-.8,0-1.67-1-2,1.53-2.08,2.38.52,3.61.53A2,2,0,0,1,465.83,455.79Zm5.61-8.13c-1.78,2.19-4.55,4.63-7,2.71-2-1.54-.82-5,.75-7.21,1.75-2.42,3.53-5,7-5.46,1.07-.14,2.06-.93,3.63-1.68A19.09,19.09,0,0,1,471.44,447.66Zm6-8.27c-2.34-6.93,4.45-4.46,5.9-7.17C482.64,435.46,480.05,437,477.41,439.39Zm5.81-9.46c-3.44,2.79-7.46,4.15-12.24,5.06,1.91-8.88,5.82-9.67,10.88-9.06,1,.12,2.43-.59,2.83,1.1C485,428.37,484.1,429.22,483.22,429.93Zm9.31-15.68c-4.62,2.62-5.48,9.25-11.3,10.49a1.26,1.26,0,0,1-1.56-.78c-1.89-5.76,1-9.62,8.87-11.89l-1.22,1.66-1.57,2.16c-1.75,1.27-3.81,2.3-3.94,4.9h0c1.91-1.15,3.76-2.33,4-4.82,2.21,0,3.37-1.71,4.32-3.21.61-1-.63-.69-1.25-.85.87-1.63,2-1.14,3.07-.26C492.84,412.37,493.16,413.9,492.53,414.25Zm-.92-5c1.43-.12,1.33-3.57,3.23-.65C494,409,493.39,410.26,491.61,409.29Zm4.9-7.25c.59-.28,1.72-.44,2.05.64a1.71,1.71,0,0,1-1.14,1.87c-3.52-2-3.88,2.72-6.7,2.95C491.69,404.44,494.11,403.19,496.51,402Zm-8.74-2.69c3.63-6.66,7.4-11.37,15.5-9C499.77,395.84,494.07,397.24,487.77,399.35Zm11.68-10.72,6.6-3.62C504.56,388.55,502.59,389.44,499.45,388.63Zm6.37-10.88a.76.76,0,0,1-.83-1.2,4.81,4.81,0,0,1,2-1.17c.1-.05.47.54.85,1A7.81,7.81,0,0,1,505.82,377.75Zm-12-6.12c.21-2.26,3.72-2.19,2.82-4.66-.55-.23-2.5,1.52-1.56-.56,1.5-3.27,3.55-6.47,7.54-7.37a2.8,2.8,0,0,1-.48,1s0,0,0,0c-.39.41-.79.81-1.21,1.21l-.05,0a9.3,9.3,0,0,0-1.45,1.42,3,3,0,0,0-.64,2.1l6.7-5.7-2.56-.24c1.32-1.86,3-.68,5.19-.64C504,363.74,500.67,369.21,493.83,371.63Zm14.64-20.35c-.86,2.39-2.11,5.54-5.4,4.43-2-.69,1.84-2.44.41-4-.76.57-2.05,1.74-2.2,1.61-1.08-1-.24-1.83.33-2.83,1.5-2.64,3.76-4.24,6.69-5.68A10.48,10.48,0,0,1,508.47,351.28Zm1-10.07a2,2,0,0,1-2.59,1.62c-2.13-.54-.58-1.64-.31-2.56.75-2.53,1.07-5.25,3.39-7.7C511.75,336,509.66,338.52,509.51,341.21Zm-1.35-11c-1.5-2.71-2.05-5.39,1-7.95C511.83,325.39,510.81,328,508.16,330.19Zm1-10.3c-.95-.06-1.89-.85-1.16-1.38,2.53-1.85-3.6-2.79-.33-4.53,2.05.6,2.33,2.53,2.93,4.07C511,319,510.6,320,509.18,319.89Z"/><path class="cls-1" d="M343.14,526.55h0c4.65.21,6.67-4.64,10.68-5.62-4.57.27-7.51,3.64-11.2,5.56l-.19,0a.09.09,0,0,1,0,0l.1,0Z"/><path class="cls-1" d="M160.55,497.42l-.08.08h0Z"/><path class="cls-1" d="M200.25,529.63v.09h.05c0-.05,0-.09.07-.14Z"/><path class="cls-1" d="M428.67,553c-.29-4.67-2.79-7.34-8.23-8.6a94.9,94.9,0,0,0-11.31-2.15c-8.81-.91-17.83-1.23-26,3.55-3.26,1.91-5.77,4.17-5.33,8.59.35,3.46,0,7,.09,10.48.1,4.37.47,7.05-6,8.53-12.24,2.8-24,7.87-36.35,10.72-7.92,1.83-15.7,3.92-23.84,4.91-9.22,1.11-18.4,2.72-27.65,3.69-8.33.87-16.68,1.92-25,2-10.6.08-21.19-.88-31.78-1.62A331.88,331.88,0,0,1,178.12,586c-11.21-2.49-22.31-5.31-33.42-8.16-3.62-.93-6.17-2.43-5.62-7,.42-3.45.09-7,.09-10.48,0-6.83-4.57-12.89-11.33-13.35-8.76-.6-17.35-3.52-26.37-1.33-4.78,1.16-10.1,4.12-11,8.91-2,10.41-3.66,20.9-5.12,31.4-.39,2.85-1,6.11.53,8.78a35.4,35.4,0,0,0,13,12.59c15.44,9,32.95,12.87,49.74,18.49,4.4,1.48,9.11,1.26,13.43,2.49,7.5,2.13,15.17,3.09,22.78,4.42,6.1,1.08,12.58.85,18.36,2.8,10.79,3.62,21.88,1.92,32.76,2.79,5.19.41,10.68-.67,15.91.92a10,10,0,0,0,4.87.44c7.79-1.59,15.65-2.11,26.81-1.78,10.35.72,23.48-2.57,36.72-4.78,11.69-1.94,23.38-3.6,34.86-7.06,9.13-2.75,18.33-5.39,27.42-8.28,14.2-4.5,28.11-9.77,41.27-16.94,5.42-3,10.78-8.72,10-13C431.7,576.37,429.4,564.84,428.67,553Zm-40.29-5c7.36-4,15.38-1.93,23.12-1.65a16.32,16.32,0,0,1,9.56,3c1.48,1.12,2.09,2.09,1.65,3.54-.49,1.61-1.63,3-3.53,2.92-2.11-.15-1.07-2-1.34-3.12-.91-3.74-3.71-4.73-7-4.77q-7.71-.1-15.42,0c-5.35.08-6.73,2.58-4.12,8-3.61-.35-7.81,1.34-8.89-2.51C381.23,549.34,386,549.28,388.38,548Zm26.26,4c-.09,1.06-.93,1.59-2,1.88-5.17,1.41-10.46,1.23-15.7.84-1.5-.11-4.05-.75-3.8-3.05.24-2.14,2.43-1.74,4.05-1.76h6.48v-.14c3,.15,6,.16,8.91.55C413.19,550.36,414.76,550.64,414.64,552Zm-25,6.87c6.23-.09,12.47.47,18.71-.82a22.23,22.23,0,0,0,7.27-2.44c-3.17,4.12-7.85,5.72-12.4,7.59-5.86,2.42-12.58,2.33-17.95,6.41-1.47,1.12-3.24.54-3.42-2.3C381.28,558.87,381.14,559,389.6,558.84Zm-253.43-1.52c0,4.95-.13,9.25,0,13.55.12,2.89-1.11,3.53-3.56,2.74-9.77-3.1-19.44-6.45-28.24-12.28,5.45,1,10.87,2,16.43,1.58S131.91,562.63,136.17,557.32ZM104.89,557a4.14,4.14,0,0,1,3.64-4c4.39-.35,8.77-.24,12.92,1.61,1.38.61,2.89,1.13,2.66,3-.26,2-2.19.79-3.13,1.41-2,1.3-4.13.72-6.22.89-2.26-.09-4.5.15-6.71-.89C106.84,558.43,104.8,558.36,104.89,557Zm-8.49-3.25c1.33-4,5.22-3.4,8.67-4,8.14-1.52,16-.5,23.88,1.11,2.78.56,5,2.1,4.86,4.53-.18,2.87-3.46,3.5-5.85,4.43-.8.31-1.88-.11-1.68-1.16,1.23-6.3-4-6.47-7.54-7.31a23.7,23.7,0,0,0-11.35-.15c-3.77,1-6.28,4.29-5.45,9.25C100.05,558,95,558.11,96.4,553.76Zm324.85,41.36a83.1,83.1,0,0,1-16.95,9.28,371.72,371.72,0,0,1-42.18,14.76C348.7,623,335.17,626.42,321.2,628c-11.19,1.23-22.27,4.31-33.45,4.57-14,.34-28,3-42.06.53-5.16-.9-10.62-.12-15.94-.2-26.63-.42-52.69-4.71-78.45-11.35-14.85-3.83-29.15-9.14-43.44-14.6-6.7-2.56-11.73-7.28-16.24-12.53-1.88-2.19-2.41-5.45-2.32-8.34.25-7.86,2.56-15.38,4.3-23,.5-2.17,2.05-1.74,3.21-.9,12,8.7,26.12,13.05,39.95,17.21,16.58,5,33,11,50.3,13.27,12.33,1.58,24.68,3.33,37,4.79,10.29,1.23,20.6.75,30.86,2.07,6.9.88,14.27-.41,21.21-1.81,5.54-1.12,11.11-1,16.62-1.57,14.8-1.55,29.59-3.18,43.76-7.67,13.28-4.22,26.76-7.76,39.81-12.9,7.35-2.89,15.67-4,23.23-6.79,8.66-3.18,17.67-5.85,25-11.85.84,8.81,1.49,17.62,3.15,26.33C428.82,588.82,425.3,592.15,421.25,595.12Z"/><path class="cls-1" d="M207.16,499.26c-.24,1.44,0,2.85,1.92,2.58,1.41-.2,3.61,1.12,3.95-1.59.73-5.86,1.62-11.71,1.95-17.59.2-3.32.82-4.81,4.29-3.17,1.21.57,3,1,3.45-.33a2.78,2.78,0,0,0-2.09-3.37,18.14,18.14,0,0,0-2.25-.85,172.23,172.23,0,0,1-22.79-5c-2.31-.64-3.53-1.52-3.58-4.3-.11-6.73-9-12.17-15.34-9.75-1.15.44-2.48.75-2.27,2.09.26,1.63,1.9,1,2.88.9,5.37-.37,8.94,2.09,12,8-24.14-6.8-43.87-19.26-63.26-33.57,4.34-1.14,7.2.69,9.69,2.75s4.39,4.6,6.84,7.25c1-2.92.78-4.82-1.13-6.74-4.83-4.84-10.17-8.24-17.36-7.69-2.28.18-4.65.44-6.31-1.9a2.25,2.25,0,0,0-3.48-.52c-1.44,1.16-1.4,2.52-.12,3.86,1.68,1.76,1,2.57-.76,4.17-4.15,3.76-7.72,8.16-11.58,12.25-1.57,1.66-2.5,3.25-.15,4.94s4,.77,5.57-1.5c3.85-5.57,9.53-9.55,13.38-15.72,3.45,5.32,8.52,7.8,12.9,11.13.9.68,1.92,1.23,2.78,2,1,.85,1.44,2.16.39,3s-2-.34-2.27-1.19c-1.15-3.17-4.35-3.21-6.66-4.55-3.61-2.09-6.66-1.09-9,2.14s-1.66,6.07.88,8.87c2.75,3,5.72,5.55,10.45,5.81a30.05,30.05,0,0,1-4.44,4.39c-1,.91-2,1.85-.51,3.26,1.27,1.21,2.46,2.42,4.24.94a12.09,12.09,0,0,0,2.11-2.12c3-4.24,6.27-8.37,8.91-12.85,2.44-4.13,4.61-4.8,7.53-.76-.63,1.2-1.89,1.09-2.91,1.54-5.42,2.44-6,5.73-1.76,9.8,1.14,1.09,1.16,1.9.53,2.92-1,1.62,0,2.59.65,4,2,4.42,5.49,4.32,9.7,3a19,19,0,0,1-1.45,3.06c-1.31,1.78-2.89,3.35,0,5.23,3.08,2,4.1-.08,5.14-2.31,1.84-4,3.42-8.07,5.55-11.87,1.16-2.07,2.31-5.14,4.88-5.2,2.17-.05,4.39,1.73,6.58,2.69-1.25,1.72-2.46,3.48-3.76,5.15A11.93,11.93,0,0,1,165.7,476c-3.45,1.37-3.18,3.28-.56,5.34,4.62,3.63,9.53,6.16,16.1,3.4-.78,2.7-1.42,4.66-1.9,6.66s-.56,3.85,1.89,4.36,3.49-.43,4-3.07c1-5.42,2.58-10.73,3.9-16.09.48-1.94.86-4.33,3.55-3.63,6.18,1.61,12.28,3.56,18.4,5.37a4.65,4.65,0,0,1-5.43.87,16.86,16.86,0,0,0-7.18-1.39,6.34,6.34,0,0,0-6.16,4.77c-.94,3.19,1.32,5.64,3.53,6.94s5,3.14,8.22,2.38c3.86-.89,4.54,1.4,4,4.53C207.86,497.42,207.32,498.31,207.16,499.26Zm-75.88-42.07c-3.15,2.16-4.89-1.47-7.21-2.3-1.64-.59-2.86-3.61-1.29-6,.59-.89,1.32-1.95,2.68-1.92,1.05.05,8.7,6.63,8.34,7.32A8.19,8.19,0,0,1,131.28,457.19ZM151.78,473a4.41,4.41,0,0,1-4.38-2.61c-.94-1.91.68-3.09,2-4,1-.67,2.18-1,1.64-2.5s-1.53-.49-2.73,0c-1.56.26-3.53-.27-4-2.12-.56-2.48,2.31-2,3.4-3,5.2-4.67,8.31.21,12.14,2.07a1.92,1.92,0,0,1,1.25,1.81C161.46,465.75,154.87,472.87,151.78,473Zm32.93.61c-1.23,2.65.92,7.72-4.88,7.48-.88,0-1.79.66-2.6,1a38.19,38.19,0,0,1-4.35-1.3c-1.17-.5-2.95-1.18-3.12-2.05-.29-1.47,1.3-2.24,2.67-2.9s2.91-1.4,3.49-2.55c1.46-3,3.27-4.12,6-1.88C182.86,472.14,185.86,471.08,184.71,473.56Zm21,14.26c-3.08.3-5.62-.09-7.37-2.4-.6-.79.25-1.49.79-2.08,2.21-2.45,4.61-1.29,7.13-.53,2.1.62,4,1.66,3.62,3.81C209.44,489.2,206.85,487.22,205.73,487.82Z"/><path class="cls-1" d="M312.92,530.9H313l0-.09-.11-.05A.69.69,0,0,1,312.92,530.9Z"/><path class="cls-1" d="M305.71,533c-4.37,3.56-9.65,4.7-15,4.83a78.79,78.79,0,0,0-25.47,4.41c-3.37,1.24-7.06,2.77-10.52,1.42-10.57-4.13-21.31-6.73-32.74-6.86-5.11,0-10.24-1.27-14.51-4.7a9.79,9.79,0,0,0-7.2-2.33,21.41,21.41,0,0,0-2.18,12.3c.28,2.14-1,3.3-2.28,4.66-3,3.27-1.84,6.38,2.2,8.33,4.86,2.35,9.17-.1,12.32-2.31,9.94-7,20.57-5,31.25-4,1.12.1,2.38.1,3.14,1.78-5.71,2.38-8.91,8.85-15.86,9.56-1.16.12-1,1.62-.47,2.49,2,3.4,3.87,6.79,3.71,10.93a2.17,2.17,0,0,0,2.14,2.31c.92.09,2.3.48,2.61-.71,1.77-6.86,7.78-10.17,12.39-14.49,2.46-2.31,6-5.93,9.61-4,7.12,3.77,13.34,9,17,16.51.62,1.28,1,1.84,2.33,1.79,1.55-.05,2.69-.73,2.71-2.3a17.78,17.78,0,0,1,4.4-11.64c1.44-1.69.95-2.92-1.61-3.08-4.62-.29-8-3.44-11.77-5.62-.63-.37-.94-1.28-1.39-2,.66-.42,1.33-1.24,2-1.22,9.58.25,19.72-2.52,28.31,3.54,2.83,2,5.92,2.64,8.81,3.91A6.82,6.82,0,0,0,317.9,554c2.09-2.89,1-5.24-1.59-7.22a3.65,3.65,0,0,1-1.35-3.53,23.52,23.52,0,0,0-2-12.32A8.69,8.69,0,0,0,305.71,533ZM213.43,548.1A44.21,44.21,0,0,1,205,552c-3.46,1.12-6.29,1-9.3-2.47,4.78-1.45,5.5-4.92,5.38-8.87a17.06,17.06,0,0,1,.19-5c.52-1.87,1.17-3.83,3.87-1.35,3.59,3.29,8.08,4.65,13.07,4.6,11-.12,21.58,3.1,32.27,5.25a4.18,4.18,0,0,1,3.37,2.61c-2.71.58-4.54,1.8-8.13.77C235.14,544.51,224.11,542,213.43,548.1ZM283.54,560c-4.19,3.24-4.28,7.12-5,11.5A53.42,53.42,0,0,0,264.81,557c-.92-.69-3.57-1.46-1.73-3.6,1.29-1.5,2.17-3.21,5.12-1.16C272.61,555.31,276.24,560.21,283.54,560Zm28.4-17.62c0,3.66.86,6.75,5.18,8-3.62,5.14-7.67,3.16-11.53,1.6a35.91,35.91,0,0,1-8.64-4.55,7.21,7.21,0,0,0-4.54-1.61c-8.54,0-17.06-.17-25.48,2-9.68,2.48-27.85,15.91-32,24.38-1.46-3.14-.76-6.71-3.09-9.12-.71-.74-.1-.88.49-1.28,9-6,17.83-12.64,28.24-15.72,9-2.65,18.09-5,27.71-5.46,7.06-.32,14.89,0,20.61-6,1.75-1.87,2.12.54,2.58,1.42C312.52,538,311.91,540.23,311.94,542.36Z"/><path class="cls-1" d="M408.69,451.5c1.22-.8,2.42-1.65,3.39-2.31-.74-1.25-.88-1.56-1.08-1.82a144.09,144.09,0,0,0-18-19.59c-1.35-1.19-3,1.11-4.32,2s-.5,1.92.36,2.82c5.6,5.93,11.18,11.88,16.8,17.79C406.57,451.11,407.23,452.45,408.69,451.5Z"/><path class="cls-1" d="M271,471.74c-.07-2.45-1.61-2.95-3.65-2.84-2.19-.1-3.39.83-3.32,3.15s1.61,2.86,3.64,2.86C269.88,474.91,271.07,474.06,271,471.74Z"/><path class="cls-1" d="M166.78,507.25c-1.79-3.41-5.16-5.75-6.25-9.64C159.44,502.94,164,504.49,166.78,507.25Z"/><path class="cls-1" d="M160.49,497.5s0,.07,0,.11a1.25,1.25,0,0,1,0-.19Z"/><path class="cls-1" d="M145.53,491.36c.67,3.49,2.43,5.85,6.42,5.93C148.93,496.21,147.51,493.5,145.53,491.36Z"/><path class="cls-1" d="M11.4,396.86l-.07,0-.08.14Z"/><path class="cls-1" d="M61.52,276.86c5.51,2.39,10.9,5,16.86,6.07,1.63.29,3.31.8,2.47,2.69-.95,2.15-.4,4.25-.61,6.35-.34,3.5-2,5.49-5.65,6-3.38.47-6.68,1.47-10.06,1.91s-4.46,2.36-4.27,5.45a66.06,66.06,0,0,0,2.86,15.36c1.62,5.33,2.65,6,8,4.89A98.93,98.93,0,0,1,83.21,324c4.68-.35,5.7,3.64,7.39,6.77s-1.6,3.14-2.84,4c-4.62,3.33-9.37,6.52-14.29,9.38-2.1,1.23-2.21,2.23-1.18,4.09,3,5.4,5.31,11.2,9.13,16.08,2.4,3.07,5.19,6,9.53,2.35,1.62-1.34,3.67-2.13,5.39-3.37,3.88-2.78,6.57-2.76,9.72,1.71,4.45,6.31,4.8,6.91-1.1,11.7-2.3,1.87-4.29,4-6.65,5.9-2.73,2.15-4.26,5.2-1,8.71s6.36,7.21,9.69,10.56c7.35,7.4,7.66,7.1,14.85-.09,6-6,6-6,13.35-.41,1,.79,2.16,1.46,3.2,2.25,1.73,1.31,2,2.39.39,4.41-2.44,3.07-4.66,6.32-7.29,9.26-3.2,3.57-2.39,6.45,1.53,9.06,4.89,3.25,9.6,6.77,14.33,10.26,4.34,3.2,5.62,3,8.72-1.27,2.57-3.58,5.15-7.15,7.85-10.62.82-1.05,1.81-2.79,3.56-1,2.44,2.53,5.68,3.83,8.62,5.57,2.75,1.62,3,3.66,1.76,6.19-1.52,3-3.08,6.07-4.84,9-1.37,2.27-1.35,3.83,1.29,5,4.45,2,8.72,4.54,13.28,6.29,9.7,3.72,9.72,3.55,14.54-5.88,1.41-2.75,1.94-6.5,4.64-7.91,3.08-1.61,5.62,2.3,8.75,2.58s3.73,2,3.62,4.72c-.17,4-.05,8,0,12,0,3.63,1.92,5.48,5.45,5.53,5.83.08,11.66-.05,17.48.07,2,0,2.79-.49,3.34-2.52,1.33-4.86,3.32-9.54,4.52-14.43.63-2.58,1.91-2.89,4.12-3.16,5.24-.64,9,.73,10.67,6.2.94,3.11,2.37,6.07,3.29,9.18.79,2.66,2.32,3.63,5,3.74,5,.21,9.65-1.72,14.49-2.45,7.59-1.14,7.53-1.59,7.53-9.74s.94-9.08,8.92-12c3.16-1.15,4.89-1,6.82,2.13a71.63,71.63,0,0,0,5.54,7.43c2.12,2.6,4.6,6.15,8.94,3.73,5.12-2.86,10.06-6,15.17-8.92,2.72-1.53,4.08-3.42,2.46-6.39-2.11-3.87-3.33-8.26-6.93-11.5,3.39-2,6.9-3.51,9.75-5.84,2.24-1.83,3.27-1.18,4.81.51,3.78,4.16,8.25,7.52,12.73,10.89,1.93,1.45,3.11,1.18,4.68-.32,4.9-4.69,9.78-9.41,14.88-13.86,2.58-2.25,2-4.08.15-6.16-.89-1-1.87-1.9-2.81-2.84-7.35-7.36-7.27-7.29.14-14.64,2.7-2.68,5.06-3.48,8.49-1.19,3,2,6.38,3.31,9.59,4.94a3.89,3.89,0,0,0,4.76-.27c5.44-3.8,8.11-9.75,12.31-14.47,1.95-2.2,1.61-3.57-.31-5.39-3.62-3.44-7.11-7-10.6-10.6-.84-.85-2.54-1.77-.93-3.2,3.13-2.78,3-7.9,7.27-9.8.21-.09.61.18.89.33,5,2.72,11,7.11,15.45,5.59,4.59-1.57,6.09-9.07,8.45-14.25.4-.89,1.11-1.63,1.49-2.52,1.1-2.61,1.31-4.57-1.74-6.61-3.81-2.55-8.13-4.14-11.76-6.81-1.37-1-5.3-1.68-3.31-4.29,2.2-2.9,1.23-8.9,7.06-8.45,4.53.35,8.8-1.27,13.29-1.14,3.32.1,5.08-2,5.14-5.27q.14-6.24,0-12.49c-.08-4.14-2.45-6.31-6.43-6.07-3.22.19-6.17-.94-9.26-1.25-1.76-.18-3.8-.86-4.27-3.41-1.13-6.08.11-8.39,5.92-10.49,1.22-.44,2.32-1.27,3.55-1.66,10.52-3.39,10.52-3.37,10.52-13.76,0-13.2-.34-14-13.57-13.29-7.16.4-10.77-1.71-12.63-8.51-.74-2.68-.65-3.7,1.78-5a47.31,47.31,0,0,0,13-9.66c1.55-1.72,1.87-3.25.77-5.34-1.9-3.58-3.42-7.37-5.4-10.91-3.72-6.65-5.65-7.3-12.66-4.73a16.65,16.65,0,0,0-4,1.91c-4.36,3.09-7.21.59-9.4-2.77-1.37-2.1-3.24-3.71-4.75-5.86,4.52-2.69,7.62-6.87,11.4-10.31,1.57-1.42,2.12-3.15,1-4.88-3.79-5.93-7.35-12.06-12.7-16.82-1.24-1.1-3.18-2.77-4.15-2-3.24,2.57-7.57,3.52-10.26,6.39-1.8,1.91-3.73,3.37-5.5,2.4-4.11-2.26-8.34-4.71-10.69-9.11-.18-.33.82-1.28,1.26-1.95,2.5-3.82,4.86-7.73,7.52-11.44,1.59-2.21,1.16-3.76-.49-5.66-4.82-5.59-11.15-9.06-17.25-12.91-1.74-1.09-2.66-.17-3.69,1-3.67,4-7.42,8-11,12.09-1.32,1.52-2.75,1.86-4.11.67-2.16-1.89-4.84-2.72-7.21-4.14-2-1.18-3.31-2.42-1.47-5.12s2.74-5.94,4.4-8.75c1.78-3,.88-5.23-1.83-6.59-6.34-3.19-12.57-6.56-19.55-8.45-3.33-.89-4.38.15-5.71,2.59-2.56,4.71-5.33,9.3-8,13.93-.58,1-1.14,2.1-2.66,1.5-4.93-1.91-10-3.45-10.43-10.25-.21-3-1.69-5.89-2.18-9-.7-4.34.07-5.6,4.3-4.26a23.31,23.31,0,0,0,9.31.7c5.29-.45,7.5-5.24,4.52-9.52-1.28-1.84-.9-3.2.61-4.25,3.45-2.4,2.16-4.13-.21-6.54a14,14,0,0,1-3.56-14.82,81.38,81.38,0,0,0,2.84-9.82c1.14-6.23,1.36-12.66-2.41-18-1.68-2.41-2.13-3.93-.95-6.53,2.26-5,0-8.87-5.07-10.48-4.3-1.36-8.65-1.56-13-2.05-3.58-.39-8.93.42-10.17-3.83-1.65-5.64-2.94-2-4.66-.57-.38.32,0,1.64-1.06,1-.48-.29-.73-1-1-1.56-.68-1.22,1.64-2.12.46-3.41-1.78.52-2.21,3-4.21,2.93-1.16-3.68.22-6.37,3.25-8.09,4.21-2.39,7.89-.38,11.15,2.15,3,2.34-1,4.6-.51,7,3.17.75,5.25-1.26,7.29-3.09,1.25,1.27-1.72,2.61.26,3.53,2.65,1.22,3.93-1.56,5.75-2.38,1.72,1.48-1.57,3,.6,4.74,2.49-2.37,5.05-2.22,8.29-.65S304,27.41,307.78,27a5.36,5.36,0,0,0,5-4.12c.46-2,1.4-5-1.09-6.4a5.64,5.64,0,0,0-6.47.68c-3.68,2.95-7.46,1-10.87-.58-6.91-3.2-13.51-7.11-20.49-10.16-11.53-5-22.8,4.11-21.77,16.46a6.83,6.83,0,0,0,3.09,5.2c8.36,6.19,18.76,5.65,28,8.84,1.75.6,5.14-.84,5.17,1.36,0,2.41-3.51,2-5.59,2.67a3.63,3.63,0,0,1-1,0c-9.87-.06-19.5,1.7-29.05,3.89-.84.19-2.43-1.74-2.55.58s1.79,1.33,2.91,1.5a4.61,4.61,0,0,0,2.48,0c5.78-2.82,12.19-1.82,18.14-3.13,5.37-1.17,10.91.32,16.1-1.79A2.92,2.92,0,0,0,292,39.13c.05-1.42-.75-1.63-1.88-2.27-7.72-4.34-16.4-5-24.77-6.78-4.48-.94-11.07-5.45-11.24-8.86-.21-4.19,3-11.43,8.51-13.09,5.95-1.78,11.09.36,16.22,2.85,5.56,2.7,11,5.78,16.71,8.05,3.6,1.42,7.73,3.85,11.42-.43,1.28-1.48,2.68.11,3.45.71,1,.79.88,2.49,0,3.64-2,2.76-4.79,2.57-7.57,1.45-3-1.21-5.87-2.92-9-3.84s-6.42-4.49-9.88,1c.54-6.25-2.12-4.8-4.77-2.89-.5-5.09-2.25-6.8-7.6-8.43-4.58-1.4-11.91,1.79-13.19,6.54-.66,2.46-.32,5.29,1,5.8,2.66,1,6.21,4.18,7.6,3,3-2.62,3.08-.11,4.21,1.19a3.78,3.78,0,0,0,2.49,1c4.82.79,9.66,1,14.53,1.36,6.77.43,11.81,4,10.28,7.06-3.34,6.63,1.62,10.38,3,15.47,1.57,5.91.25,12.2-2.52,17.7-3.48,6.92-1.81,12.73,2.25,18.66,1.1,1.6,4,3.71.87,6.2-2.3,1.86-2.65,3.43-.67,6.2,1.71,2.4.47,5.32-2.74,6.11-2.63.64-5.8,1.66-7.76-1.19-1.48-2.15-2.69.47-4.31-.1a22.12,22.12,0,0,1,1.31-1.82c6.13-6.68,5.18-13.64-2.42-18.63a56.66,56.66,0,0,1-6.16-4.91A37.18,37.18,0,0,0,261.29,71c-5.41-1-9.39,2.12-13.58,4.68a25.11,25.11,0,0,1-3.55,1.69c-3.2,1.31-6.58.76-9.8.43-2.56-.27-.39-3.37-1.66-4.5-1.08-1-1.21-3-3.29-3.18,1.85,7.22,1.82,7.2-2.33,14.87-1.66,3.07-1.55,9-.49,9.14,4.27.52,4.12,3.34,4.95,6,1,3.08,1.11,5.31-3,6.11-2.91.57-5.66,1.46-8.42-.12-1.34-.76-3.37,2.84-3.72-.22-.24-2,0-2-1.76-1.25-1,.4-2,2.15-3.39.68-.15-1,.51-1.57,1.18-2.06,4.69-3.42,5.4-11.16,1.2-15.23-3.55-3.44-6.88-7.08-10.9-10.1-6.7-5-8.58-11.67-5.45-18.12a28.48,28.48,0,0,1,8.36-9.65c3.93-3.08,9.29-5.56,13.19-3.21,4.43,2.67,4.55.38,5.59-2.16,1.42,1.39-.09,3.56,1.52,5.31,2.87-3.59,5.8-2.12,8.76,0,1.1.79,1.67,2.91,3.39,2.14s.75-2.67,1-4.07c.12-.74-.25-1.71,1.14-2.11a7.66,7.66,0,0,0,2.19,1.58c2.22.62,4.4,3.92,6.5,1.58,1.45-1.6-.34-4.23-1.24-6.48-1.13-2.82-3.81-4.93-3.65-8.39.18-3.9-.89-7.62-1.74-11.41-.52-2.28,5-5.11,6.61-8.61a86.67,86.67,0,0,0,4-10.43c.44-1.4.81-2.93-2.38-2.36-4.3.77-7.62,2.27-9.91,5.79-1.84-3.34-3.46-6.69-8-6.28-3.77.34,1.16,3.31-1,4.15-3.28-3.94-7.12-6-12-4.92-1.06,2.11,2.65,2.6.34,5.14A11.77,11.77,0,0,0,213.29.49c-3.35-1.07-4,.77-2.95,2.7,2.18,4,.85,5.7-2.88,7-2.65.91-4.51,3.84-8.22,1.18-1.88-1.36-4.13,1.13-4,4a22,22,0,0,0,1.32,7.8c1.42,3.46,4.58,2.24,7,3.41-2.63.5-5.21.32-7.76.55-2.26.21-3.25,2.51-3.36,4.1-.08,1.23,1.93,1,3.13.29h0a12.67,12.67,0,0,1,2.49-.54c.83,0,.69.65.3,2.42-1,4.77,1.34,7.52,5.5,5.39,3.65-1.86,6.08.36,9,.75,2.33.31,2.81,2,.61,3.59-.92.67-2,1.18-2.92,1.8-6.39,4.08-13.88,7-16.19,15.39-.63,2.33-2,2.05-3,.35a9.76,9.76,0,0,0-5.74-4.94c-2.48-.8-1.63-2.33.42-3.17,1.75-.72,3.23-1.54,3-3.91a3.67,3.67,0,0,0-3.76-3.29c-3.57-.1-3.28-2.22-3.27-4.59,0-10.33,0-20.66,0-31,0-2.15-.14-4.3,1.19-6.21.68-1,1.4-2.15.31-3.12s-2.06.08-3.12.51c-8.37,3.41-10.67,10.6-11.29,18.57A67.6,67.6,0,0,0,171,40.07c.58,2.46,1.06,5.43-3.49,5.09-2-.15-3.73,1.93-4.06,3.75-.29,1.58,1.54,2.68,3.19,3.25,1,.36,2,.82,3,1.24-2,4.77.87,10.18-1.27,14.56s-.81,7.12,2.53,9.16c3.58,2.18,1.7,3.48.08,5.61-2.33,3.06-3.59-1.22-5.67-.43-.31,3.57,1.06,6.87,4.12,8.13,2.65,1.1,3.72,2.68,4.87,4.92,1.66,3.24,3.64,4.07,6.45.65,2.16-2.63,3.05-6.32,7-7.76,1.18-.43,3.12-3.41,1.89-6.3a5.74,5.74,0,0,0-1.72.82c-2.18,2.32-2.94-.89-4.4-1.27-.89-.23-.48-2.1.57-2.92,1.55-1.2,2.77-.43,3.88.77,1.3,1.42,2.9,2.45,4.14,4,2.53,3.2,5.78,5,9.92,2.69,3.07-1.7,5.6-.38,8,1.42,6.06,4.64,5.56,11.94-1.14,15.55-2,1.09-1.52,3.11-2.39,4.59,2.14.16,1,4,4,3.47,1.16-.19,2.93-.93,3.64,1.35,2.57,8.23-1.66,16.17-9.93,18.52-3.06.88-5.31.12-7-2.63-2.35-3.9-4.78-7.75-7.13-11.64-1-1.74-2.22-2.15-4.38-1.82-3.87.58-6.8,3.07-10.37,4.26-9.09,3-10.68,6.4-8.24,15.71.37,1.41.66,2.84,1.06,4.25.56,2,1.62,4.75-1.13,5.31-3.48.71-5.18,6.33-10.13,3.05s-7.9-8.42-13-11.38c-2-1.16-3.27-1-5.35-.08-4.31,2-6.15,6.71-10.43,8.64-4,1.82-5.06,5.06-3,8.88,2.35,4.27,4.62,8.72,7.76,12.38,2.17,2.54,1.62,3.53-.37,5.34-2.15,2-3.86,5.77-6,6-2.64.28-5.18-2.93-7.62-4.87-2-1.61-4.69-2.41-6.67-4-3.19-2.63-5.68-1.13-7.69,1.16a102.75,102.75,0,0,0-7.4,10c-5.16,7.62-5.09,7.93,1.39,14.23.71.69,1.42,1.4,2.19,2,6.15,5,6.15,5,2.73,11.73-.51,1-1,2.08-1.41,3.12-1,2.14-2,2.78-4.5,1.55-4.65-2.28-9.61-3.95-14.47-5.78-1.54-.59-3.05-1-4.05,1.18-2.75,6.06-5.85,12-8.45,18.09-.9,2.11-.53,4.22,2.28,5.68,5.89,3.07,11.48,6.71,16.95,10-1.24,3.29-2.59,6.27-3.47,9.39s-2.63,3.86-5.47,3.11c-3.45-.92-6.89-1.94-10.37-2.7s-6,0-6.9,4.11a104.59,104.59,0,0,1-4.46,15C57.75,273.52,57.9,275.29,61.52,276.86Zm155-230.93a1.11,1.11,0,0,1-1.34-1.49c.84-1.94.81-4.68,3.39-5.31,1.81-.44,1.34,1.33,1.48,2.19A3.94,3.94,0,0,1,216.52,45.93ZM195.58,31.44c-.9-2.43.25-3.37,2.53-3.42s4.62,0,7.18,0c-1.32,2.31-3.2,2.53-5,1.57C197.78,28.18,196.75,29.79,195.58,31.44ZM211.77,37c-2.92-1-5.79-3.37-8.93-.17a1.68,1.68,0,0,1-2.67-1.13c-.22-1.38-.13-2.8,1.35-3.42,1.94-.81,4-1.82,6-2,3.14-.23,4.35-2.2,6.11-5.51-2.65,1.63-3.27-2.83-6-.24-2.12,2-3.58-2.8-7.16-1.1-2.5,1.18-3.25-4-3.23-6.75,0-1.84.43-5,3.43-1.7,1,1.15,1.83.71,3,.15,3-1.44,5.62-3.55,8.92-4.76s1.48-4.64-.09-7.07c1.83-.69,3.46-.6,4.43,1.14.89,1.58,1.63,3.8,3.71,3.13s2.94-3,2.46-5.34c2.79-.45,3.78,1.85,5.15,2.91,4.76,3.7,5,3.82,6.46-2,2.05,2.33,3,5,4,8.23,2.72-2.37,5-4.51,7.41-6.39,1.28-1,3.17-1.89,4.51-.57,1.08,1-.59,2.29-1,3.43-2.35,6.38-5.78,11.89-12.8,14.63,2.91,1.5,5.29,3.51,5.13,6.18-.4,6.51.84,12.32,5.84,17.56-3.82-.83-8.86-4.14-12.68-8.16-.24,3.94,7.55,6.39,1.1,10-1.11-1.51-4.86-.59-5.46-2.9-.48-1.85,2.24-3.79,2.37-6.43-2.81,1.11-2.77,4.67-5.69,5.73-.25-1.89-.48-3.67-.72-5.44-1.12,1.9-3.15,3.26-2.34,5.58l-2.9.89c.22-1.7.58-3.33.64-5,.15-4.47-2.12-6.16-5.91-3.89A4.46,4.46,0,0,1,211.77,37ZM168.93,51.26c-1.25-.24-2.88-.83-2.49-2.45a3.28,3.28,0,0,1,2.69-1.65c4.62.63,3.82-2.45,4-5.22.59-7.47-2.95-14.47-2.11-22s3.6-13.7,10.24-18c-2.33,13.83-.65,27.53-1.2,41.15C180,46.39,182,46.88,184.48,47a2.46,2.46,0,0,1,2.38,1.5c.6,1.73-1.29,1.78-2.06,2.13C179.64,53,174.26,52.31,168.93,51.26Zm13.91,8.47c-4.12,1.75-8.3,1.09-12.46,1.2,0-.4,0-.8-.07-1.2Zm-12.47-3.57A17,17,0,0,1,181.89,56C178.08,57.58,174.22,56.8,170.37,56.16Zm12.5,7.6c-4.15,1.71-8.33,1.18-12.52.34C174.46,62.56,178.67,63.16,182.87,63.76Zm1.76,11.06c-4,6.89-4.07,6.85,1.51,11.36-2.36,1.72-4.38,3.44-5.49,6.46-1.38,3.77-3.94,3.8-5.42.11-1.42-3.52-6.1-3.24-7.06-7.09,1.19-.52,2.35-1,3.45-1.54,4.38-2.23,4.69-4.29,1.28-7.86-2-2.13-5.34-3.81-2.08-7.55,3.11-3.55,7-1,10.49-1.62,2.62-.44,3.05,2.19,3.65,3.91A5.16,5.16,0,0,1,184.63,74.82Zm8,6c-1.13-1.65-2.16-3.39-3.79-4.44-1.3-.85-1.26-1.28-1.18-2.87a49.73,49.73,0,0,0-1.11-11.5c-.21-1.16-.37-1.94.62-2.44,1.32-.66.83.92,1.36,1.34a12,12,0,0,1,5,9.21c.41,4.71,4.62,8.09,8.63,10.81.7.48,1.34.86,1.59,1.7C198.64,85.61,195.63,85.26,192.64,80.86Zm89.64,4.71a1.3,1.3,0,0,1,1.12.38c2.26,2.81,6.6,4.35,5.55,9,.78,4.55-3.14,6.08-5.26,8.67-.63.76-1.82.52-2.69-.17-1.26-1-.27-1.7.41-2.31,2.9-2.66,2.73-4.64-.64-7.05C278,92.12,279.22,86.69,282.28,85.57ZM263.84,74.09c5.35,1.65,10.44,3.83,14.15,8.36.87,1.06.93,1.65.21,3-3.75,6.73-3.33,8.5,2.12,12.74-2.55,7.82-8.54,7.63-14.92,6.5-.62-2,1.23-2.09,2-2.25,4.6-1,4.11-3.57,2.84-7-1.06-2.89-3.08-5.08-4.85-7.32-2.72-3.42-3.13-7.45-4.23-11.32C260.49,74.56,261.77,73.45,263.84,74.09Zm-32.12,18c-5.58.12-2.7-4.72-2.25-5.4,2-3.07,4.46-6.9,8.62-6.56,6.64.55,11.77-2.77,16.82-5.85,3-1.8,3.81-.33,3.87,1.46a27.74,27.74,0,0,0,7.7,18.47c1.91,2.09,2.79,5.42-2,6.82-1.89.55-5.72,1.54-3,5.46.27.38-.59,1.73-1.12,2.5-2.66,3.94-4.83,8.33-5.1,12.89-.3,4.83-2.37,5.63-6.43,5-4.85,1.41-6-1.76-6.88-5.69s-2-7.53-3-11.26a7.6,7.6,0,0,0-1.29-2.63c-3.94-4.89-3.9-4.87-3.8-11.86C233.9,94,233.46,92.08,231.72,92.11ZM67.07,267.87c3.65-10.11,3.41-10.19,15.07-7.87,7.56,1.51,7.46,1.48,10.12-5.54a141.13,141.13,0,0,1,5.95-13.85c1.29-2.55-.76-2.91-1.84-3.55C91,233.91,85.62,230.9,80.17,228c-2-1.09-3.91-1.6-1.37-4.36a14.23,14.23,0,0,0,3.26-6.52c.82-4.12,3-3.93,6-2.76,4.38,1.72,8.82,3.33,13.16,5.17,1.72.73,2.94.42,3.81-1,3.15-5.3,6.1-10.71,9.37-15.92,1.17-1.86.26-2.66-.83-3.73-3.91-3.86-7.61-8-11.8-11.48-1.84-1.53-1.82-2.29-.56-3.86,2.35-2.94,4.62-5.94,6.92-8.91,1.24-1.59,2.35-2,4-.26,3.66,3.81,8.29,6.38,12.57,9.38,1.51,1.06,3.76,2.51,5.16,0,2.69-4.79,8.07-6.9,10.9-11.6,1.42-2.36,1.83-3.8.09-6.11a103.71,103.71,0,0,1-8.12-12.77c-.87-1.59-1-2.16.17-3.52,7.57-8.53,7.5-8.55,15.84-.7,2.52,2.37,5.23,4.52,7.78,6.85s5.09.87,7-.87a56.67,56.67,0,0,1,11.28-7.81c2.24-1.23,2.69-2.26,1.69-4.66-1.3-3.12-1.59-6.7-3.06-9.71-2.14-4.36-.6-6.6,3.4-8.09.3-.12.54-.4.84-.54,7.87-3.89,7.73-3.81,12.12,3.87,1.76,3.09,4.28,5.76,6.5,8.59,1.18,1.52,2.77,1.64,4.47,1.07,4.93-1.63,9.83-3.38,14.8-4.87,5.2-1.55,4.44-6.25,5.51-10a9.4,9.4,0,0,0,0-2.49c0-8.68,1.54-9.88,10.24-8.4,1.5.26,2.52.8,2.7,2.36a26.68,26.68,0,0,0,2.86,8.29c1.41,3,.77,8.11,4,8.88,5,1.22,10.57.46,15.89.39,1.64,0,1.83-1.79,2.24-2.89,1.45-4,2.69-8,4-12,2.23-6.78,3.22-7.14,11.13-7.09,5.78,0,6.46,4.55,6.58,8,.18,5,3.56,8.85,3.44,13.75-.05,1.8,2,1.84,3.29,2.34,3.9,1.53,7.95,2.63,11.74,4.51s5.32-1.16,6.87-3.75c2.65-4.46,5.45-8.86,7.8-13.48C315,119,316,118.87,318,120c3.71,2,8.89,3,10.92,6.13,2.2,3.36-2.57,7-3.9,10.72-2.61,7.26-2.56,7.39,4.46,11,4.31,2.23,9.11,3.53,12.86,6.88,1.75,1.56,3.48.69,4.3-1.14,1.94-4.29,5.78-7.09,8.26-11,1.53-2.39,3.72-4.07,6.38-1,.28.34.92.35,1.32.61,9.11,6,9.22,6.19,3.23,14.86-1.95,2.81-3.57,5.81-5.79,8.51-2.57,3.12,1.59,4.78,3.18,6.2,3.56,3.15,8,5.19,11.34,8.79a5.4,5.4,0,0,0,7.44.88c3.2-2.21,7.09-3.46,10.17-5.79,2.29-1.74,3.3-.94,4.67.68.42.51.95.93,1.4,1.42,5.54,6,5.53,6.75-.23,12.52a34.63,34.63,0,0,1-3.91,3.85c-4.33,3.09-5.11,6.44-1,10.24,3.41,3.17,5.86,7.08,8.52,10.82,2.11,3,4.68,2.8,7.1,1.17s5.13-2.06,7.47-3.53c3.77-2.39,6.13-1.24,8,2.7,3.43,7.43,3.57,7.41-2.81,12.37a35.13,35.13,0,0,1-6.44,4.4c-4.24,2-4.64,4.85-3.35,8.89,4.68,14.66,4.62,14.68,19.67,14.69,6.64,0,6.22,0,6.78,6.46.51,5.82-1.31,8-7.22,9.33-12.88,2.86-11.9,1.65-11.89,15.09,0,8.79,2,11,10.93,12.09,1,.12,2-.07,3,.11,5.9,1.09,7.21,3.21,6.06,9.28a2.81,2.81,0,0,1-3,2.63c-4.43.28-8.86.87-13.29.92-2.63,0-4.33.59-5.36,3.23-1.82,4.7-3.91,9.31-5.91,13.94-1.21,2.83.87,3.8,2.71,4.93,4.44,2.71,8.88,5.46,13.34,8.14,2.07,1.24,2.43,2.69,1.09,4.76a59.53,59.53,0,0,0-3.62,6.36c-1.18,2.42-3.08.93-4.19.52a89.11,89.11,0,0,1-11.56-5.26c-2.33-1.27-3.39-1.34-4.73,1.33-2.76,5.54-5.22,11.31-9.66,15.84-1.77,1.81.15,2.64,1.06,3.58,3.66,3.76,7.32,7.53,11.13,11.13,2,1.92,2.84,3.55.44,5.76a20,20,0,0,0-2.63,3.51c-3.12,4.51-6.51,4.29-10.61,1.1-2.78-2.16-6.42-3-9.29-5.25-2.09-1.67-4.08.29-5.58,1.72-4.15,4-8,8.25-12.27,12.1-2.32,2.1-2,3.83-.28,5.8,2.81,3.24,5.6,6.5,8.59,9.56,1.32,1.35,1.53,2.09,0,3.45-2.59,2.34-5,4.91-7.43,7.4-2.05,2.08-4,1.92-6-.13-3-3.1-6.24-6-9.11-9.24-2.44-2.73-5-2.89-7.91-1.19-4.49,2.65-9,5.3-13.36,8.15-2.48,1.61-3.81,3.74-1.32,6.58a17.21,17.21,0,0,1,1.74,2.95c4.74,8.25,4.35,9.46-3.91,14.3-3.35,2-6,2.84-8.22-1.59-1.77-3.46-4.66-6.35-6.4-9.82-1.53-3.06-3.6-2.95-6.12-2.25-3.29.9-6.54,1.94-9.82,2.89-9.24,2.68-9.42,2.92-9.42,12.76,0,7.75-4.38,11.25-12.12,10.06-1.8-.28-2.18-1.49-2.61-2.52A73,73,0,0,1,269.15,445c-.61-2.66-1.87-3.13-4.1-3.11-6,.05-12,.19-18-.07-2.53-.11-3.09,1.14-3.49,3-.89,4.14-1.71,8.29-2.71,12.41-.56,2.26-1.35,3.8-4.56,3.77-11.25-.07-11.25.14-11.25-11,0-9,0-8.94-8.41-12.32-2.57-1-5.47-1.61-7.67-3-3.76-2.4-5.17-.22-6.91,2.28-2.69,3.89-4.06,8.46-6.59,12.49-1.7,2.71-2.92,2.35-5,1.25-3.73-2-7.5-3.9-11.55-6,2.63-2.27,3.74-5,5.17-7.59,4.38-7.87,4.44-7.92-3-12.6-4.81-3.05-9.81-5.81-14.61-8.87-2.38-1.52-3.87-1.47-5.43,1.18-2.58,4.37-6,8.16-9.16,12.13-1.92,2.42-3,1.37-4.64.55-.28-.14-.47-.46-.73-.67-9.61-8-9.87-9-1-18.58,3.44-3.73,2.88-5.89-.43-8.93-4.84-4.46-9.26-9.34-14.86-13-2.13-1.4-3-1.11-4.43.44-2.27,2.43-4.67,4.74-7,7.07-2.22,2.19-4.39,2.78-6.47-.22a14,14,0,0,0-1.75-1.78c-6.68-6.69-6.66-6.66.93-13,2-1.64,3.72-3.57,5.6-5.32,1.34-1.25,1.05-2.38.4-4-2.86-7-7.5-13-11.59-19.26-1-1.46-2.46-2-3.77-.67-3.38,3.51-8.27,4.69-11.8,7.83-1.67,1.48-2.43.94-3.41-.35-.58-.78-1-1.71-1.56-2.48-5.89-7.6-5.68-8.79,2.42-13.57,11.7-6.89,11.7-6.89,6.93-19.11-2.68-6.86-6.76-8.88-15-6.6-2.55.71-5.55,1.44-7.61,1.23C67,318,69,312.32,67.38,309.09c-1-1.87.18-3.23,2.78-3.22,5,0,9.18-2.85,13.78-4.29,1.42-.44,2.17-1.35,2.4-3.19.67-5.48,1.88-10.9,2.79-16.35.7-4.2-3-4.16-5.34-5-4.58-1.63-9.31-2.84-14-4.09C66.92,272.21,65.82,271.35,67.07,267.87Z"/><path class="cls-1" d="M384.14,467.88c-2.77.11-5.66-.43-8.11,1.46a2.31,2.31,0,0,0-1,2.61,1.69,1.69,0,0,0,2.47.86c3.36-1.46,6.87-.55,10.27-1,1.7-.22,3.92,1.37,5.12-1.37,1.08-2.47-.46-4.2-1.7-5.6-5-5.65-9-12-13.75-17.9-.72-.89-1.88-1.52-.41-2.71,3.51-2.82-.53-3.63-1.5-5.12-1.46-2.24-2.7-.64-3.92.54-.93.9-2.07,1.61-3.05,2.41-13.63,11-30.23,16.48-45.36,24.67-.95.51-2.41.16-2.19,1.93a2.87,2.87,0,0,0,1.8,2.16c6.94,3.85,7,8.94.32,13.41-2.17,1.45-4.24,2.27-5.7-.51-1.3-2.48.18-3.53,2.63-4a2.1,2.1,0,0,0,1.7-3c-.86-1.64-2.15-.75-3.28.11-3.23,2.42-5,.57-6.7-2.32,1.64-.61,3-1.08,4.32-1.61,1.65-.67,4.59-.41,3.6-3.39-1-3.16-3.35-.56-5-.45-1.43.09-3.14,2.18-3.67-.81-.26-1.43-2.75-3.06.32-4.52,2.24-1.06,4.15-1.57,5.51.89.78,1.41,1.7,1.63,2.68.75.82-.72.39-1.78-.25-2.65-2.16-3-5-3.59-8.3-2.37s-4.47,3.54-4,7c.19,1.54,1.82,2.64,1.3,4.31-2.22.64-4.37.37-6.5.7-12.1,1.87-23.93,5.49-36.3,5.52H255c-1.5,0-2.57.57-2.85,2.14-.35,1.91,1.41,2.07,2.44,2.55,1.94.91,4.26-.32,6.26.81a2.17,2.17,0,0,1-2.48,2.45c-5.54-.07-5,3.16-3.37,6.55,3.13,6.55,10.11,8.51,15.49,12.33a3,3,0,0,0,4.31-1.35c1.06-2.34-1.21-2.64-2.45-3.42-3.85-2.43-8.16-4.23-11.22-9.21,3.68.79,6.39-.8,9.36-.93,3.42-.14,5.59.34,5.9,4.56.24,3.19,1.58,6.31,1.66,9.61,0,1.76.82,2.92,2.69,2.8,1.58-.1,2.27-1.2,2.27-2.72,0-1.33.34-2.8-.1-4-1.75-4.65-1.34-9.69-2.79-14.39-.76-2.45.4-4,2.85-4.78,4.69-1.42,9.71-1.1,14.33-2.93,1.2-.48,2.65-.31,2.72,1.77s-1,2.14-2.5,2.12c-2,0-4.08-.37-6,.11-3.25.82-6.11,2.33-6.56,6.33s2.25,4.67,5.24,5.78a14,14,0,0,0,8.73.56c4.14-1.28,5.27.39,6.33,3.72.55,1.72,1.44,4.39,4,3.27s1.66-3.33.83-5.53c-1.77-4.71-3.25-9.53-4.69-14.35-.66-2.18-1.5-4.73,1.65-5.78,1.58-.53,6.27,4.77,6,6.57-.6,4.32,4.73,8.5,8.85,6.76a24.59,24.59,0,0,0,6.31-3.64c2.12-1.78,3.17-1.65,4.08,1a16.64,16.64,0,0,0,1.63,2.43c.84,1.49,2,2.32,3.62,1.46a2.74,2.74,0,0,0,1.13-3.9c-2.9-4.54-3.79-10.18-7.68-14.11-1.57-1.58-1-2.79.44-3.58,5.57-3,11.23-5.9,16.86-8.8.78-.4,1.85-.49,2.27.25.63,1.12-.39,1.86-1.25,2.3-2.43,1.28-4.9,2.47-7.38,3.66s-4.05,2.36-4.15,5.46c-.1,3.32,2.29,4.61,4.06,6.43,1.1,1.13,2.41.83,3.47-.35,1.22-1.38-.15-2-.79-2.88s-2.15-1.48-2.25-3.21l4.3-2.2c5.85-3,5.8-2.89,9.21,2.79,1.49,2.48,2,5.61,4.52,7.39.86.61,1.31,2.74,3,1.11,1.31-1.23,2-2.32.83-4.27-3.33-5.76-6.31-11.73-9.64-17.5-.84-1.45-.48-2.3.6-2.83s2.29-2,3.33-.27c2.1,3.43,5.77,5.9,6.36,10.22.19,1.35-.06,2.64,2,2.66s1.91-1.15,2.1-2.56c.67-4.87,5.26-6.18,8.57-8,2-1.13,3.56,2.78,5.48,4.22a16,16,0,0,1,2.48,2.46c.5.59,1.24,1.42,1.13,2C386.36,468.35,385,467.84,384.14,467.88ZM270.88,485.8c-1.35,0-3.62,1.17-3.82-1.66-.23-3.27,2.32-1.89,3.89-2.3,1.38.58,4-1.19,4,2.06S272.36,485.76,270.88,485.8Zm29.65,4c-1.47,0-2.94,0-4.41,0v.05c-1,0-2,0-2.95,0s-2.05.13-2.12-1.32c-.06-1.1.47-2.22,1.4-2.31a82,82,0,0,1,8.3-.24c1,0,1.19.89,1.2,1.75C302,488.79,301.9,489.78,300.53,489.82Zm68-31.14c-3.17.55-5.26-4.23-4.95-4.93a9.47,9.47,0,0,1,6.74-5.37c2.92-.4,2.18,4.14,4.77,5.21A9.54,9.54,0,0,1,368.57,458.68Z"/><path class="cls-1" d="M382.14,526c-1,.05-2,.1-3.05.21l1,.12h0c1.91.25,3.31.42,4.37.48h0c1.91.11,2.75-.14,3.65-1a14.66,14.66,0,0,0,1.16-1.23,18.37,18.37,0,0,1-7.06,1.36Z"/><path class="cls-1" d="M389.4,524.46c-.06.06-.11.13-.16.19l.25-.11h.07l-.15-.06Z"/><path class="cls-1" d="M390.82,524.86h0a3.21,3.21,0,0,0,2.37-.85h0a14.86,14.86,0,0,0,1.82-2c-2.53-.41-3.44,2.33-5.5,2.52A3.87,3.87,0,0,0,390.82,524.86Z"/><path class="cls-1" d="M134,525.43c-3.4-.64-7-.17-10.2-1.85C126.51,527.91,130.53,525.06,134,525.43Z"/><path class="cls-1" d="M123.78,523.58l-.09-.14-.07.07Z"/><path class="cls-1" d="M123.6,523.52l.09-.08-.16.08Z"/><path class="cls-1" d="M117.67,521.29c1.89,1.25,3.26,3.54,5.86,2.23C121.35,523.53,120.47,520,117.67,521.29Z"/><path class="cls-1" d="M133.44,487.33c.64,1.45,1.85,3.27,4.15,2.09-3.4-1.52-3.76-6.57-8.23-7.37C130.45,484.34,132.53,485.26,133.44,487.33Z"/><path class="cls-1" d="M137.63,489.4l0,0,0,0Z"/><path class="cls-1" d="M105.92,468.36c-.82-2.42-2.64-4.27-3.32-6.7C102,464.66,103.31,466.84,105.92,468.36Z"/><path class="cls-1" d="M228.69,18.26a.09.09,0,0,1,0,0c2,0,2.77-1.6,3.22-3.14.29-1,.25-2.74-1.65-1.73-6.37,3.39-13.51.4-19.91,2.67C215,22.07,221.36,22.87,228.69,18.26Zm1.09-2.8c.36,1.32-.64,1.86-1,2.67-2.87-.9-5.6,2.2-9,0C223.13,16.37,226.61,16.48,229.78,15.46Z"/><path class="cls-1" d="M325.35,534a17.51,17.51,0,0,0,11.34-5.37Z"/><path class="cls-1" d="M353.3,513.22l.21-.27-.34.14-.07.06.19.06Z"/><path class="cls-1" d="M353.51,513l12.73-5.28C361.68,508.75,356.68,508.9,353.51,513Z"/><path class="cls-1" d="M353.1,513.15c-2-.59-2.73.47-3.36,3.09Z"/><path class="cls-1" d="M433.38,483.2c3-1.08,6.26-1.52,8.54-4.14C439.05,480.4,435.28,479.83,433.38,483.2Z"/><path class="cls-1" d="M428.68,484.72c1.88.41,3-1,4.49-1.45C431.36,482.61,429.8,482.74,428.68,484.72Z"/><path class="cls-1" d="M433.17,483.27l.13,0h0a.75.75,0,0,1,.07-.12l-.15.05Z"/><path class="cls-1" d="M390.2,506.56c4.09-.18,8,1.57,12.06,1.7C398.46,505.72,394.37,505.79,390.2,506.56Z"/><path class="cls-1" d="M402.43,508.27h-.17l.1.07h0l.11,0-.05,0Z"/><path class="cls-1" d="M402.49,508.28c1.91.86,3.82,1.74,5.71,2.61C406.75,508.74,405.08,507.2,402.49,508.28Z"/><path class="cls-1" d="M378.4,520.58a3.88,3.88,0,0,0,.48.24c1.34-.3,2-1.43,3.15-3C379.68,518.24,378.74,519.09,378.4,520.58Z"/><path class="cls-1" d="M386.91,514.74c1.76-.11,2.75-.38,3.1-1.61C388.53,512.48,387.82,513.34,386.91,514.74Z"/><path class="cls-1" d="M411.33,485.32c0-.05,0-.09,0-.13l-.12.05-.06,0,.13.05Z"/><path class="cls-1" d="M417.79,482.08c-2.06,1.18-5.35-.07-6.42,3.11C413.56,484.25,416.23,484.32,417.79,482.08Z"/><path class="cls-1" d="M411.19,485.26c-2.81-1.14-4.56,1-7.61,2.44C407.25,488,409,486,411.19,485.26Z"/><path class="cls-1" d="M362.37,525l9.23-5.29-.79-1.19C368.51,521.43,363.53,520.43,362.37,525Z"/><path class="cls-1" d="M356.8,529l5.26-3.81C359.37,524.92,357.67,526.28,356.8,529Z"/><path class="cls-1" d="M362.06,525.2l.24,0h0l.06-.23-.19.11Z"/><path class="cls-1" d="M373.32,531.5c-3.48,1.09-7.4.62-10.48,3.08C366.22,533.16,370.51,534.85,373.32,531.5Z"/><path class="cls-1" d="M373.52,531.43h-.13s0,0,0,0l0,0-.06.07.1,0Z"/><path class="cls-1" d="M381.36,531.05c-3.39-.1-5.66-.59-7.84.38C375.74,531.3,378.11,533.61,381.36,531.05Z"/><path class="cls-1" d="M460.62,413.19c-2.25,3.44-2.25,3.44-2.2,6.91C459.11,417.4,460.93,416.14,460.62,413.19Z"/><path class="cls-1" d="M471.44,409.41l4.15-3.78C473.38,405.49,472.31,406.53,471.44,409.41Z"/><path class="cls-1" d="M371,512.25c2.28-2.94,7.31-1.88,8.42-6.51-3.06,1.79-6.14,3.56-9.21,5.34Z"/><path class="cls-1" d="M379.47,505.53c0,.07,0,.14-.05.21l.17-.1,0,0-.15-.06Z"/><path class="cls-1" d="M379.63,505.6c1.79.67,3-.85,4.81-1.13C382.15,503.22,380.86,504.29,379.63,505.6Z"/><path class="cls-1" d="M452.06,459.1c1.88-.69,3.06-1.17,2.35-3A4.37,4.37,0,0,0,452.06,459.1Z"/><path class="cls-1" d="M468.35,445.62c2.54-.5,2.89-2.37,3.33-4.65C469.52,442.16,469.36,444.16,468.35,445.62Z"/><path class="cls-1" d="M429.34,474.36a8.92,8.92,0,0,0-7.74,1.1l-.28.18c-.29.19-.58.39-.86.61l9.46-1.67.14,0,.08,0h0l.12-.11-.31.06A5.25,5.25,0,0,0,429.34,474.36Z"/><path class="cls-1" d="M419.5,476.11c-1.79-.42-3.54-.32-5.37,2.09l6.09-1.9c-.24-.07-.47-.14-.71-.19Z"/><path class="cls-1" d="M420.22,476.3l.11,0h0l.12-.09-.18,0Z"/><path class="cls-1" d="M440.07,470.73h0l.12-.14Z"/><path class="cls-1" d="M440.26,470.75l-.17,0v0l-2.4,2.85c2.69-1.7,5.36-.49,6.58-3A7.76,7.76,0,0,1,440.26,470.75Z"/><path class="cls-1" d="M444.32,470.46l-.06.12.13-.05.09,0-.15,0Z"/><path class="cls-1" d="M449.1,469.14l-4.62,1.36C446,470.84,447.66,471.66,449.1,469.14Z"/><path class="cls-1" d="M437.67,439.26q-1.11,3.56-2.24,7.11C439.33,445.2,436.85,441.6,437.67,439.26Z"/><path class="cls-1" d="M435.41,446.43s0,0,0-.06l-.06,0a.49.49,0,0,1,0,.11s0,0,0-.06Z"/><path class="cls-1" d="M434.16,452.44a5.19,5.19,0,0,0,1.25-5.94C435,448.41,433.65,450.12,434.16,452.44Z"/><path class="cls-1" d="M418.43,462.3l7.91-11C421.45,454.75,418.49,459.18,418.43,462.3Z"/><path class="cls-1" d="M411,498.58c1.91-.07,3.83.88,6.14-.41C414.7,497.82,412.81,497.67,411,498.58Z"/><path class="cls-1" d="M388.66,488.61h0l.14-.26-.31.21c0,.05,0,.1,0,.14l.11,0Z"/><path class="cls-1" d="M393.34,486.26a7.2,7.2,0,0,0-4.68,2.35C390.86,489.17,392.14,487.81,393.34,486.26Z"/><path class="cls-1" d="M409.31,474.17c-2.23,1.79-6.73.39-7.06,4.88C404.3,477,407.67,476.85,409.31,474.17Z"/><path class="cls-1" d="M472.88,432.42l3.56-2.13C474.62,429.65,473.69,430.06,472.88,432.42Z"/><path class="cls-1" d="M450.69,447c-2.09-.15-2.92,1.4-3.83,2.84C449,450.06,449.88,448.53,450.69,447Z"/><path class="cls-1" d="M367.78,491.34c-2.18,3.06-3.63,5.65-6.37,7.05C364.86,497.81,367.28,496.09,367.78,491.34Z"/><path class="cls-1" d="M449.7,426a5,5,0,0,0-1.85,3.84C449.92,429.21,449.94,427.65,449.7,426Z"/><path class="cls-1" d="M494.23,395.06l6.95-3.76C496.15,392.08,496.15,392.08,494.23,395.06Z"/><path class="cls-1" d="M475.74,417a5,5,0,0,0-2.91,2.77C474.87,420,475.79,419,475.74,417Z"/><path class="cls-1" d="M503.36,351.6l.12.12.1-.09Z"/><path class="cls-1" d="M507.73,347.11c-2.53.92-2.79,3.18-4.15,4.52C506.88,352,506.62,349.25,507.73,347.11Z"/><path class="cls-1" d="M505.49,368.39c-1,1.87-3,2.21-2.23,4.76C504.08,371.6,505.76,371.32,505.49,368.39Z"/><path class="cls-1" d="M187.69,533.12c-4.16-1-7.28-4.6-11.72-4.85C179.57,530.64,183.24,532.85,187.69,533.12Z"/><path class="cls-1" d="M146.86,506.75,159.54,512C156.4,507.82,151.47,507.64,146.86,506.75Z"/><path class="cls-1" d="M160,512.18l-.08-.07v0l-.32-.14c.06.09.13.17.19.25Z"/><path class="cls-1" d="M160,512.18c.92.77,1.85,1.57,3.54,3C162.57,512.37,161.58,511.61,160,512.18Z"/><path class="cls-1" d="M79.8,482.28l-.12,0,.06.1Z"/><path class="cls-1" d="M71.19,478.21c2.4,2.33,5.57,2.9,8.49,4C77.76,478.81,74.1,479.38,71.19,478.21Z"/><path class="cls-1" d="M79.81,482.27l-.07.07.14-.06Z"/><path class="cls-1" d="M84.63,483.4c-1.44-1.32-2.94-2-4.75-1.12C81.47,482.57,82.65,484.61,84.63,483.4Z"/><path class="cls-1" d="M110.85,507.22c4.06-.13,7.93-1.71,12-1.68C118.65,504.62,114.59,504.83,110.85,507.22Z"/><path class="cls-1" d="M110.85,507.22h-.25l.08.08Z"/><path class="cls-1" d="M110.6,507.23l0,0,.12,0Z"/><path class="cls-1" d="M104.87,509.89l5.68-2.63C108,506.24,106.3,507.74,104.87,509.89Z"/><path class="cls-1" d="M131.17,517.28c1.22,1,1.65,2.52,4.29,2.44C133.9,518.5,133.52,516.64,131.17,517.28Z"/><path class="cls-1" d="M122.44,512.25c1.32.53,2,2.17,3.46,1.17C125.32,512.25,124.48,511.63,122.44,512.25Z"/><path class="cls-1" d="M101.67,484.23s0,.07,0,.11l.06-.06Z"/><path class="cls-1" d="M93.71,480.52c3.11,2.49,5.68,2.78,8,3.71C100.35,481.13,97.35,481.8,93.71,480.52Z"/><path class="cls-1" d="M101.85,484.28c2.22.66,4,2.72,7.6,2.41C106.42,485.23,104.67,483.1,101.85,484.28Z"/><path class="cls-1" d="M101.71,484.34l.14-.06-.06,0Z"/><path class="cls-1" d="M141.3,518.66l9.35,5.38C149.35,519.37,144.55,520.23,141.3,518.66Z"/><path class="cls-1" d="M151,524.22A13.7,13.7,0,0,0,157.7,528C155.29,525.58,153.68,523.75,151,524.22Z"/><path class="cls-1" d="M151,524.22l-.09-.08h0l-.19-.11c0,.08,0,.14.07.22Z"/><path class="cls-1" d="M150.22,533.58c-3.08-2.48-7-2-10.49-3.11C142.53,533.86,146.84,532.14,150.22,533.58Z"/><path class="cls-1" d="M139.67,530.45l.06,0,0-.05Z"/><path class="cls-1" d="M132.77,530.57c2.28,1.64,4.53-.08,6.8-.14C137.3,529.51,135,529.9,132.77,530.57Z"/><path class="cls-1" d="M139.66,530.46l0,0h-.12Z"/><path class="cls-1" d="M52.57,412.13C52,415,53.68,416.44,55.09,419,55.37,415.71,53.79,414.25,52.57,412.13Z"/><path class="cls-1" d="M48.6,404.47c.91,1.55-.06,4,2.44,4.92C50.09,407.81,50.9,405.6,48.6,404.47Z"/><path class="cls-1" d="M143,510.13l-9.33-5.43C135,509.43,139.79,508.52,143,510.13Z"/><path class="cls-1" d="M133.52,504.6l.17.1-.06-.2-.17.07,0,0Z"/><path class="cls-1" d="M133.46,504.57c-1.27-1.26-2.56-2.38-4.72-1.15C130.45,503.78,131.68,505.31,133.46,504.57Z"/><path class="cls-1" d="M37.39,404.07c1,1.61,2,2.77,3.71,3.17C40.43,405.61,39.73,404.07,37.39,404.07Z"/><path class="cls-1" d="M61.47,457.86l-3.08-3.24C58.43,456.86,59,457.74,61.47,457.86Z"/><path class="cls-1" d="M45.38,445.1,42,440C42.06,442.09,42,444.2,45.38,445.1Z"/><path class="cls-1" d="M170.63,525.45l-.2,0h0a3.51,3.51,0,0,1-.55,0l.53,0c-3.72-1.89-6.64-5.3-11.23-5.52,4,.9,6,5.79,10.6,5.58a3.51,3.51,0,0,0,.72,0h0l.07-.06h0Z"/><path class="cls-1" d="M92.75,475.3l-.13,0,.09.07Z"/><path class="cls-1" d="M98.76,476.56a5.19,5.19,0,0,0-5.94-1.25C94.73,475.69,96.44,477.07,98.76,476.56Z"/><path class="cls-1" d="M92.76,475.3l-.05.05.11,0Z"/><path class="cls-1" d="M68.71,469.5l.09,0s0,0,0-.08Z"/><path class="cls-1" d="M68.62,469.49c-1.39-.35-2.79-.71-5.38-1.39C65.62,470.4,67.14,470,68.62,469.49Z"/><path class="cls-1" d="M68.7,469.51l.06-.06-.14,0Z"/><path class="cls-1" d="M74.57,438.45c1.58,2.06-.7,5.77,3,6.91C76.37,443.14,77,440.18,74.57,438.45Z"/><path class="cls-1" d="M77.69,445.4l-.11,0,0,.1Z"/><path class="cls-1" d="M77.68,445.41l-.05,0,0,.06Z"/><path class="cls-1" d="M79.55,451.62l-1.9-6.1C77.05,447.57,76.82,449.54,79.55,451.62Z"/><path class="cls-1" d="M87.51,451.4l7.16,9.92A16.49,16.49,0,0,0,87.51,451.4Z"/><path class="cls-1" d="M84.75,463.54l7,3.56c-.07-.25-.15-.48-.23-.69l.78.52c-.26-.19-.53-.37-.8-.55C90.31,463.58,87.33,463.91,84.75,463.54Z"/><path class="cls-1" d="M91.88,467.18l-.16-.08a1.21,1.21,0,0,0,0,.18l.21,0-.08-.09Z"/><path class="cls-1" d="M96.45,497.07l-.06.5h5.71v-.5Z"/><path class="cls-1" d="M124.41,487.56a8.46,8.46,0,0,0-5.62-2.62C120.91,486.77,122.24,488.15,124.41,487.56Z"/><path class="cls-1" d="M103.74,473.17c1.68,2.65,5,2.83,7.1,4.86C110.37,473.64,106,474.89,103.74,473.17Z"/><path class="cls-1" d="M40,430.51c-.72-1.42-1.6-2-3.38-1.06C37.91,429.8,38.45,431.25,40,430.51Z"/><path class="cls-1" d="M62.38,445.94c.8,1.59,1.65,3.11,3.83,2.85C65.3,447.35,64.47,445.8,62.38,445.94Z"/><path class="cls-1" d="M12.51,390.76l6.84,3.35C17.73,390.89,15.24,390.76,12.51,390.76Z"/><path class="cls-1" d="M63.3,425c-.13,1.65-.13,3.23,1.91,3.77A4.43,4.43,0,0,0,63.3,425Z"/><path class="cls-1" d="M40.24,418.8A5.07,5.07,0,0,0,37.33,416C37.28,418,38.19,419,40.24,418.8Z"/><path class="cls-1" d="M4.69,346.12c2,1.87,1.5,5.08,4.82,4.48C8.07,349.34,7.93,346.87,4.69,346.12Z"/><path class="cls-1" d="M7.31,367.7c.23,2.52,1.35,3.19,3,4C10,369.62,8.86,369,7.31,367.7Z"/><path class="cls-1" d="M313.17,601.22c-.72-.91-1.21-1.45-2.28-1.21s-.95,1.27-.88,2c.28,2.81-.73,5.33-1.58,8.51-.58-2.44-1.06-4.31-1.47-6.18-.26-1.22-.77-3-1.78-2.83-1.45.17-3.68.71-4,2.32a77.78,77.78,0,0,0-1.12,19.69c.11,1.86,1.5,2.36,3.2,2.32,2.15-.05,1.67-1.64,1.69-2.85.06-3.32,0-6.63,0-9.94a42.75,42.75,0,0,0,2.85,8.37c.41.77-.2,2.32,1.28,2.22a2.08,2.08,0,0,0,1.84-2.49,14.87,14.87,0,0,1,1.79-8.28c-.41,2.74,1.3,5.09,1.22,7.72-.05,1.76.68,2.34,2.37,2.26s1.38-1.37,1.67-2.45c1-3.88-1.82-6.79-2.51-10.26C314.89,607.18,315.31,603.91,313.17,601.22Z"/><path class="cls-1" d="M398.38,587.13c-1.27-2.8-2.44-5.35-3.92-8.61-.82,3.35-1.43,5.9-2,8.44l-.47-.05v-7.47c-2.73.26-4.21,1.26-4.08,4,.28,6.12,2.91,11.52,4.94,17.12a1.55,1.55,0,0,0,1.83,1.18c1.47-.14,1.2-1.34,1.22-2.26,0-2.55,0-5.1,0-8.3,2.21,1.92,1.87,4.21,3.05,5.7.74.94.56,3,2.31,2.66s1.62-2.18,1.65-3.68c.1-4.78-.28-9.55.88-14.31.58-2.39.1-5,.1-7.81C395.88,576.3,400.26,582.67,398.38,587.13Z"/><path class="cls-1" d="M133.27,588.14c-.11-2.74-1.06-3.89-4.23-4.07v11c-6.13-3.93-3.46-12.29-10-16.55,1,8.17-1,15.09-.87,22.18.06,2.83.89,4.44,4.18,4.59V594.57l1.11-.13c2,4.24,3.85,8.5,5.87,12.7a2.91,2.91,0,0,0,1.79,1.49c1.18.17,1.14-1,1.06-1.75C131.52,600.58,133.52,594.44,133.27,588.14Z"/><path class="cls-1" d="M180.55,612.37c6.08-2.44,6.91-4.8,3.61-10.3-1-1.73-9.67-5.51-11.58-5.2a1.42,1.42,0,0,0-1.41,1.61c0,6.82,0,13.64,0,20.45,0,1.55.78,2,2.17,1.92,1.24,0,1.73-.58,1.82-1.8.12-1.69-.43-3.52.7-5.33,3.37,1.78,4.48,5,6.37,7.58.86,1.17,2.06,2.16,3.3,1.29s.92-2.49.13-3.62C184,616.7,182.25,614.56,180.55,612.37Zm-3.34-2.52c-2.43.23-2.27-1.54-2-2.94.29-1.69-1.25-4,1.48-5.19,2.08.94,4,2.25,4.28,4.42S179.52,609.64,177.21,609.85Z"/><path class="cls-1" d="M346.83,600.28c-.69-3.54-2.71-6.27-6.87-5.34-3.36.76-8.3-.13-7.09,6.33,1.1,5.94,1.55,12,2.37,18.58,1.76-.63,3.5-.58,3.72-2.86.2-2-1.21-5,1-5.81,2.84-1,2.3,2.88,3.87,4.06.66.5,1.22,1.33,1.94,1.48,1.68.35,3.77-.89,2.89-2.14C345.4,610,347.74,605,346.83,600.28Zm-7.61,6.54c-3.15.38-2-2.11-2.26-3.41-.11-2.51,0-4.62,3.14-4.53,2.45.07,2.88,1.62,2.84,3.65C342.89,605,341.65,606.52,339.22,606.82Z"/><path class="cls-1" d="M381.91,586.88c.24,3.92.69,7.84.95,11.76.12,1.83.23,4.09-2.36,4.08-2.82,0-1.42-2.46-1.56-3.82-.54-5.11-.88-10.25-1.29-15.35-3.27.72-4,2.65-3.81,5.5.23,3.8,0,7.64.07,11.46.09,5,2.21,7.36,6.49,7.35s6.37-2.35,6.47-7.37c.13-6.27.15-12.54-1.53-19C382.38,582,381.75,584.24,381.91,586.88Z"/><path class="cls-1" d="M113.3,578.06c.48,4.33-1.17,8.39-1.1,12.66,0,2.12-1.2,3.85-3,3.85s-3.11-1.73-3-3.85c.16-2.44-.19-4.85.58-7.36.7-2.28.38-4.91.29-7.38,0-1.29-1.07-2-2.4-2.05-1.1-.07-1.44.59-1.45,1.53-.07,5.92-1.85,11.78-1,17.73.56,3.79,3,6,6.83,6.68,4,.68,5.75-1.91,7.13-5,1.86-4.11.51-8.49,1-12.71C117.52,579.45,116.3,578.25,113.3,578.06Z"/><path class="cls-1" d="M167,595.31c-2.75-.91-5.6-1.52-8.93-2.4,0,2.54.63,5.09-.16,7.07-.92,2.28-.53,4.54-1.12,6.77-2.6,9.82-2.53,9.9,7,11.89,1.4.29,3.62,1.29,4.21-.92s-1.86-2.18-3.21-2.83a6.81,6.81,0,0,0-1.4-.41c-2.31-.53-4.07-1.6-3.1-4.31,1.14-3.21,3-.36,4.42-.19,1.71.21,3.25,1.39,4.1-1.27s-1.82-2.57-2.49-2.63c-5-.49-5.53-3-3.63-6.72a13.07,13.07,0,0,1,2.9.64c1.65.79,3.5,1.9,4.44-.43S168.9,596,167,595.31Z"/><path class="cls-1" d="M267,605c-2.95,0-4.29,2.71-5.84,4.76-1.74,2.31-.92,5.08-1.07,7.36,0,1.79-.13,3.3,0,4.77a7.75,7.75,0,0,0,4.92,6.81c2.75,1,5.31-.06,7.38-2.55,3.08-3.69,3.77-11.12,1.24-16.19C272.19,607.08,270.2,604.92,267,605Zm3,18.36c-.83,1-1.57,2.41-3,2.36-1.86-.07-2.15-2-2.6-3.25A8.54,8.54,0,0,1,264,619c0-2.15.05-2.82,0-3.48-.23-2.75.44-5.41,3.52-5.46,2.87,0,3.42,2.9,3.38,5.15C270.86,617.9,272.08,620.89,270,623.32Z"/><path class="cls-1" d="M330.63,604.46c-.61-2.71-1.35-5.73-5.51-5.68s-6,2.79-6.91,5.87c-1.52,5.27.44,10.4,2.42,15.17,1.42,3.45,5.74,3.57,8.69,1.29s2.78-5,2.55-8.46C332.74,610.06,331.26,607.28,330.63,604.46Zm-1.57,7.7c-.29,2.1,0,3.5-.74,5-1.27,2.47-3.06,2.4-3.88.39-1.18-2.92-3-5.72-2.58-9.24.25-2.1,1.13-3.76,2.8-4.13s2.8,1.34,3.25,3C328.4,609,329.45,610.78,329.06,612.16Z"/><path class="cls-1" d="M195.37,604a4.84,4.84,0,0,1,3.26,2.7,1.88,1.88,0,0,0,2.93.78c1-.77.72-2.16.23-3.24-1.06-2.31-3.44-2.1-5.41-2.8-4.1-1.47-7.66-.35-9,3.43-1.49,4.09,1.52,6.64,5.28,7.94a9.82,9.82,0,0,1,4.59,2.69,3.17,3.17,0,0,1,.11,4.48c-1.26,1.44-2.42.57-3.89-.16-2.32-1.14-3.24-3.55-5.89-5.56-.71,4-1.17,7.11,2.7,8.55,2.73,1,5.46,3.64,8.55.78,4.65-4.29,4.25-8.29-1.13-11.86a47.15,47.15,0,0,0-4.57-2.86c-1.34-.68-2.48-1.64-1.83-3A3.45,3.45,0,0,1,195.37,604Z"/><path class="cls-1" d="M411.31,573.76c-.71-.86-.89-2.2-2.44-1.81a2.48,2.48,0,0,0-2,2.48c-.61,8-2.87,15.88-1.72,24.64,2.23-1,3.25-2.05,3.79-4.07.81-3.08,3.47-4,5.48-1.69,1.46,1.71,2.26.63,3.05.24a2.33,2.33,0,0,0,1-3.37C415.81,584.85,415.3,578.56,411.31,573.76Zm-.91,15.71c-2.41.74-1.42-1.53-1.49-2.52-.17-2.31-.05-4.63-.05-7l1.31-.14c.93,2.09,1.77,4.21,2.8,6.24C414.46,589,411.57,589.11,410.4,589.47Z"/><path class="cls-1" d="M353,591c-1.74.22-1.09,1.86-1.42,2.78-2.18,6-1.71,12.33-1.65,18.57,0,1.41-.89,3.62,2,3.54s1.66-2.26,1.93-3.66-.67-3.41,1.81-3.23c1.5.11,3.68-1.32,4.3,1.75.54,2.69,2.65,2.43,4.79,1.7A81.29,81.29,0,0,0,356,593C355.21,591.77,354.61,590.75,353,591Zm4,14.72c-1.64.65-2.93-.37-3.06-2.15-.15-2.22,0-4.46,0-6.69.77,2.22,2.06,4.06,2.91,6.09C357.2,603.73,359,604.93,357.05,605.67Z"/><path class="cls-1" d="M286.32,608.76c.3-.1.54-.41.84-.5,1.55-.45,3.37-.62,2.79-3s-2.44-.94-4-1.53c-2.63.48-5.45,1.46-8.46,1.25-1.73-.12-1.72,1.48-1.47,2.51,1.33,5.53.7,11.15,1,16.73.1,1.66.47,3.73,3,3.64,2.89-.1,1.95-2.4,1.78-3.68-.63-4.81.9-7.53,6.1-7.29,2,.09,2.12-1.16,1.9-2.61-.32-2.1-1.46-.73-2.47-.67-2.13.12-5.44,1.62-6.11-.83C280.48,609.61,284.06,609.46,286.32,608.76Z"/><path class="cls-1" d="M246.27,605c-1.8-.56-2.77.79-3.71,1.9-1.86,2.23-3.47,6.31-5.42,6.45-3.66.26-3.24-4.58-4.81-7.07-1.32-2.09-2.74-1.64-4.13-.91-1.6.85-.44,1.93-.09,3.22,1.52,5.54,7.29,9.44,6.06,16.07-.24,1.31-1.42,4,1.76,4.15s3.34-2.2,3.09-4.43a12.71,12.71,0,0,1,4.67-11.83c1.61-1.42,2.36-3.82,3.23-5.31C247.05,606,247,605.23,246.27,605Z"/><path class="cls-1" d="M154.56,591.91c-2.12-.38-2.09,1-2.54,2.61-1,3.73-2.58,7.31-3.94,11-3-5.46,2.19-12.28-3.49-16.59l-1.42.51c0,6,.07,11.95,0,17.92a6.84,6.84,0,0,0,1.39,4.13c1.4,2,2.63,3.64,4.89,0,3.2-5.12,4.78-10.6,6.1-16.31C155.83,593.8,157.11,592.36,154.56,591.91Z"/><path class="cls-1" d="M370.08,586.2c-3.64,1.34-7.34,2.51-11,3.72-1.69.56-1.31,1.83-.69,2.76s.49,3,2.63,1.67a12.76,12.76,0,0,1,2.49-1c.85,5,1.54,9.81,2.57,14.57.3,1.36.87,3.61,3.21,2.73a2.85,2.85,0,0,0,1.39-4.21c-1-1.75-.82-3.57-.95-5.27-.31-4.07-3.8-9,2.64-11.67,1.07-.44.09-1.37-.21-2.06C371.72,586.57,371.53,585.67,370.08,586.2Z"/><path class="cls-1" d="M223.09,604.89a23.27,23.27,0,0,1-8.51-1.12c-1.34.41-3-.65-3.43,1.4-.28,1.45.07,2.81,1.68,3,4,.43,3.23,3.31,3.24,5.82,0,3.32.08,6.63,0,9.94-.06,2,.34,3.06,2.69,3,2.18-.06,2.35-1.2,2.33-2.85,0-4.14,0-8.28,0-12.43,0-1.65.13-2.94,2.33-2.79,1.24.08,2.91.3,2.57-1.86A2.4,2.4,0,0,0,223.09,604.89Z"/><path class="cls-1" d="M203.1,602.57c0,6.53.14,13.13-.06,19.72-.1,3.42,2.67,3,4.32,3.36,2.48.53,1.65-1.85,1.68-3.08.11-4.46-.28-9,.14-13.37C209.61,604.56,207.87,602.46,203.1,602.57Z"/><path class="cls-1" d="M137.51,586.7c-2.67.13-1,2.37-1.27,3.6-.3,1.43,0,3-.09,4.47-.37,4.42-1.4,8.79-1,13.28.2,2.1,1.3,2.85,3.29,2.8,2.16-.06,1.78-1.69,1.67-2.86-.45-4.83.86-9.51,1-14.27a27.08,27.08,0,0,1,0-3C141.49,587.94,140.06,586.58,137.51,586.7Z"/><path class="cls-1" d="M119.24,296.27c.29,6.21.92,12.72,2.72,18.37a184.91,184.91,0,0,0,7.48,20.49,151,151,0,0,0,21.42,33.41,106.21,106.21,0,0,0,33.84,26.71c9.4,4.77,19.16,9.45,29.77,12.14,13.13,3.33,26.32,4.85,39.7,5.66a130.6,130.6,0,0,0,23.14-1.88,132.39,132.39,0,0,0,26.19-7c7.27-2.77,14.68-5.65,21.12-9.55,9.77-5.91,19.5-12.21,27.71-20.62a141.87,141.87,0,0,0,22.24-29c4.91-8.69,9.34-17.92,11.39-28,3-14.88,5.26-29.52,3.31-45.05-2.06-16.53-8-31.32-15.85-45.31a128.72,128.72,0,0,0-21.75-28.29c-7.22-7.18-15.33-13-23.16-19.19-10-7.87-22.05-12.87-33.68-17.77-11.15-4.7-23.54-6.08-35.83-6.42a134,134,0,0,0-22.76,1.15c-7.37,1-14.94,1.7-21.82,4.87-8.24,3.79-16.85,6.63-24.89,10.94a137.05,137.05,0,0,0-33,24.45c-5.8,5.89-11.68,11.76-16.13,19.21-4.9,8.2-10.59,16.25-13.69,25.05-4.69,13.3-8.26,27.19-7.59,41.67C119.37,286.93,119,291.61,119.24,296.27Zm7.17-37.83c.29-3.85,2.84-7.49,4.12-11.3,3.58-10.75,9.29-20.25,15.39-29.8,12.1-19,29.44-31.27,48.82-41.21,10.38-5.32,20.72-10.95,32.36-13.22a120.85,120.85,0,0,1,47.52.32c8.9,1.8,17.68,4,26,7.69,11.11,5,21.34,11.57,31.63,18,9.62,6,17.89,14,25,22.64,4.45,5.42,9.09,11.27,12.17,17.76,7.17,15.1,13.91,30.35,15.57,47.36,1.5,15.25-.86,29.82-5.49,44.27a112.51,112.51,0,0,1-9.42,22.18,124.63,124.63,0,0,1-12.3,18.31,147.56,147.56,0,0,1-17,17.53c-5.09,4.32-11.29,7.33-17,11-7.52,4.8-15.86,8.05-24,11.26a89.59,89.59,0,0,1-17.19,4.62c-12.13,2.13-24.39,4.81-36.71,3-9.75-1.45-19.6-2.47-29.12-5.71-7.14-2.43-14.25-4.74-21.21-7.75-8.1-3.51-15.27-8.44-22.57-13.16-9.78-6.32-17.74-15-24.47-24.15a124.44,124.44,0,0,1-19.69-39.23,109.4,109.4,0,0,1-4.55-34.23C122.57,276.62,125.69,267.62,126.41,258.44Z"/><path class="cls-1" d="M141.46,329a128.75,128.75,0,0,0,18.07,29.1c8.33,10.43,18.77,18.32,30.16,25.21,8.09,4.9,16.55,9,25.52,11.41a129.89,129.89,0,0,0,28,4.58c14,.61,27.78,1,41.47-2.36,3.77-.94,7.74-1.32,11.35-2.67a135.93,135.93,0,0,0,20.05-9.39c4.68-2.67,9.63-4.84,13.85-8.31,8.74-7.21,17-14.77,24-23.86,7.83-10.2,13.27-21.48,17.89-33.32,2.57-6.61,2.89-13.64,4.28-20.47,2.4-11.79.62-23.4-1.81-34.74-1.42-6.64-4.12-13.18-6.74-19.65-4.42-10.89-10.8-20.57-17.7-29.58-8.49-11.09-19.49-20.09-31.63-27.46-3.29-2-7.46-2.48-10.12-4.71-7-5.81-15.34-8.67-23.56-10.38-10.54-2.19-21.34-4.61-32.49-3.17A50.72,50.72,0,0,0,232.1,171c-9.5,2.62-19.32,4.21-28.14,9-7.23,3.94-14.66,7.53-21.83,11.58a73.82,73.82,0,0,0-19.71,16.38,131.31,131.31,0,0,0-18.89,28.28c-4.29,9-7.94,18.4-9.07,28.14a171.43,171.43,0,0,0-.64,33.09A95.69,95.69,0,0,0,141.46,329Zm28.22-42.82c2.5,2.36,2.5,2.36,2.1,6.35C169,290.15,169,290.15,169.68,286.14Zm18.66,33.6c.69.82,2.85,1.63,1,3-1.24.9-2.36-.51-3.36-1.4-2.33-2.1-2.26-5.29-4.61-8.52,3.63.45,6,.49,5.74,3.84A4.12,4.12,0,0,0,188.34,319.74ZM197.06,294c.05,1.15.6,3-1.63,2.82-1.79-.11-1.43-1.69-1.27-2.66.52-3.21-1.41-6.1-1.2-9.27a16.76,16.76,0,0,1,.65-3.85c.36-.89.58-2.45,2.27-2,2.14.55.38,1.67.41,2.58C196.47,285.74,196.87,289.87,197.06,294Zm41.4.19c2.06-.86,3.16.58,4.12,1.87,6.72,9,18.14,9.33,25.09.36,1.86-2.39,2.54-2.29,5.36-1.29,8.53,3,17.18,6.41,26.52,5.43,2-.21,4.62-.84,6-3.24-1.71,10.24-7.5,17.06-16.37,21.67-14.61,7.59-30.08,7.55-45.9,6.11-4.41-.4-8.8-1.11-13.26-1.3-6.81-.29-11.95-4.85-17-8.7-5.24-4-8.74-9.73-12.27-16.12C214.35,302.35,226.54,299.19,238.46,294.2Zm2.09-10.83c-.73,2.16-1.45,4.32-2.26,6.76C237.24,287.22,237.24,287.22,240.55,283.37Zm3.63,2.2c-1.08,2.11-1.73,3.4-2.47,4.84C240.48,288.1,241.06,286.76,244.18,285.57Zm23.74-3.95c-.19-.58-.84-1.14-.19-1.73.29-.26,1-.52,1.19-.37,2.82,1.89,2.51,5.09,3,7.87.33,1.79.53,4.08-2.82,3.82C271.17,287.68,269,284.73,267.92,281.62Zm10,8.14c0,1.18-.81,2.09-2.91,1.93,1.72-4.37,1.06-8.2-.65-12-.63-1.41-2.64-3.52.19-4.37,2.5-.74,1.42,2.28,2.24,3.44C279.1,282,277.82,286.05,277.91,289.76ZM288,352.92c-15,0-29.94,0-44.91,0-2,0-3.61-.26-4.48-2.83h53.15C291.76,353.05,289.82,352.92,288,352.92Zm2.78,3.23c0,3-2.05,2.77-3.85,2.77-12,0-24,0-35.93,0-2,0-3.59-.32-4.38-2.8Zm-3-9.28c-10.48.11-21,.06-31.44.06-7,0-14,0-21,0-2.1,0-4-.08-4.71-3H278.5c3.16,0,6.33-.13,9.48.06,1.37.08,4-1.17,3.8,1.55C291.64,348,289.15,346.86,287.74,346.87ZM214.49,329a36.1,36.1,0,0,0,17,6.2C226.55,337.49,216.54,333.63,214.49,329Zm12.8,11.35c-.57,1.66-1.38.95-2.16.54-3.95-2.05-8.22-3.56-11.35-7.13,4.18,1.88,8.46,3.37,12.71,4.95C227.35,339.05,227.7,339.22,227.29,340.38Zm46.53-2.48c1,.23,2.05,0,2.11,1.46.07,1.9-1.37,1.54-2.44,1.55-6.48,0-13,0-19.45,0-6.15,0-12.31,0-18.46,0-1.06,0-2.51.36-2.44-1.54.05-1.43,1.14-1.26,2.11-1.46C248.11,335.24,261,334.83,273.82,337.9Zm-31.71-5.29c.82-3.33,3-3.73,5.66-3.7,20.29.18,16.67-.83,19.14,3.7Zm-6.33-1.33a1.83,1.83,0,0,1-2.19,1.57c-6.25-1.57-12.52-3.15-17.93-6.92-.75-.52-.64-1.43-.3-2.53,5.75,3.07,11.13,6.77,18,6.58C234.25,330,236,329.25,235.78,331.28Zm41.34.62c-1.28.24-2.6-.29-2.68-1.56-.05-.82,1.17-1.35,2.3-1.42,20-1.14,29.24-14.88,33-31.78,2.22-9.87,2.12-20.77-2.93-31.2-5.43-11.18-12.7-19.63-23.71-25-1.42-.7-2.29-2-1.69-3.45.39-.94,1.71-.54,2.61.08,7,4.86,14,9.55,19,16.87,6.58,9.69,11.53,19.74,11.09,31.94-1.82,16.1-7.52,30.17-21.16,40.18C288.22,330,282.66,330.87,277.12,331.9Zm5.39-87.27c5.47-.33,14.62,8.31,20.77,20.33,4.6,9,6.6,18.69,2.08,29C308.07,272.8,298.45,257.39,282.51,244.63ZM295.89,295c-3.14-6.57-1-13.55-2.82-20.05-1.49-5.26-3.44-10.19-7.67-13.76-1.08-.9-1.9-1.66-1.08-2.64,1.23-1.46,2,.28,2.68.94a26.64,26.64,0,0,1,8.07,15c1.12,5.66,2.44,11.25,1.9,17.08C296.87,292.6,297.4,293.84,295.89,295Zm-15-29.74c7.6,3.76,12.08,24.37,6.34,29.65C290.32,283.9,285.76,274.55,280.85,265.27Zm2.93-13.46c12.8,1.26,24.54,35.76,16.57,43.34C299.6,278.7,299.07,262.44,283.78,251.81ZM275.68,228c4.45.23,6.86,2.77,10.86,4C282.1,233,282.1,233,275.68,228Zm9.24,56.46a18.14,18.14,0,0,1-1,8.66c-.31.75-.66,1.63-1.66,1.3s-.66-1.07-.42-1.95c1.8-6.58.49-12.71-2.82-18.54-.44-.76-1.22-1.75.2-2.43.89-.43,1.31.43,1.48.84C282.36,276.41,286.54,279.68,284.92,284.41Zm-73.38,8.38c.16,1.13.94,2.06-.74,3.3-1.86-7.68-2.66-14.9.21-22.4,3.68-9.61,7.86-18.62,18-23.14a17.84,17.84,0,0,1,2.54-.79c-2.57,3.88-7.14,5.41-10.2,8.95C212.68,268.7,209.68,280,211.54,292.79Zm16-1.34c-4.27-5.56-1.72-15.66,5.18-21C228.68,277.33,225.79,283.4,227.49,291.45Zm7.36-15.91c-1.43,4.66-4,9-4,14.25C228.17,286.08,229.84,279.88,234.85,275.54Zm-12.55,14.9c-3-8.33,3.19-22.14,10.62-24.57C224.18,271.61,224.7,281.4,222.3,290.44Zm-3.47.19c-4.25-9.59,4.8-29.53,14-30.29C222.16,267.79,219.5,278.83,218.83,290.63Zm15.41-.81c-1.49-4.35-1.49-4.35,3.35-10.15C237.33,284,234,286.35,234.24,289.82Zm-13.8-22.25c-4.29,6.78-5.81,14.7-5.41,22.86,0,.72,1.77,2.37-.69,2.4-1.53,0-1.21-1.29-1.24-2.19a47.61,47.61,0,0,1,5.42-23.51A27.89,27.89,0,0,1,229,255.56c1.64-1,3.31-2.27,5.94-.65C226.8,255.51,223.86,262.17,220.44,267.57Zm11.38-17.95c1.55-1.88,3.51-2.06,6-1.24C236.05,250.79,233.88,249.93,231.82,249.62Zm-25.44,47.32c-7-30.89,13.77-52.83,35.71-55.28C214.89,250.24,203.54,269,206.38,296.94Zm-4.84.18c-8.91-34.25,19-60.23,43.11-60.68C213.7,244.76,198.3,264.19,201.54,297.12ZM208.37,319c-5.52-1.68-12.12-12.87-11.87-20.23C200.3,306.58,203.43,313.25,208.37,319Zm-19-9.94c1.79-.26,1.72,1,1.78,2.23.17,2.88,2.89,4.31,3.81,6.7.28.7,1.53,2.07.15,2.84a2.2,2.2,0,0,1-2.77-.4c-1.77-2.67-4.11-5.1-4.2-8.65C188.35,310.78,187.54,309.29,189.34,309Zm3.73-7.09c2.57,5.83,4.59,10.7,7.85,14.89.49.63.47,2.47-.32,2.57-1.15.13-3.16-.38-3.51-1.19C195,313.42,190.3,309.3,193.07,301.93Zm8.85,42c2.11,0,2.32,1.29,2.69,3-8.09,0-16.07,0-24.05,0-1.13,0-2.5.16-2.34-1.67.13-1.45,1.29-1.28,2.23-1.29C187.61,343.93,194.77,344,201.92,343.9ZM194,267c-.77,1.37-2.61,2.62-4.08,1.71-1.94-1.2.16-2.79.79-3.6,2.16-2.79,1.21-7.3,5.07-9a6,6,0,0,1,2.23-.52c.27,0,.54.69.94,1.24C194.76,259,195.87,263.7,194,267Zm-4.23,16.07c1.07,0,1.3.78,1.31,1.63,0,3.11,0,6.21,0,9.89-2.58-1.32-4.26-9.21-2.57-11.07A1.89,1.89,0,0,1,189.76,283.05Zm-7,12.33c-1-2.93-.36-5.6-1.51-7.92a1.62,1.62,0,0,1,.92-2.39,2,2,0,0,1,2.7,1.46C185.27,289.45,185.83,292.54,182.72,295.38Zm-.89,24.79c.58.67,1.92,1.46.82,2.37-1.27,1-2.64.27-3.26-1.08-.76-1.67-1.21-3.48-2.18-6.36C179.3,317.38,180.6,318.75,181.83,320.17ZM180,350c8.31,0,16.63,0,24.95.06,1.07,0,1.72.84,2.11,2.9-9.22,0-18.15,0-27.09,0-.82,0-1.66-.1-1.77-1.23C178.07,350.29,178.91,350,180,350Zm29.63,9c-9.81,0-19.29,0-28.76,0-1,0-2.57.46-2.65-1.33-.11-2.24,1.72-1.6,2.87-1.61,8.14-.06,16.29,0,24.44-.06C207.42,355.89,208.73,356.47,209.65,358.92ZM181,362c8.82,0,17.64,0,26.47-.06,2.1,0,2.92.84,2.93,3-9.84,0-19.66,0-29.47,0-1,0-2.57.52-2.72-1.26C178.06,361.4,179.87,362,181,362Zm27.52,8.93c-4.49.1-9,0-13.48,0-4.65,0-9.31,0-14,0-1.15,0-3,.63-2.87-1.61.08-1.8,1.62-1.32,2.66-1.33,9.15,0,18.3,0,27.45,0,1.54,0,3.47,0,3.41,1.9S209.69,370.85,208.56,370.88Zm8.37,2.13c-.13.56-.7,1.35-1.17,1.43A1.42,1.42,0,0,1,214.2,373c-.24-10-4.87-18.77-8-28a11.23,11.23,0,0,1,0-4c.05-.77.64-1.07,1.38-1.08s1.35.27,1.41,1c.71,9.28,5.89,17.17,8,26a13,13,0,0,1,0,3h.09A16.4,16.4,0,0,1,216.93,373Zm2.78,1.43c-1.34,0-1.76-1.27-1.61-2.48,1-8-3.53-14.73-5.15-22.13-.52-2.33-2-4.43-2.79-6.72-.31-.87-.16-2,1.3-2.12,1-.06,1.38.42,1.61,1.39,1.93,8,6.36,15.12,7.53,23.37.2,1.45.3,2.91.46,3.94,0,1.09,0,1.75,0,2.41C221.14,373.22,220.66,374.41,219.71,374.44Zm4-.13c-2.39.13-1.47-2.72-1.6-4.36-.63-8.13-2.39-15.93-6.52-23.07a3.81,3.81,0,0,1,0-3.86c2.37.28,2.62,2.05,3.15,3.28A79.6,79.6,0,0,1,225,369.6C225.18,371.26,225.86,374.18,223.69,374.31Zm-1.37-23.68c1.22-1.24,2.87-.94,4.15-.42,1.05.43,2.71.51,3,2.27-1.15.86-2.48.43-3.69.4s-2.72.69-3.53-.85A1.55,1.55,0,0,1,222.32,350.63Zm2.84,7.05c-.08-.93.23-1.74,1.24-1.65,3.64.31,7.87-1.71,10.9,2.87-3.86,0-7.13,0-10.39,0C226.09,358.89,225.26,358.79,225.16,357.68Zm1,6.07c-.12-.67,0-1.59.7-1.58,5.21,0,10.49-1.27,15.58.77.48.2.72,1,1.37,2-5.43,0-10.37,0-15.31,0C227.61,364.89,226.43,365.18,226.19,363.75Zm3.64,7.14c-1,0-2.48.46-2.67-1.33-.15-1.42.83-1.61,1.89-1.62,6.15,0,12.3,0,18.45,0,1.52,0,2.32,1,3.14,3C243.45,370.92,236.64,370.94,229.83,370.89Zm28.31,3.4c-1.33,1.2-2.08.14-2.88-.66-2.52-2.52-4.9-5.19-7.37-7.73-8-8.26-17.44-14.57-26.79-21.06-4.53-3.15-9.12-5.85-14.56-6.89-1.08-.21-2.56.2-2.36-1.66.24-2.2,2.1-.89,3.07-1.51,6.2,2,11.72,5.12,17.32,8.1,7,3.74,12.73,9.32,19.25,13.78,5.51,3.76,9.49,9.76,14.19,14.73C259,372.4,259.32,373.22,258.14,374.29Zm28-3.36c-8.48-.06-17,0-25.44,0-1.79,0-2.49-1.24-3.26-3,9.83,0,19.3,0,28.77,0,.71,0,2.14-.72,2.1.86A1.93,1.93,0,0,1,286.1,370.93Zm1.15-6-10,0c-6.65,0-13.3,0-19.95,0-2.13,0-3.92-.25-4.86-3,11.86,0,23.44,0,35,0,.87,0,2.3-.39,2.25,1.08C289.69,364.32,288.57,364.91,287.25,364.9Zm4.15,9.56c-1.81-.54-1.36-2.37-1.4-3.83-.22-3.35,1.54-6.3,2-9.51q1.11-8.49,2-17c.13-1.25.39-2.84,1.46-2.77,1.51.1,1.74,1.77,1.54,3.16-1.31,9.31-2.67,18.61-4,27.92C292.83,373.51,292.25,374.71,291.4,374.46Zm5,0c-1-.08-1.41-1.18-1.41-2.31,0-5.25,2.19-10.13,2.3-15.45.09-4.12,1.59-8.27,1.69-12.51,0-1.2,0-2.4,1.61-2.85,1.35.45,1.63,1.77,1.34,3.11-2,9.22-2.79,18.61-3.95,28C297.84,373.49,297.36,374.55,296.4,374.47Zm34.45-79.9c-4.56-4.48.33-9.61-3.79-13.69C334.83,284.23,330.54,289.23,330.85,294.57ZM310,349.9c6.65.08,13.31,0,20,.06,1.16,0,3-.62,2.87,1.62-.09,1.79-1.64,1.31-2.67,1.32-7.82,0-15.63,0-23.59,0C306.7,350.17,308.09,349.87,310,349.9Zm-7-12.11c1.89-1.94,3.44-3.52,5.88-3.8C309.25,338.19,306.4,338,303,337.79Zm27.48,9.12c-3.49,0-7,0-10.48,0-3.33,0-6.66,0-10,0-1,0-2.06-.06-2-1.53s1.14-1.42,2.12-1.42q10.23,0,20.46,0c.94,0,2.1-.16,2.22,1.29C333,347.07,331.64,346.9,330.51,346.91Zm-17.23-7.11,3.44-2.78C317.31,340.66,315.33,339.83,313.28,339.8Zm9.37-23.92c-2.47-4.15,1.66-7,1.73-10.63a3.27,3.27,0,0,1,2.51-.61c.93.4,2.57,1.8,1.84,2.48C326.06,309.59,326.9,314.54,322.65,315.88Zm2.77-52c-1-.11-4.59-7.45-4.09-8.29.21-.35.79-.48,1.14-.67a4.27,4.27,0,0,1,3.34,2.82,50.74,50.74,0,0,1,1.54,5.91A7.6,7.6,0,0,1,325.42,263.89Zm-.61,12.47c.44,1.85.75,3.84,1.27,5.7,1.4,5,.55,7.88-4.38,11.76,1.57-5.94,1.08-11.32.41-16.83-.84-6.91-4.15-12.64-7-18.67-.74-1.58-2.31-3.69-.58-4.93,2.3-1.65,3.76,1.37,4.18,2.56C321.06,262.64,323.13,269.46,324.81,276.36Zm-1.68,24.78c1.59.86.52,2.07-.11,3.31a93.26,93.26,0,0,0-4,9.22c-.65,1.72-1.82,2.56-4.39,4.06,2.15-5.9,3.78-10.42,5.45-14.93C320.57,301.37,321.8,300.41,323.13,301.14Zm-10.49,36.34c-.05,0-.38-.28-.75-.56.85-1.5,2.47-2.63,2.67-4.55C316,334.91,314.32,336.21,312.64,337.48Zm-3.57-3.68c.47-2.84,2.32-4.76,4.61-6.37C313,330.17,312.75,333.2,309.07,333.8ZM308,330c-2.13,2.82-6.18,4-8.1,7.4a.9.9,0,0,1-1.61,0,2.18,2.18,0,0,1-.09-1.84,17.91,17.91,0,0,1,3.72-3.94c3.57-2.36,5.86-5.76,8.24-9.15.4-.56.75-1.63,1.78-.89a4.88,4.88,0,0,1,1,1.27C312.13,326.05,309.65,327.82,308,330Zm-5,41.65c0,1.27-.24,2.75-1.4,2.82s-1.76-1.32-1.59-2.63c1.35-9.93,1.78-20,5.14-31.1,1.55,5.7.27,9.57-1,13.69C302.44,360,302.89,365.86,303,371.64Zm27.17-.75c-8.48.05-17,0-25.59,0,.13-2.75,1.51-3.05,3.41-3,7.33.08,14.65,0,22,.07,1.14,0,3-.65,2.87,1.6C332.74,371.36,331.2,370.89,330.16,370.89Zm-.33-6c-8.25.06-16.5,0-25.22,0,0-2.66,1.37-3.05,3.45-3,7.26.09,14.53,0,21.79.07,1.14,0,3-.67,3,1.47S331,364.88,329.83,364.89Zm.64-6c-4,0-8,0-12,0-3.66,0-7.32,0-11,0-1.07,0-2.52.31-2.45-1.56.05-1.45,1.17-1.39,2.14-1.39q11.73,0,23.45,0c1,0,2.1-.13,2.2,1.32C333,359.12,331.59,358.9,330.47,358.9Zm-.85-41.81c-.61-1.33-2.61-.67-2.05-2.1.92-2.35,1.63-5,4.45-6,.68-.22,2.14,0,1.71.93A74.59,74.59,0,0,1,329.62,317.09Zm18,2.93c-.56-.53-1.47-1-1.61-1.61-.43-1.94-3.4-2.12-3-4.48.06-.34.78-.89.9-.82a9,9,0,0,1,4,4.78c.21.53.31,1.11.47,1.67Zm5.4-34.9c.47-1.56,1.3-.3,1.59.05,1.3,1.59,4.16-.29,5.14,3.08a11.25,11.25,0,0,0-5.7-1.39C352.91,286.87,352.79,285.88,353,285.12Zm-3.6-2.13a1.46,1.46,0,1,1-1.45,1.45A1.28,1.28,0,0,1,349.42,283Zm-7.83-32.13c2.42-2,3.64,1,6.45,1.27-2.58,1.65-4.44,2.82-6.5.86A1.29,1.29,0,0,1,341.59,250.86ZM344.2,283c.83-.24,1.85.14,1.55,1.21-.61,2.24-1.39,4.52-4.79,4C341.32,286,341.52,283.79,344.2,283Zm-10,32c-.92-.48.05-2.23,1.08-2.83,2.66-1.58,3.79,1.15,5.64,2.06C338.58,314.86,336.28,316.12,334.17,315ZM336,283.71c1.75-.51,3.43,1.61,2.95,3.89a8.51,8.51,0,0,1-.81,3.95c-.68,1.47-1.63,1.43-2.76,1.33a1.42,1.42,0,0,1-1.08-2.46C336.39,288.37,332.78,284.65,336,283.71Zm-2.78-29.42c.5-2,2.32-2.35,4.17-2.32a2.47,2.47,0,0,1,2.51,2.14c-1.61.9-3.15,2.15-4.89,2.59C333.69,257,333.08,254.75,333.2,254.29Zm-.12,5.82a2.5,2.5,0,0,1-2.58,2.37c-1.58-.06-1.32-1.79-1.64-3a18.39,18.39,0,0,0-1.91-3.78c1.93-1.46,3.57-.53,5.07.36S333.3,258.44,333.08,260.11ZM329,216.24c-1.29.75-2.58,1.51-3.9,2.2-.08,0-.67-.55-.62-.65C325.34,216.1,327.22,216.22,329,216.24Zm-9.13,1.37c2.1-.47,2.27,1.9,3.68,2.36-.19,1.46-1,2-2,1.92-1.46-.1-2.93-.55-3.51-2S318.82,217.85,319.9,217.61Zm-5.61,5.46c1.59-1.64,2-.36,3.25.53,3.53,2.48,2,5.14.87,8.21-1.47-1.78-2.74-3.57-4.27-5.09S313,224.39,314.29,223.07Zm2.51,11.83a2.55,2.55,0,0,1-1,1.57c-1,.91-1.82.1-2.46-.63-1.86-2.11-3.45-4.47-6.51-6.21C309.93,228.2,316.81,232.09,316.8,234.9Zm-16.42-4.53a2.57,2.57,0,0,1,3.23-.06c2.78,2.69,6.57,4.66,7.42,10.2-4.32-2.5-6.43-6.28-10.06-8.15C300.28,232,299.6,231,300.38,230.37Zm-3.9,2.62c3-.23,11,8.34,11,12.12-4.7-2.63-7.47-7.4-12.14-9.8C294.52,234.89,294.71,233.13,296.48,233Zm2.38,8.21c5.84,6.29,11.94,12.31,15.36,20.78,3.5,8.67,6.23,17.36,5.56,26.54a52,52,0,0,1-8.67,25.58c-3.1,4.57-6.07,9.24-9.9,13.42-5.37,5.87-12.69,6.64-19.28,9.37a2.07,2.07,0,0,1-1.44-.2,8.21,8.21,0,0,1-1.44-1.3c3.47-1.38,6.6-3.09,9.95-3.87,11.29-2.63,16.07-11.88,20.8-20.75A52,52,0,0,0,316,281.85c-1-12.36-5.24-23.42-13.43-32.74a66,66,0,0,0-12.86-11.7C294.28,236.31,297.07,239.29,298.86,241.2Zm-9.51-43c.41,1.71-.17,2.84-1.61,4C286.58,199.87,288.23,199.1,289.35,198.22Zm-7.28,6.89c.05-.85.76-1.3,1.31-1.05,1.63.75,3.88.22,4.87,2.44.49,1.09,1.07,2,0,3.69-1.14-.84-2-1.51-2.93-2.14C284.09,207.21,281.93,207.44,282.07,205.11Zm-.76,6.68c1.06-2.38,3.47.21,5.16.57,1.36.28,2.41,2.06,3.44,3-.13,1.93-1.47,1.77-2.17,1.41a21.5,21.5,0,0,1-3-2.51C283.56,213.37,280,214.8,281.31,211.79Zm7.42,9.6a2.39,2.39,0,0,1,0,1.84c-.53,1-1.32-.09-1.48-.28-1.28-1.6-3-1.92-4.87-2.36a27.62,27.62,0,0,1-5-2.27C280.29,216.85,287.64,218.86,288.73,221.39Zm-1.31,4.88c.85.42.71,1.46.24,2.15a1.6,1.6,0,0,1-2.21.26c-3.48-1.82-6.93-3.71-10.39-5.58C279.86,221.92,283.57,224.37,287.42,226.27Zm-23.75-11.53c4.59,6,8.28,12.77,11.82,19.49,6,11.32,7.55,22.93.15,34.34a14.31,14.31,0,0,1-5.55,5.22c-7.13,3.23-10.86,8.95-13.08,16a4.57,4.57,0,0,1-2.72,2.79c-.56-4-2.3-7.47-5.64-9.43-5.29-3.09-8.29-8.17-10.57-13.16a19.67,19.67,0,0,1,.71-17.13c3.45-6.64,7.91-12.71,12.45-18.68,6.45-8.46,7.2-17.86,4.57-27.81C260.51,207.12,261.44,211.84,263.67,214.74Zm-15.61,11.2c-1.71-.05-3.14-.81-2.78-1.91,1.18-3.73,5.18-2.59,7.8-3.92,1.35-.69,2,.52,1.93,1.93C254.62,227.23,249.41,223.3,248.06,225.94Zm5.46-30.77c-.28,3.89,2.88,7,2.18,11C252.61,203,253,199.12,253.52,195.17ZM254,211.1c-.38,3.52-3.19,1-4.47,1.94-.94-.32-2.75,1.45-2.37-1s2.71-2.55,4.49-3C253.17,208.61,254.21,209.28,254,211.1ZM249.18,207c-1.41.06-2.18-.36-2.14-1.93.05-1.73.62-2.93,2.51-3s1.51,1.87,2.41,2.7A2.53,2.53,0,0,1,249.18,207Zm2.06-14.16c.34.19.75.88.64,1.16-.66,1.75-2.09.77-3.84.87C249.27,193.52,249.53,191.84,251.24,192.8Zm-5.11,6.37c.24-1.82,1.54-2.23,3.17-2.2,1.21,0,1.89.53,1.65,1.76-.45,2.24-2.53.67-3.53,1.44C246,201,246,199.83,246.13,199.17ZM253.74,215c.75.18,1.39.54,1.09,1.21s-1,1.56-1.65,1.61a19.29,19.29,0,0,0-8,2.84C246.14,217.75,251.47,214.46,253.74,215Zm-4.13,15.34c-.77,1.53-1.64,2.79-3.41,2.6-9-1-16.63,3.23-23.77,7.3C214,245,206.87,251.81,203,261.3c-1.18,2.9-3.3,5.41-4,8.56-.18.79-.7,1.23-1.38.85-1-.57-1.83-1.18-1.12-2.76,1.44-3.13,1.73-7.32,4-9.42,4.74-4.35,6.18-11,11.55-14.77,9.27-6.45,18.77-12.23,30.46-12.78C244.84,230.88,246.89,229.13,249.61,230.33Zm-16-4.52c1.67.35,3.16-.37,3.35,1.46s-1.19,1.6-2.32,1.69c-4.69.34-8.4,3.38-12.76,4.64-1,.29-2,.64-2.58-.36-.18-.3.3-1.43.72-1.62C224.7,229.55,229.42,227.59,233.62,225.81Zm-4.73-2.29c-.37.34-.78,1-1.33,1.17a20.64,20.64,0,0,0-7.72,3.86,1.65,1.65,0,0,1-2.56-.3,1.87,1.87,0,0,1,.18-1.8c3-2.53,6.87-3.15,10.45-4.37C228.61,221.84,229,222.57,228.89,223.52Zm-2.09-5.26c-3.06,1.16-5,3.93-8.8,2C220.9,218.7,223.27,217.54,226.8,218.26Zm-3.25-5.63c-.86.72-1.3,1.29-1.49,1.21-1.78-.72-2.51,2.91-4.44,1.06-.28-.27-.48-1.13-.32-1.27A5.28,5.28,0,0,1,223.55,212.63ZM215.46,207c1,0,2.41-.4,2.54,1.35s-1.23,1.5-2.21,1.63c-1.11-.15-2.51.37-2.63-1.39S214.36,207,215.46,207Zm-2.57-4.84c.8-.17,1.1.42,1.13,1.12s.08,1.3-1.06,1.56c-.49,0-.77-.46-.82-1.17S212.13,202.31,212.89,202.15Zm1.7,35.2c-4.45,3.3-7,9.1-13.12,10.2C205.54,243.75,207.76,237.52,214.59,237.35Zm-8.92.09c-1,2.4-3.73,3.53-4.92,6-.42.9-2.32.85-3.78-.36a20.42,20.42,0,0,1,6.55-6.33C204.72,236.1,206,236.76,205.67,237.44Zm-6.14-5.32a1.11,1.11,0,0,1,1.95-.34,5.91,5.91,0,0,0,1.13.69c.06,1.15-5.43,5.71-6.4,5.39-.38-.13-1-.58-.93-.84C195.53,234.44,198.84,234.47,199.53,232.12Zm-5-4.93c.42,0,1.38,1.09,1.28,1.27-1.06,2.08-1.84,4.61-5.94,4.45C191.91,230.81,191.3,227.45,194.51,227.19Zm-3.78,29.29c.76,3.49-2.65,5.74-3,9,0,.26-1.14.4-1.32.46-1.32,0-2.38-.12-2.19-1.21.58-3.24,2.75-5.73,4.38-8.45C188.93,255.7,190.55,255.66,190.73,256.48Zm-1.2-32.62c.27,3.69-.37,6.13-4.65,4.88C184.57,225.69,186.89,224.93,189.53,223.86Zm-8.35-4.26c1.88,1.29,2.26,3.07,3.17,5.49C180.46,224.24,181.21,221.93,181.18,219.6Zm2.06,35.6c1-.19,1,1.28.8,1.87-.74,1.95,0,4.89-2.35,5.68-2,.67-1.24-1.63-1.71-2.73C180.68,258.1,180.7,255.68,183.24,255.2Zm-8.07-.25a2.46,2.46,0,0,1,2.45-3c1.89.18,1.64,1.61,1.4,2.61-.31,1.33-.46,3.15-2.34,3.26C174.41,258,175.26,256.07,175.17,255Zm.28,31.61c1.44-2.44,3.25-3,3.74,1,.22,1.82-2.16,3.13-.65,5.14C176.09,291.14,173.85,289.27,175.45,286.56Zm.6,35.43a2.75,2.75,0,0,1-3,1.95c-1.5,0-2-.65-1.93-2.06s.5-2.83,2-2.73S175.53,320.57,176.05,322Zm-8.84-67.79c.24-1.82,1.52-2.38,3.15-2.22,1,.1,2.81-.56,2.52,1.16a3.52,3.52,0,0,1-3.5,2.8C168.15,256,167,255.89,167.21,254.2Zm-3.6-2.2c1.06-.12,1.48.44,1.49,1.49-.14.51.05,1.34-.95,1.32-1.17,0-1-1.14-1.35-1.77C162.23,252.09,163,252.07,163.61,252Zm1.08,36c1.44,0,1.43,1,1.42,2s0,2-1.53,1.91c-1.23-.09-2.29-.69-2.25-2S163.39,288,164.69,288Z"/></g></g></svg>