<svg xmlns="http://www.w3.org/2000/svg" viewBox="0 0 383.35 383.34"><defs><style>.cls-1{fill:#fff;}</style></defs><g id="Layer_2" data-name="Layer 2"><g id="Layer_1-2" data-name="Layer 1"><path class="cls-1" d="M383.35,264.23c-.43,1-.92,2-1.28,3-3.53,9.94-12.19,16.37-22.67,16.44-18.58.11-37.17,0-55.76.1a12.53,12.53,0,0,0-5,1Q223,318.6,152.35,275.45c-.43-.26-.88-.47-1.56-.83l-26.64,27.76Q90.48,337.5,56.8,372.61c-13.2,13.68-33.35,14.31-46.58,1.72-13.62-13-13.67-34,.11-47.36,15.75-15.3,31.67-30.42,47.52-45.61q24.3-23.33,48.62-46.62c.72-.69,1.55-1.25,2.38-1.9-25.92-41.13-31.51-84.59-17.33-131.08H87.31c-17.59,0-35.18,0-52.77,0-13.63,0-24.51-9.65-26-23C7.07,66.48,15.41,55,28.12,51.48a5.46,5.46,0,0,0,3.26-3.22C36.06,31.41,46.7,20.42,63.65,16.33c16.71-4,30.95,1.05,42.63,13.55A4.48,4.48,0,0,0,109,31.51a32.12,32.12,0,0,1,21.93,7.8c10-6.85,19.28-14,29.3-19.94,18.13-10.76,38-16.71,59-18.67a26.14,26.14,0,0,0,3.25-.7h22.46c4.77.73,9.55,1.42,14.32,2.21,59,9.75,107.45,55.68,120.39,114.28,1.6,7.25,2.53,14.66,3.77,22v23.2a13.05,13.05,0,0,0-.7,2.45,142.62,142.62,0,0,1-18,58c-2.07,3.66-2.87,6.55-.56,10.4,1.26,2.11,2.36,3.64,4.68,4.73,2.76,1.3,5.74,2.94,7.55,5.27,2.82,3.64,4.75,8,7.05,12Zm-59.72-61.05c.41-.7,1.28-2.06,2-3.48,9.83-18.51,14.14-38.15,12.2-59.11-2.67-28.86-14.77-53.13-37.29-71.17-35-28-73.44-31.9-114.15-13.17-5.55,2.55-9.74,1.68-11.85-2.71-2-4.22-.19-8.17,5-10.76a118.44,118.44,0,0,1,42-12.2c33.29-3.11,63.06,5.73,88.64,27.15C355.74,95.79,366.57,158.88,337,210.29c-.53.92-1,1.89-1.35,2.67l14.64,3.56c28.56-47.3,24.93-117.43-23.45-164-47.82-46-122.56-50.17-175-9.82C99,83.39,83.44,156.39,115.4,214.2c33.25,60.15,96.72,75.7,135.64,68.58a58.89,58.89,0,0,1-6.92-4.24,22,22,0,0,1-5.6-5.92c-1.56-2.74-3.47-3.19-6.32-3.23-31.28-.44-58.69-11.17-81-33-32.55-31.77-43.61-70.52-33.87-114.84,2-9.24,6.35-18,10-26.84,1.88-4.56,6.2-6,10.13-4.09s5.35,6.2,3.24,10.82c-.56,1.25-1.23,2.45-1.81,3.69C130.3,123.58,126.78,143,129.82,163c6.14,40.54,28.51,68.76,66.41,84.44,12.07,5,24.83,6.94,37.86,7,2.43-10.76,8.56-17.89,19-20.71,2.47-.66,3.33-1.69,3.94-4.06a42.78,42.78,0,0,1,47.82-32C311.06,198.59,317,201.16,323.63,203.18ZM309.1,268.75c16.33,0,32.66,0,49,0,5.89,0,10.13-3.87,10.28-9.14.13-4.91-3.66-8.87-9.15-9.55-4.94-.61-7-2.53-7.87-7.42-1.85-10.05-9.06-15.25-19.14-13.42-4.13.75-6.95-.48-9.25-3.82-7.64-11-19.29-15.42-31.52-12.17-10.32,2.74-20.37,13.06-20.59,26.37-.09,5.67-3.07,8.19-8.82,8.33a26.35,26.35,0,0,0-4.45.31,10.2,10.2,0,0,0-8.25,12.5c1,4.83,5.37,8,11.16,8Q284.79,268.77,309.1,268.75ZM87.71,273.6c-22.78,21.88-45.57,43.66-68.18,65.62-3.84,3.72-5.11,8.8-4.17,14.17,1.23,7,5.26,11.83,12,14,7.24,2.3,13.48.16,18.67-5.26L108.39,297a18.07,18.07,0,0,0,1.28-1.67ZM121,51c-3.81-3.48-8-4.92-12.38-3.94-5.74,1.27-9.2-.73-12.54-5.42C89.92,32.92,81,29.16,70.39,30.42c-11.25,1.34-19.06,7.51-23.15,18-1.14,2.95-1.45,6.27-1.89,9.45-.78,5.72-3.08,7.9-8.76,8-.74,0-1.49,0-2.24,0-6.3.24-10.92,4.74-10.84,10.54A10.44,10.44,0,0,0,34.2,86.7q30.66.17,61.32,0a3.84,3.84,0,0,0,2.88-1.61A160.65,160.65,0,0,1,121,51ZM116.5,245.31l-16.23,18.34,20.48,20.48,16.81-17.6Z"/><path class="cls-1" d="M146.81,70.17a7.25,7.25,0,0,1,7.68-7.3,7.33,7.33,0,0,1,7.25,7.41,7.45,7.45,0,0,1-7.55,7.53A7.33,7.33,0,0,1,146.81,70.17Z"/><path class="cls-1" d="M196.31,142.24a7.47,7.47,0,1,1-7.56,7.47A7.34,7.34,0,0,1,196.31,142.24Z"/><path class="cls-1" d="M241.11,149.62a7.47,7.47,0,1,1-7.65-7.38A7.33,7.33,0,0,1,241.11,149.62Z"/><path class="cls-1" d="M271.05,157.17a7.47,7.47,0,1,1,7.48-7.54A7.32,7.32,0,0,1,271.05,157.17Z"/></g></g></svg>