<svg xmlns="http://www.w3.org/2000/svg" viewBox="0 0 80 80"><g id="Layer_2" data-name="Layer 2"><g id="Layer_1-2" data-name="Layer 1"><rect x="33.33" width="6.67" height="11.67"/><rect y="33.33" width="11.67" height="6.67"/><rect x="52.63" y="11.53" width="11.67" height="6.67" transform="translate(6.62 45.7) rotate(-45.01)"/><rect x="11.53" y="9.03" width="6.66" height="11.66" transform="translate(-6.15 14.86) rotate(-45)"/><path d="M56.67,33.33l-.3,0A20,20,0,1,0,21.14,49.26,16.64,16.64,0,0,0,30,80H56.67a23.34,23.34,0,0,0,0-46.67ZM23.33,36.66a13.32,13.32,0,0,1,26.44-2.29A23.39,23.39,0,0,0,35.18,47.56,16.76,16.76,0,0,0,30,46.67a15.92,15.92,0,0,0-1.84.18h0A13.23,13.23,0,0,1,23.33,36.66ZM56.67,73.33H30a10,10,0,1,1,10-10h6.67A16.52,16.52,0,0,0,41.07,51a16.64,16.64,0,1,1,15.6,22.37Z"/></g></g></svg>