
<svg id="visual" viewBox="0 0 960 540" width="960" height="540" xmlns="http://www.w3.org/2000/svg" xmlns:xlink="http://www.w3.org/1999/xlink" version="1.1"><path d="M761 540L757 525C753 510 745 480 729.3 450C713.7 420 690.3 390 686.5 360C682.7 330 698.3 300 706.5 270C714.7 240 715.3 210 715.2 180C715 150 714 120 712.8 90C711.7 60 710.3 30 709.7 15L709 0L960 0L960 15C960 30 960 60 960 90C960 120 960 150 960 180C960 210 960 240 960 270C960 300 960 330 960 360C960 390 960 420 960 450C960 480 960 510 960 525L960 540Z" fill="#22cc9d"></path><path d="M708 540L720.7 525C733.3 510 758.7 480 767.7 450C776.7 420 769.3 390 774.5 360C779.7 330 797.3 300 789.7 270C782 240 749 210 735 180C721 150 726 120 728.2 90C730.3 60 729.7 30 729.3 15L729 0L960 0L960 15C960 30 960 60 960 90C960 120 960 150 960 180C960 210 960 240 960 270C960 300 960 330 960 360C960 390 960 420 960 450C960 480 960 510 960 525L960 540Z" fill="#1bad84"></path><path d="M841 540L844 525C847 510 853 480 850.2 450C847.3 420 835.7 390 825.3 360C815 330 806 300 810.3 270C814.7 240 832.3 210 833.5 180C834.7 150 819.3 120 820.3 90C821.3 60 838.7 30 847.3 15L856 0L960 0L960 15C960 30 960 60 960 90C960 120 960 150 960 180C960 210 960 240 960 270C960 300 960 330 960 360C960 390 960 420 960 450C960 480 960 510 960 525L960 540Z" fill="#148f6c"></path><path d="M880 540L882.7 525C885.3 510 890.7 480 890.3 450C890 420 884 390 882.7 360C881.3 330 884.7 300 886.8 270C889 240 890 210 894.8 180C899.7 150 908.3 120 909.2 90C910 60 903 30 899.5 15L896 0L960 0L960 15C960 30 960 60 960 90C960 120 960 150 960 180C960 210 960 240 960 270C960 300 960 330 960 360C960 390 960 420 960 450C960 480 960 510 960 525L960 540Z" fill="#0d7255"></path></svg>