<svg xmlns="http://www.w3.org/2000/svg" viewBox="0 0 306.97 69.18"><defs><style>.cls-1{fill:#fff;}</style></defs><g id="Layer_2" data-name="Layer 2"><g id="Layer_1-2" data-name="Layer 1"><path class="cls-1" d="M306.93,68.07a13.21,13.21,0,0,1-13.15-13.2q0-13.84,0-27.69a14.53,14.53,0,0,0-1.93-7.59,12.52,12.52,0,0,0-9.21-6.17A12.87,12.87,0,0,0,268,24a19,19,0,0,0-.32,3.45q0,19.71,0,39.42c0,1.19,0,1.24-1.2,1.13a12.44,12.44,0,0,1-8.1-3.78,12.9,12.9,0,0,1-3.88-9.31q0-13.84,0-27.68A14.59,14.59,0,0,0,252.71,20a12.47,12.47,0,0,0-9.48-6.56,12.84,12.84,0,0,0-13.58,7.24A14.94,14.94,0,0,0,228.26,27V54.85a13.27,13.27,0,0,1-10.85,13c-.73.12-1.48.17-2.28.25,0-.38,0-.64,0-.91q0-20,0-40.06A26.6,26.6,0,0,1,219.42,12,25.62,25.62,0,0,1,236.54.52a24.57,24.57,0,0,1,23.63,7.67l.66.69c.24-.23.43-.41.61-.6a26.08,26.08,0,0,1,10.88-6.92A25.64,25.64,0,0,1,278.81.1a26.52,26.52,0,0,1,27.85,23.14,42.74,42.74,0,0,1,.3,4.67q0,19.54,0,39.09C307,67.34,307,67.69,306.93,68.07Z"/><path class="cls-1" d="M207.87,34.61A34.78,34.78,0,1,1,173.18,0,34.66,34.66,0,0,1,207.87,34.61Zm-13.31,0c.16-11.54-9.47-21.2-21.22-21.32a21.33,21.33,0,1,0,21.22,21.32Z"/><path class="cls-1" d="M132.62,34.5c-.22,10.5-4.14,19.26-12,26.18a34.06,34.06,0,0,1-16.66,7.93,32.27,32.27,0,0,1-8,.5A34.58,34.58,0,0,1,70.25,55.68a33.4,33.4,0,0,1-6.67-14.91,34,34,0,0,1-.43-9,33.58,33.58,0,0,1,7.09-18.28A34.33,34.33,0,0,1,90.6.76,32.89,32.89,0,0,1,98,0a34.51,34.51,0,0,1,23.1,8.91,33.88,33.88,0,0,1,9.73,14.75,31.13,31.13,0,0,1,1.59,7.57C132.49,32.33,132.55,33.44,132.62,34.5ZM97.86,13.27A21.32,21.32,0,1,0,119.3,34.53,21.33,21.33,0,0,0,97.86,13.27Z"/><path class="cls-1" d="M19.11,54.81c.54,0,.87,0,1.21,0H50.84a13.3,13.3,0,0,1,13,10.3,10.88,10.88,0,0,1,.29,2.94c-.3,0-.56,0-.82,0q-26.4,0-52.79,0a11,11,0,0,1-6.54-1.75A8.87,8.87,0,0,1,0,59.22,9.1,9.1,0,0,1,2.9,52q13.51-13.38,27-26.81L40,15.26c.24-.24.44-.51.75-.85a3,3,0,0,0-.64-.15c-.41,0-.81,0-1.22,0H13A13.24,13.24,0,0,1,.52,4.65,21.08,21.08,0,0,1,0,1.79C0,1.18.1,1.1.72,1.07c.21,0,.43,0,.64,0H49.54a14.23,14.23,0,0,1,3.37.34,9.2,9.2,0,0,1,6.81,8.39,9.18,9.18,0,0,1-2.83,7.29q-14.51,14.39-29,28.84c-2.71,2.7-5.44,5.39-8.16,8.09A9.66,9.66,0,0,0,19.11,54.81Z"/></g></g></svg>